
<?xml version="1.0" standalone="no"?>
<!DOCTYPE svg PUBLIC "-//W3C//DTD SVG 1.1//EN" "http://www.w3.org/Graphics/SVG/1.1/DTD/svg11.dtd" >
<svg xmlns="http://www.w3.org/2000/svg" xmlns:xlink="http://www.w3.org/1999/xlink" version="1.1">
<metadata>
Created by FontForge 20170731 at Thu Sep 16 07:04:12 2021
 By Aleksey,,,
Copyright (c) 2020 by Christoph York. All rights reserved. Modification of this file requires prior written permission from Brink Type.
</metadata>
<defs>
<font id="BRCobane-Bold" horiz-adv-x="0" >
  <font-face 
    font-family="BR Cobane"
    font-weight="700"
    font-stretch="normal"
    units-per-em="2048"
    panose-1="0 0 8 0 0 0 0 0 0 0"
    ascent="1556"
    descent="-492"
    x-height="991"
    cap-height="1434"
    bbox="-1032 -565 2658 2019"
    underline-thickness="102"
    underline-position="-450"
    unicode-range="U+000D-2B51"
  />
<missing-glyph horiz-adv-x="1495" 
d="M1337 0h-1179v1434h1179v-1434zM647 606v-63h156v57q0 41 10.5 61t46.5 50l60 49q66 55 93 104.5t27 106.5q0 106 -76 171.5t-198 65.5q-107 0 -190.5 -52t-124.5 -138l118 -80q72 127 195 127q54 0 85.5 -25t31.5 -75q0 -55 -62 -105l-65 -53q-66 -54 -86.5 -93
t-20.5 -108zM725 215q46 0 75 30t29 77t-29 76.5t-75 29.5t-75 -29.5t-29 -76.5t29 -77t75 -30z" />
    <glyph glyph-name=".notdef" horiz-adv-x="1495" 
d="M1337 0h-1179v1434h1179v-1434zM647 606v-63h156v57q0 41 10.5 61t46.5 50l60 49q66 55 93 104.5t27 106.5q0 106 -76 171.5t-198 65.5q-107 0 -190.5 -52t-124.5 -138l118 -80q72 127 195 127q54 0 85.5 -25t31.5 -75q0 -55 -62 -105l-65 -53q-66 -54 -86.5 -93
t-20.5 -108zM725 215q46 0 75 30t29 77t-29 76.5t-75 29.5t-75 -29.5t-29 -76.5t29 -77t75 -30z" />
    <glyph glyph-name=".null" 
 />
    <glyph glyph-name="nonmarkingreturn" horiz-adv-x="682" 
 />
    <glyph glyph-name="CR" unicode="&#xd;" horiz-adv-x="464" 
 />
    <glyph glyph-name="space" unicode=" " horiz-adv-x="464" 
 />
    <glyph glyph-name="exclam" unicode="!" horiz-adv-x="616" 
d="M432 500h-248l-26 934h301zM307 -18q-83 0 -136.5 53.5t-53.5 138.5t53.5 139t136.5 54q85 0 139 -54t54 -139t-54 -138.5t-139 -53.5z" />
    <glyph glyph-name="quotedbl" unicode="&#x22;" horiz-adv-x="854" 
d="M328 879h-217l-41 579h299zM743 879h-217l-43 579h301z" />
    <glyph glyph-name="numbersign" unicode="#" horiz-adv-x="1480" 
d="M1384 1053v-215h-239l-49 -242h202v-215h-243l-70 -350h-244l70 350h-272l-70 -350h-244l70 350h-199v215h240l49 242h-203v215h244l70 350h243l-69 -350h272l70 350h243l-69 -350h198zM580 596h272l49 242h-272z" />
    <glyph glyph-name="dollar" unicode="$" horiz-adv-x="1118" 
d="M1047 471q0 -177 -118.5 -292.5t-314.5 -127.5v-137h-120v139q-170 20 -284.5 119.5t-139.5 251.5l260 63q46 -149 164 -184v318l-54 12q-176 36 -265 126.5t-89 227.5q0 163 115 272.5t305 122.5v138h119v-140q164 -17 271 -108t136 -240l-260 -65q-27 137 -147 168
v-297l71 -15q181 -39 266 -126.5t85 -225.5zM358 997q0 -49 32.5 -80t115.5 -53v279q-71 -9 -109.5 -47t-38.5 -99zM614 594v-301q75 7 117.5 49t42.5 107q0 56 -37 89.5t-123 55.5z" />
    <glyph glyph-name="percent" unicode="%" horiz-adv-x="1863" 
d="M444 702q-164 0 -273.5 108t-109.5 271q0 161 109.5 269t273.5 108t273.5 -108t109.5 -269q0 -163 -109.5 -271t-273.5 -108zM614 0h-270l905 1434h269zM444 909q71 0 115.5 48t44.5 124q0 75 -44 122.5t-116 47.5t-115.5 -47.5t-43.5 -122.5q0 -76 44 -124t115 -48z
M1419 -25q-164 0 -273.5 108t-109.5 269q0 163 109.5 271t273.5 108t273.5 -108t109.5 -271q0 -161 -109.5 -269t-273.5 -108zM1419 182q71 0 115.5 47.5t44.5 122.5q0 76 -44.5 124t-115.5 48q-72 0 -115.5 -47.5t-43.5 -124.5q0 -75 43.5 -122.5t115.5 -47.5z" />
    <glyph glyph-name="ampersand" unicode="&#x26;" horiz-adv-x="1382" 
d="M1120 279l244 -279h-303l-98 113q-169 -138 -406 -138q-223 0 -357 112.5t-134 287.5q0 238 286 407q-157 180 -157 334q0 145 114 243.5t297 98.5q177 0 287.5 -92.5t110.5 -239.5q0 -227 -265 -378l-20 -13l221 -250q37 83 53 226h262q-29 -259 -135 -432zM604 1229
q-62 0 -101.5 -35t-39.5 -88q0 -80 92 -182l20 -25l31 19q142 81 142 182q0 58 -41 93.5t-103 35.5zM356 393q0 -78 57 -124t160 -46q119 0 213 64l-282 321q-148 -83 -148 -215z" />
    <glyph glyph-name="quotesingle" unicode="'" horiz-adv-x="438" 
d="M328 879h-217l-41 579h299z" />
    <glyph glyph-name="parenleft" unicode="(" horiz-adv-x="716" 
d="M668 -119l-219 -135q-162 179 -250 418t-88 481t88 481t250 418l219 -135q-118 -146 -189 -353t-71 -411t71 -411t189 -353z" />
    <glyph glyph-name="parenright" unicode=")" horiz-adv-x="716" 
d="M266 -254l-217 135q117 146 187.5 353t70.5 411t-70.5 411t-187.5 353l217 135q162 -179 250 -418t88 -481t-88 -481t-250 -418z" />
    <glyph glyph-name="asterisk" unicode="*" horiz-adv-x="997" 
d="M498 866l-168 -254l-176 123l190 240l-293 82l68 205l284 -109l-12 305h213l-12 -305l287 107l65 -205l-293 -80l189 -240l-174 -125z" />
    <glyph glyph-name="plus" unicode="+" horiz-adv-x="1331" 
d="M805 780h325v-262h-325v-352h-279v352h-325v262h325v353h279v-353z" />
    <glyph glyph-name="comma" unicode="," horiz-adv-x="571" 
d="M281 360q90 0 145.5 -64.5t54.5 -180.5q-2 -127 -69.5 -253.5t-188.5 -221.5l-92 104q128 125 156 254h-11q-83 0 -134.5 50t-51.5 128q0 80 54 132t137 52z" />
    <glyph glyph-name="hyphen" unicode="-" horiz-adv-x="808" 
d="M729 444h-649v254h649v-254z" />
    <glyph glyph-name="period" unicode="." horiz-adv-x="563" 
d="M283 -18q-85 0 -139 53.5t-54 138.5t54 139t139 54q83 0 136.5 -54t53.5 -139t-53.5 -138.5t-136.5 -53.5z" />
    <glyph glyph-name="slash" unicode="/" horiz-adv-x="1079" 
d="M305 -188h-287l758 1708h287z" />
    <glyph glyph-name="zero" unicode="0" horiz-adv-x="1300" 
d="M649 -25q-251 0 -388.5 143t-137.5 398v402q0 255 137.5 397.5t388.5 142.5q252 0 390.5 -142.5t138.5 -397.5v-402q0 -255 -138.5 -398t-390.5 -143zM649 248q112 0 171 66.5t59 201.5v402q0 135 -59 201.5t-171 66.5q-229 0 -229 -268v-402q0 -268 229 -268z" />
    <glyph glyph-name="one" unicode="1" horiz-adv-x="901" 
d="M479 1434h240v-1434h-299v991h-303v262h73q140 0 203 40t86 141z" />
    <glyph glyph-name="two" unicode="2" horiz-adv-x="1171" 
d="M707 518q-126 -76 -190.5 -132t-92.5 -114h655v-272h-981v145q0 89 17.5 156.5t63 134.5t122.5 130.5t199 138.5q166 104 225 173t59 142q0 77 -46.5 121.5t-125.5 44.5q-90 0 -151 -62t-82 -192l-293 51q32 230 170.5 352.5t351.5 122.5q216 0 345.5 -118.5
t129.5 -317.5q0 -144 -84 -260.5t-292 -243.5z" />
    <glyph glyph-name="three" unicode="3" horiz-adv-x="1202" 
d="M606 -25q-222 0 -359.5 120t-154.5 331l291 37q13 -105 72 -160t151 -55q93 0 149 51t56 135q0 83 -56 128.5t-161 45.5h-141v246h137q95 0 142.5 44t47.5 120q0 79 -47.5 123.5t-132.5 44.5q-175 0 -211 -207l-293 39q26 205 164 322.5t348 117.5t339.5 -112.5
t129.5 -296.5q0 -216 -188 -312v-6q106 -46 163.5 -131.5t57.5 -200.5q0 -187 -140 -305.5t-364 -118.5z" />
    <glyph glyph-name="four" unicode="4" horiz-adv-x="1253" 
d="M1036 510h168v-254h-168v-256h-280v256h-680v236l602 942h358v-924zM756 1102l-377 -592h377v592z" />
    <glyph glyph-name="five" unicode="5" horiz-adv-x="1200" 
d="M680 946q197 0 322.5 -130.5t125.5 -344.5q0 -222 -143.5 -359t-374.5 -137q-209 0 -348 111.5t-164 300.5l291 53q15 -90 76.5 -141t148.5 -51q99 0 157 64t58 171q0 105 -57 165.5t-154 60.5q-64 0 -118.5 -27.5t-87.5 -79.5h-287l98 832h809v-273h-555l-35 -278
q100 63 238 63z" />
    <glyph glyph-name="six" unicode="6" horiz-adv-x="1222" 
d="M662 995q207 0 348 -139.5t141 -353.5q0 -147 -71 -268t-195 -190t-273 -69q-147 0 -269 67.5t-193.5 187.5t-71.5 268q0 101 38.5 202.5t133.5 239.5l330 494h352l-297 -439h27zM614 248q102 0 170 70.5t68 179.5q0 108 -68 177.5t-170 69.5t-169.5 -69.5t-67.5 -177.5
q0 -109 67.5 -179.5t169.5 -70.5z" />
    <glyph glyph-name="seven" unicode="7" horiz-adv-x="1077" 
d="M70 1161v273h944v-267l-496 -1167h-348l512 1161h-612z" />
    <glyph glyph-name="eight" unicode="8" horiz-adv-x="1222" 
d="M610 -25q-238 0 -377 115.5t-139 302.5q0 116 57 206.5t162 139.5v9q-196 103 -196 311q0 174 136 286.5t357 112.5q223 0 359.5 -112.5t136.5 -286.5q0 -207 -197 -311v-9q105 -49 162 -139.5t57 -206.5q0 -187 -139 -302.5t-379 -115.5zM610 850q92 0 146.5 49.5
t54.5 128.5q0 81 -54 130.5t-147 49.5q-91 0 -144.5 -49.5t-53.5 -130.5q0 -79 53.5 -128.5t144.5 -49.5zM610 225q97 0 159 53t62 140q0 85 -62.5 140.5t-158.5 55.5q-95 0 -157 -55.5t-62 -140.5q0 -87 62 -140t157 -53z" />
    <glyph glyph-name="nine" unicode="9" horiz-adv-x="1222" 
d="M610 1458q147 0 269.5 -67t194 -187t71.5 -268q0 -101 -38.5 -202.5t-133.5 -239.5l-330 -494h-352l297 438h-27q-206 0 -347.5 140t-141.5 354q0 147 71 268t194.5 189.5t272.5 68.5zM608 688q102 0 170 70t68 178q0 109 -68 179.5t-170 70.5t-169.5 -70.5t-67.5 -179.5
q0 -108 67.5 -178t169.5 -70z" />
    <glyph glyph-name="colon" unicode=":" horiz-adv-x="583" 
d="M303 623q-85 0 -138.5 53.5t-53.5 136.5q0 86 53.5 140.5t138.5 54.5q84 0 137.5 -54.5t53.5 -140.5q0 -83 -54 -136.5t-137 -53.5zM303 -20q-85 0 -138.5 53.5t-53.5 136.5q0 85 53.5 138.5t138.5 53.5q83 0 137 -54t54 -138q0 -83 -54 -136.5t-137 -53.5z" />
    <glyph glyph-name="semicolon" unicode=";" horiz-adv-x="593" 
d="M303 623q-85 0 -138.5 53.5t-53.5 136.5q0 86 53.5 140.5t138.5 54.5q84 0 137.5 -54.5t53.5 -140.5q0 -83 -54 -136.5t-137 -53.5zM303 358q90 0 145.5 -64.5t55.5 -180.5q-2 -127 -70 -253t-190 -222l-92 104q129 123 157 254h-10q-83 0 -134.5 50t-51.5 128
q0 79 53 131.5t137 52.5z" />
    <glyph glyph-name="less" unicode="&#x3c;" horiz-adv-x="1331" 
d="M201 778l929 350v-280l-548 -199l548 -198v-281l-929 350v258z" />
    <glyph glyph-name="equal" unicode="=" horiz-adv-x="1331" 
d="M1130 737h-929v262h929v-262zM1130 299h-929v262h929v-262z" />
    <glyph glyph-name="greater" unicode="&#x3e;" horiz-adv-x="1331" 
d="M201 848v280l929 -350v-258l-929 -350v281l549 198z" />
    <glyph glyph-name="question" unicode="?" horiz-adv-x="1001" 
d="M610 500h-286v80q0 102 31 158.5t139 146.5l92 78q76 63 76 120q0 52 -35 82.5t-97 30.5q-162 0 -231 -205l-252 101q41 170 169 268t312 98q186 0 303 -98.5t117 -259.5q0 -86 -40.5 -158.5t-139.5 -153.5l-84 -71q-49 -41 -61.5 -67t-12.5 -85v-65zM467 -18
q-83 0 -137 54t-54 138q0 85 54 139t137 54t136.5 -54t53.5 -139t-53.5 -138.5t-136.5 -53.5z" />
    <glyph glyph-name="at" unicode="@" horiz-adv-x="1976" 
d="M1020 -426q-272 0 -484.5 112t-330 314.5t-117.5 462.5q0 197 72.5 368.5t197.5 290t295.5 186.5t362.5 68q181 0 343.5 -60.5t282 -166t189.5 -258.5t70 -330q0 -234 -114.5 -382t-289.5 -148q-99 0 -177 48.5t-108 133.5h-6q-33 -87 -104.5 -131.5t-169.5 -44.5
q-161 0 -265 118t-104 310q0 193 104.5 311.5t264.5 118.5q81 0 142.5 -32.5t94.5 -96.5h7l16 100h201v-483q0 -70 27.5 -106.5t76.5 -36.5q70 0 116 76.5t46 220.5q0 186 -84.5 325t-229 210t-327.5 71q-199 0 -354.5 -86t-241.5 -240t-86 -350q0 -298 190 -480t500 -182
q202 0 379 72v-235q-176 -68 -385 -68zM993 254q82 0 133.5 56t51.5 155q0 100 -51.5 156.5t-133.5 56.5t-133 -56.5t-51 -156.5q0 -99 51 -155t133 -56z" />
    <glyph glyph-name="A" unicode="A" horiz-adv-x="1376" 
d="M1360 0h-318l-92 283h-524l-94 -283h-316l498 1434h348zM684 1065l-174 -524h354l-172 524h-8z" />
    <glyph glyph-name="B" unicode="B" horiz-adv-x="1300" 
d="M979 739v-6q242 -71 242 -336q0 -188 -122 -292.5t-347 -104.5h-594v1434h516q231 0 362 -107t131 -285q0 -214 -188 -303zM682 1180h-227v-336h227q95 0 145 42t50 124q0 79 -50.5 124.5t-144.5 45.5zM455 254h266q188 0 188 170t-188 170h-266v-340z" />
    <glyph glyph-name="C" unicode="C" horiz-adv-x="1538" 
d="M803 -25q-207 0 -371.5 94.5t-257 264t-92.5 383.5q0 128 34.5 243t99 205.5t152.5 156.5t199.5 101t235.5 35q264 0 449.5 -147t222.5 -389l-314 -52q-25 145 -120.5 225.5t-237.5 80.5q-178 0 -293 -125t-115 -334t115 -334t295 -125q144 0 242 80t122 225l304 -51
q-37 -242 -223 -389.5t-447 -147.5z" />
    <glyph glyph-name="D" unicode="D" horiz-adv-x="1409" 
d="M158 1434h403q351 0 556.5 -191t205.5 -526q0 -333 -206.5 -525t-555.5 -192h-403v1434zM461 283h117q205 0 319.5 112t114.5 322t-114.5 322t-319.5 112h-117v-868z" />
    <glyph glyph-name="E" unicode="E" horiz-adv-x="1165" 
d="M1057 1434v-279h-596v-301h530v-270h-530v-305h596v-279h-899v1434h899z" />
    <glyph glyph-name="F" unicode="F" horiz-adv-x="1146" 
d="M1057 1434v-279h-596v-350h555v-273h-555v-532h-303v1434h899z" />
    <glyph glyph-name="G" unicode="G" horiz-adv-x="1583" 
d="M836 543v254h637v-797h-228l-16 170h-8q-72 -95 -187.5 -145t-255.5 -50q-145 0 -273.5 54t-221.5 149.5t-147 234.5t-54 302q0 218 94 387.5t261 262.5t378 93q239 0 413 -118.5t234 -319.5l-303 -86q-35 117 -127 181.5t-223 64.5q-183 0 -298.5 -127.5t-115.5 -337.5
q0 -211 116.5 -336t303.5 -125q147 0 249 78t130 211h-358z" />
    <glyph glyph-name="H" unicode="H" horiz-adv-x="1452" 
d="M991 842v592h303v-1434h-303v561h-530v-561h-303v1434h303v-592h530z" />
    <glyph glyph-name="I" unicode="I" horiz-adv-x="618" 
d="M461 0h-303v1434h303v-1434z" />
    <glyph glyph-name="J" unicode="J" horiz-adv-x="1210" 
d="M211 1151v283h860v-934q0 -259 -131.5 -392t-378.5 -133q-222 0 -352.5 106.5t-155.5 309.5l295 68q24 -108 77 -155.5t136 -47.5q100 0 153.5 64t53.5 194v637h-557z" />
    <glyph glyph-name="K" unicode="K" horiz-adv-x="1353" 
d="M1333 1434l-577 -709l587 -725h-376l-500 618h-6v-618h-303v1434h303v-625h6l510 625h356z" />
    <glyph glyph-name="L" unicode="L" horiz-adv-x="1087" 
d="M461 1434v-1151h569v-283h-872v1434h303z" />
    <glyph glyph-name="M" unicode="M" horiz-adv-x="1884" 
d="M946 455l459 979h321v-1434h-294v850h-9l-391 -850h-180l-391 850h-6v-850h-297v1434h321l459 -979h8z" />
    <glyph glyph-name="N" unicode="N" horiz-adv-x="1523" 
d="M1063 524v910h303v-1434h-307l-592 909h-6v-909h-303v1434h307l590 -910h8z" />
    <glyph glyph-name="O" unicode="O" horiz-adv-x="1609" 
d="M805 -25q-208 0 -373 94.5t-257.5 264t-92.5 383.5q0 160 54 298.5t149.5 235.5t230 152t289.5 55t289.5 -55t230 -152t149.5 -235.5t54 -298.5q0 -214 -92.5 -383.5t-257.5 -264t-373 -94.5zM805 256q182 0 295.5 126.5t113.5 334.5t-113.5 334.5t-295.5 126.5
q-183 0 -296.5 -126.5t-113.5 -334.5t113.5 -334.5t296.5 -126.5z" />
    <glyph glyph-name="P" unicode="P" horiz-adv-x="1298" 
d="M158 1434h471q282 0 440 -136.5t158 -375.5q0 -240 -158 -377t-440 -137h-168v-408h-303v1434zM461 688h170q139 0 210.5 60t71.5 174q0 113 -71.5 172t-210.5 59h-170v-465z" />
    <glyph glyph-name="Q" unicode="Q" horiz-adv-x="1609" 
d="M1528 717q0 -303 -178 -506l157 -188l-215 -181l-168 201q-152 -68 -319 -68q-208 0 -373 94.5t-257.5 264t-92.5 383.5q0 160 54 298.5t149.5 235.5t230 152t289.5 55t289.5 -55t230 -152t149.5 -235.5t54 -298.5zM805 256q67 0 125 18l-219 258l217 183l221 -264
q65 109 65 266q0 208 -113.5 334.5t-295.5 126.5q-183 0 -296.5 -126.5t-113.5 -334.5t113.5 -334.5t296.5 -126.5z" />
    <glyph glyph-name="R" unicode="R" horiz-adv-x="1331" 
d="M1241 0h-354l-285 434h-141v-434h-303v1434h473q282 0 440 -134.5t158 -365.5q0 -164 -81.5 -281.5t-232.5 -173.5zM645 1153h-184v-440h184q131 0 202 57.5t71 163.5q0 104 -71.5 161.5t-201.5 57.5z" />
    <glyph glyph-name="S" unicode="S" horiz-adv-x="1208" 
d="M616 -25q-222 0 -373 113.5t-182 302.5l289 70q67 -215 275 -215q100 0 159.5 47.5t59.5 124.5q0 65 -50 104.5t-173 65.5l-148 30q-393 85 -393 400q0 195 143 317.5t377 122.5q212 0 352.5 -103.5t175.5 -287.5l-288 -72q-43 193 -248 193q-97 0 -154 -44.5t-57 -115.5
q0 -60 50 -95.5t181 -64.5l146 -30q201 -44 295 -142t94 -254q0 -207 -146.5 -337t-384.5 -130z" />
    <glyph glyph-name="T" unicode="T" horiz-adv-x="1161" 
d="M37 1434h1087v-283h-393v-1151h-303v1151h-391v283z" />
    <glyph glyph-name="U" unicode="U" horiz-adv-x="1413" 
d="M707 -25q-264 0 -416 156t-152 430v873h301v-856q0 -156 71.5 -237t195.5 -81q123 0 193.5 81t70.5 237v856h303v-873q0 -274 -152.5 -430t-414.5 -156z" />
    <glyph glyph-name="V" unicode="V" horiz-adv-x="1331" 
d="M844 0h-359l-469 1434h318l328 -1059h8l327 1059h318z" />
    <glyph glyph-name="W" unicode="W" horiz-adv-x="2048" 
d="M735 0h-303l-405 1434h313l256 -949h6l287 949h270l287 -949h6l256 949h315l-407 -1434h-301l-287 973h-8z" />
    <glyph glyph-name="X" unicode="X" horiz-adv-x="1261" 
d="M815 745l424 -745h-328l-280 498l-281 -498h-325l421 745l-407 689h334l258 -449l258 449h334z" />
    <glyph glyph-name="Y" unicode="Y" horiz-adv-x="1290" 
d="M797 0h-303v580l-488 854h338l299 -549h6l299 549h336l-487 -854v-580z" />
    <glyph glyph-name="Z" unicode="Z" horiz-adv-x="1169" 
d="M1071 1196l-608 -913h624v-283h-1005v238l608 913h-592v283h973v-238z" />
    <glyph glyph-name="bracketleft" unicode="[" horiz-adv-x="774" 
d="M711 1520v-260h-267v-1233h267v-260h-553v1753h553z" />
    <glyph glyph-name="backslash" unicode="\" horiz-adv-x="1081" 
d="M305 1520l758 -1708h-287l-758 1708h287z" />
    <glyph glyph-name="bracketright" unicode="]" horiz-adv-x="774" 
d="M63 1260v260h553v-1753h-553v260h267v1233h-267z" />
    <glyph glyph-name="asciicircum" unicode="^" horiz-adv-x="1247" 
d="M764 1384l436 -671h-319l-256 422l-258 -422h-318l436 671h279z" />
    <glyph glyph-name="underscore" unicode="_" horiz-adv-x="905" 
d="M885 -324h-865v232h865v-232z" />
    <glyph glyph-name="grave" unicode="`" horiz-adv-x="1228" 
d="M807 1126h-260l-221 312h325z" />
    <glyph glyph-name="a" unicode="a" horiz-adv-x="1124" 
d="M573 1016q209 0 315.5 -102.5t106.5 -303.5v-610h-260l-10 123h-8q-43 -69 -123.5 -108.5t-179.5 -39.5q-150 0 -243 80.5t-93 210.5q0 123 89.5 201.5t272.5 105.5l187 27q54 9 71 21.5t17 40.5q0 55 -39 86.5t-111 31.5q-73 0 -122 -36t-66 -107l-271 55
q30 151 151 237.5t316 86.5zM719 408v36q-23 -16 -117 -32l-98 -15q-135 -20 -135 -104q0 -46 34.5 -73t96.5 -27q93 0 156 60.5t63 154.5z" />
    <glyph glyph-name="b" unicode="b" horiz-adv-x="1226" 
d="M705 1016q188 0 315 -144t127 -376t-127 -376.5t-315 -144.5q-98 0 -178 40t-117 106h-9l-10 -121h-262v1434h287v-555h6q37 61 112.5 99t170.5 38zM631 233q100 0 162.5 70.5t62.5 192.5t-62.5 192t-162.5 70t-161.5 -70t-61.5 -192t61.5 -192.5t161.5 -70.5z" />
    <glyph glyph-name="c" unicode="c" horiz-adv-x="1126" 
d="M584 -25q-224 0 -366 145t-142 376t143 375.5t369 144.5q191 0 322 -103.5t157 -281.5l-289 -45q-12 78 -65.5 125t-128.5 47q-93 0 -155 -71.5t-62 -190.5t62.5 -191t156.5 -72q75 0 131 44.5t69 123.5l281 -45q-26 -172 -159.5 -276.5t-323.5 -104.5z" />
    <glyph glyph-name="d" unicode="d" horiz-adv-x="1224" 
d="M811 879v555h287v-1434h-262l-13 121h-6q-38 -66 -118.5 -106t-178.5 -40q-188 0 -315 144.5t-127 376.5t127 376t315 144q96 0 171 -38t112 -99h8zM594 233q100 0 162.5 70.5t62.5 192.5t-62.5 192t-162.5 70t-162.5 -70t-62.5 -192t62.5 -192.5t162.5 -70.5z" />
    <glyph glyph-name="e" unicode="e" horiz-adv-x="1153" 
d="M1077 524q0 -42 -6 -98h-715q17 -104 80 -157.5t160 -53.5q71 0 123 30t78 85l262 -60q-47 -137 -172 -216t-295 -79q-231 0 -373.5 142.5t-142.5 371.5q0 233 145 380t371 147q215 0 350 -134t135 -358zM592 780q-85 0 -143.5 -43.5t-81.5 -128.5h426
q-14 87 -67.5 129.5t-133.5 42.5z" />
    <glyph glyph-name="f" unicode="f" horiz-adv-x="761" 
d="M639 1202q-82 0 -120 -34.5t-38 -110.5v-66h238v-248h-238v-743h-286v743h-160v248h160v66q0 199 97 300t279 101q82 0 150 -20v-244q-50 8 -82 8z" />
    <glyph glyph-name="g" unicode="g" horiz-adv-x="1226" 
d="M825 870l11 121h262v-973q0 -236 -139.5 -368.5t-378.5 -132.5q-193 0 -325.5 89.5t-170.5 256.5l268 71q58 -165 234 -165q110 0 172.5 65.5t62.5 183.5v140h-6q-37 -64 -118 -103t-177 -39q-189 0 -314.5 139t-125.5 359t126 361t314 141q98 0 179 -40t118 -106h8z
M594 272q99 0 162 66.5t63 175.5t-63 176.5t-162 67.5q-98 0 -160.5 -67.5t-62.5 -176.5t62.5 -175.5t160.5 -66.5z" />
    <glyph glyph-name="h" unicode="h" horiz-adv-x="1171" 
d="M717 1016q157 0 245.5 -104t88.5 -296v-616h-287v537q0 114 -40.5 164.5t-121.5 50.5q-87 0 -136.5 -56t-49.5 -166v-530h-287v1434h287v-555h6q108 137 295 137z" />
    <glyph glyph-name="i" unicode="i" horiz-adv-x="544" 
d="M272 1126q-76 0 -128 50.5t-52 126.5t52 126t128 50t128.5 -50t52.5 -126t-52.5 -126.5t-128.5 -50.5zM416 0h-287v991h287v-991z" />
    <glyph glyph-name="j" unicode="j" horiz-adv-x="544" 
d="M272 1126q-76 0 -128 50.5t-52 126.5t52 126t128 50t128.5 -50t52.5 -126t-52.5 -126.5t-128.5 -50.5zM74 -483q-65 0 -127 12v248q32 -4 57 -4q67 0 96 31t29 106v1081h287v-1108q0 -195 -81 -280.5t-261 -85.5z" />
    <glyph glyph-name="k" unicode="k" horiz-adv-x="1120" 
d="M684 522l428 -522h-352l-338 416h-6v-416h-287v1434h287v-820h8l328 377h346z" />
    <glyph glyph-name="l" unicode="l" horiz-adv-x="544" 
d="M416 0h-287v1434h287v-1434z" />
    <glyph glyph-name="m" unicode="m" horiz-adv-x="1751" 
d="M1298 1016q155 0 244.5 -103.5t89.5 -296.5v-616h-286v539q0 213 -150 213q-78 0 -125 -56.5t-47 -165.5v-530h-287v539q0 112 -37 162.5t-110 50.5q-80 0 -127 -57t-47 -165v-530h-287v991h262l10 -121h9q44 67 123 106.5t169 39.5q183 0 267 -158h8q53 73 138 115.5
t183 42.5z" />
    <glyph glyph-name="n" unicode="n" horiz-adv-x="1171" 
d="M715 1016q156 0 246 -101t90 -284v-631h-287v537q0 114 -40.5 164.5t-121.5 50.5q-87 0 -136.5 -56t-49.5 -166v-530h-287v991h262l10 -121h9q44 67 126 106.5t179 39.5z" />
    <glyph glyph-name="o" unicode="o" horiz-adv-x="1187" 
d="M594 -25q-228 0 -373 145.5t-145 375.5t145 375t373 145t373 -145t145 -375t-145 -375.5t-373 -145.5zM594 231q101 0 164 72t63 193t-63 191.5t-164 70.5t-164 -70.5t-63 -191.5t63 -193t164 -72z" />
    <glyph glyph-name="p" unicode="p" horiz-adv-x="1222" 
d="M705 1016q188 0 315 -144t127 -376t-127 -376.5t-315 -144.5q-95 0 -170.5 38.5t-112.5 99.5h-6v-572h-287v1450h262l10 -121h9q37 66 117 106t178 40zM631 233q99 0 162 70.5t63 192.5t-63 192t-162 70q-98 0 -160.5 -70t-62.5 -192t62.5 -192.5t160.5 -70.5z" />
    <glyph glyph-name="q" unicode="q" horiz-adv-x="1222" 
d="M821 870l10 121h263v-1450h-287v572h-6q-37 -61 -112.5 -99.5t-170.5 -38.5q-188 0 -315 144.5t-127 376.5t127 376t315 144q98 0 178 -40t117 -106h8zM592 233q99 0 161 70.5t62 192.5t-62 192t-161 70t-162 -70t-63 -192t63 -192.5t162 -70.5z" />
    <glyph glyph-name="r" unicode="r" horiz-adv-x="813" 
d="M680 1010q52 0 90 -15v-270q-46 6 -86 6q-135 0 -201.5 -70.5t-66.5 -216.5v-444h-287v991h260l14 -149h9q35 79 106.5 123.5t161.5 44.5z" />
    <glyph glyph-name="s" unicode="s" horiz-adv-x="960" 
d="M489 -25q-173 0 -288.5 77.5t-137.5 207.5l256 62q15 -58 64.5 -91.5t116.5 -33.5q61 0 96 25t35 65q0 70 -137 96l-121 25q-154 29 -228.5 99.5t-74.5 186.5q0 142 110.5 232t302.5 90q167 0 273.5 -71t134.5 -197l-256 -64q-14 53 -57.5 83t-106.5 30q-59 0 -93 -24
t-34 -62q0 -30 29.5 -50t111.5 -36l121 -25q155 -28 227 -100.5t72 -186.5q0 -150 -111.5 -244t-304.5 -94z" />
    <glyph glyph-name="t" unicode="t" horiz-adv-x="788" 
d="M637 229q41 0 88 7v-242q-78 -19 -158 -19q-195 0 -289 94t-94 298v372h-153v252h153v236h287v-236h248v-252h-248v-350q0 -90 36.5 -125t129.5 -35z" />
    <glyph glyph-name="u" unicode="u" horiz-adv-x="1161" 
d="M745 461v530h287v-991h-260l-12 121h-6q-46 -67 -127.5 -106.5t-175.5 -39.5q-151 0 -240.5 104t-89.5 296v616h287v-536q0 -114 39 -164.5t116 -50.5q86 0 134 55.5t48 165.5z" />
    <glyph glyph-name="v" unicode="v" horiz-adv-x="1071" 
d="M694 0h-317l-361 991h310l206 -643h7l206 643h310z" />
    <glyph glyph-name="w" unicode="w" horiz-adv-x="1665" 
d="M631 0h-301l-303 991h297l170 -612h8l200 612h261l200 -612h8l170 612h297l-305 -991h-299l-198 627h-7z" />
    <glyph glyph-name="x" unicode="x" horiz-adv-x="1056" 
d="M694 512l342 -512h-313l-195 293l-194 -293h-314l342 512l-327 479h309l184 -272l185 272h309z" />
    <glyph glyph-name="y" unicode="y" horiz-adv-x="1167" 
d="M754 498v493h286v-995q0 -227 -130.5 -353t-356.5 -126q-186 0 -311.5 86t-155.5 245l266 72q47 -151 207 -151q95 0 150 57.5t55 169.5v166h-8q-41 -67 -122.5 -106.5t-176.5 -39.5q-155 0 -244.5 103t-89.5 295v577h287v-499q0 -112 39.5 -161.5t117.5 -49.5
q88 0 137.5 55t49.5 162z" />
    <glyph glyph-name="z" unicode="z" horiz-adv-x="952" 
d="M868 782l-422 -530h437v-252h-813v209l422 530h-414v252h790v-209z" />
    <glyph glyph-name="braceleft" unicode="{" horiz-adv-x="800" 
d="M735 -233h-198q-156 0 -242 79.5t-86 219.5v323q0 65 -31 94t-100 29h-17v262h17q69 0 100 29t31 94v324q0 140 86 219.5t242 79.5h198v-258h-123q-63 0 -90.5 -27t-27.5 -90v-248q0 -203 -172 -250v-8q172 -47 172 -250v-248q0 -63 27.5 -89.5t90.5 -26.5h123v-258z" />
    <glyph glyph-name="bar" unicode="|" horiz-adv-x="655" 
d="M457 -205h-258v1772h258v-1772z" />
    <glyph glyph-name="braceright" unicode="}" horiz-adv-x="800" 
d="M264 -233h-198v258h124q62 0 90.5 27t28.5 89v248q0 204 172 250v8q-172 46 -172 250v248q0 62 -28.5 89.5t-90.5 27.5h-124v258h198q156 0 242 -79.5t86 -219.5v-324q0 -64 31.5 -93.5t99.5 -29.5h18v-262h-18q-68 0 -99.5 -29.5t-31.5 -93.5v-323q0 -140 -86 -219.5
t-242 -79.5z" />
    <glyph glyph-name="asciitilde" unicode="~" horiz-adv-x="1331" 
d="M881 469q-75 0 -215 48t-215 48q-67 0 -124 -20.5t-126 -67.5v262q122 88 254 88q72 0 214 -49t210 -49q143 0 251 90v-262q-124 -88 -249 -88z" />
    <glyph glyph-name="uni00A0" unicode="&#xa0;" horiz-adv-x="464" 
 />
    <glyph glyph-name="exclamdown" unicode="&#xa1;" horiz-adv-x="616" 
d="M307 1016q85 0 139 -54t54 -137q0 -86 -54 -140t-139 -54q-84 0 -137 54t-53 140q0 83 53.5 137t136.5 54zM158 -436l26 934h248l27 -934h-301z" />
    <glyph glyph-name="cent" unicode="&#xa2;" horiz-adv-x="1153" 
d="M645 991v-551q68 14 115 59.5t59 116.5l258 -41q-25 -157 -142.5 -258t-289.5 -116v-201h-121v203q-195 23 -316.5 163.5t-121.5 350.5t121.5 350.5t316.5 163.5v203h121v-201q173 -14 290 -115t142 -262l-266 -43q-12 72 -57 119t-109 59zM356 717q0 -104 46 -175.5
t122 -95.5v541q-76 -24 -122 -95t-46 -175z" />
    <glyph glyph-name="sterling" unicode="&#xa3;" horiz-adv-x="1110" 
d="M621 489q0 -139 -93 -235h521v-254h-957v166q134 94 188 168.5t54 165.5q0 40 -10 88h-230v186h152q-27 55 -42.5 90t-29.5 90.5t-14 108.5q0 171 122 283t320 112q189 0 309 -103t140 -282l-271 -55q-28 190 -176 190q-70 0 -110.5 -40t-40.5 -111q0 -24 4 -48t17.5 -60
t19 -50.5t28 -66t25.5 -58.5h352v-186h-289q11 -61 11 -99z" />
    <glyph glyph-name="currency" unicode="&#xa4;" horiz-adv-x="1128" 
d="M987 717q0 -124 -63 -225l137 -138l-133 -133l-142 139q-92 -53 -221 -53q-123 0 -221 53l-141 -139l-133 133l137 138q-64 98 -64 225t64 225l-137 137l133 133l141 -141q96 55 221 55q122 0 223 -53l140 139l133 -133l-137 -137q63 -101 63 -225zM565 543q76 0 122 48
t46 126t-46 126t-122 48t-123 -48t-47 -126t47 -126t123 -48z" />
    <glyph glyph-name="yen" unicode="&#xa5;" horiz-adv-x="1181" 
d="M848 1434h305l-356 -682h290v-174h-352v-152h352v-174h-352v-252h-289v252h-350v174h350v152h-350v174h289l-356 682h305l258 -529z" />
    <glyph glyph-name="brokenbar" unicode="&#xa6;" horiz-adv-x="655" 
d="M457 825h-258v742h258v-742zM457 -205h-258v725h258v-725z" />
    <glyph glyph-name="section" unicode="&#xa7;" horiz-adv-x="1093" 
d="M811 369q182 -90 182 -281q0 -159 -119.5 -260.5t-316.5 -101.5q-176 0 -292.5 85t-145.5 236l264 68q32 -146 184 -146q70 0 109 29t39 82q0 41 -37 67.5t-131 47.5l-125 24q-320 68 -320 318q0 96 47.5 169.5t133.5 108.5q-183 89 -183 281q0 159 120 260.5t317 101.5
q176 0 292.5 -84.5t147.5 -236.5l-266 -68q-33 145 -183 145q-71 0 -110 -29t-39 -81q0 -41 37 -67.5t131 -47.5l125 -24q321 -68 321 -320q0 -95 -48 -168t-134 -108zM496 455l47 -13q70 -17 123 31.5t53 128.5q0 52 -29.5 82t-91.5 45l-45 12q-71 17 -123.5 -31
t-52.5 -128q0 -52 28.5 -82t90.5 -45z" />
    <glyph glyph-name="dieresis" unicode="&#xa8;" horiz-adv-x="1228" 
d="M389 1135q-69 0 -116.5 47.5t-47.5 120.5q0 74 47.5 120.5t116.5 46.5q72 0 120 -46.5t48 -120.5q0 -73 -48.5 -120.5t-119.5 -47.5zM838 1135q-70 0 -118 47.5t-48 120.5q0 74 48 120.5t118 46.5t118 -46.5t48 -120.5q0 -73 -48 -120.5t-118 -47.5z" />
    <glyph glyph-name="copyright" unicode="&#xa9;" horiz-adv-x="1660" 
d="M829 -25q-206 0 -377.5 98.5t-270.5 269t-99 374.5q0 153 58.5 290t158 236t238 157t292.5 58t292.5 -58t238.5 -157t158.5 -236t58.5 -290t-58.5 -290.5t-158.5 -236.5t-238.5 -157t-292.5 -58zM829 129q123 0 231.5 46.5t185 125t121 187t44.5 229.5t-44.5 229.5
t-121 187t-185 125t-231.5 46.5q-163 0 -296 -78.5t-208 -213.5t-75 -296t75 -296t208 -213.5t296 -78.5zM840 299q-181 0 -296.5 116.5t-115.5 303.5q0 185 116 301.5t300 116.5q155 0 261 -85t128 -231l-258 -41q-7 56 -44.5 89.5t-90.5 33.5q-66 0 -109 -51t-43 -133
q0 -85 43.5 -137t110.5 -52q50 0 90.5 31.5t50.5 89.5l250 -41q-20 -141 -129 -226t-264 -85z" />
    <glyph glyph-name="ordfeminine" unicode="&#xaa;" horiz-adv-x="1028" 
d="M680 1339l8 99h248v-848h-248l-8 98h-8q-29 -54 -94 -86.5t-148 -32.5q-159 0 -266 122.5t-107 322.5q0 198 107 321t266 123q77 0 144.5 -32t97.5 -87h8zM502 811q78 0 124 54t46 149t-46.5 147.5t-123.5 52.5q-78 0 -125 -52.5t-47 -147.5t47 -149t125 -54z" />
    <glyph glyph-name="guillemotleft" unicode="&#xab;" horiz-adv-x="1288" 
d="M383 1032h311l-313 -452l313 -451h-311l-317 451zM899 1032h313l-315 -452l315 -451h-313l-315 451z" />
    <glyph glyph-name="logicalnot" unicode="&#xac;" horiz-adv-x="1331" 
d="M201 518v262h929v-467h-272v205h-657z" />
    <glyph glyph-name="registered" unicode="&#xae;" horiz-adv-x="946" 
d="M473 1458q174 0 297 -123t123 -295t-123 -294.5t-297 -122.5q-175 0 -298.5 122.5t-123.5 294.5q0 173 123.5 295.5t298.5 122.5zM473 727q129 0 216 91.5t87 221.5t-87 222t-216 92t-217 -92t-88 -222t88 -221.5t217 -91.5zM662 1118q0 -111 -101 -135l113 -154h-129
l-99 148h-32v-148h-111v437h199q75 0 117.5 -39t42.5 -109zM496 1163h-82v-92h82q49 0 49 47q0 45 -49 45z" />
    <glyph glyph-name="macron" unicode="&#xaf;" horiz-adv-x="1228" 
d="M907 1167h-585v213h585v-213z" />
    <glyph glyph-name="degree" unicode="&#xb0;" horiz-adv-x="788" 
d="M393 801q-147 0 -242.5 93.5t-95.5 233.5q0 142 95.5 236t242.5 94q148 0 244 -94t96 -236q0 -140 -96 -233.5t-244 -93.5zM393 997q60 0 95.5 36t35.5 95t-36 96.5t-95 37.5q-58 0 -93.5 -37.5t-35.5 -96.5t35.5 -95t93.5 -36z" />
    <glyph glyph-name="plusminus" unicode="&#xb1;" horiz-adv-x="1331" 
d="M805 1257v-303h325v-262h-325v-303h-279v303h-325v262h325v303h279zM1130 0h-929v262h929v-262z" />
    <glyph glyph-name="uni00B2" unicode="&#xb2;" horiz-adv-x="753" 
d="M690 555h-627v107q0 120 48.5 190.5t197.5 161.5q99 63 131.5 96t32.5 68q0 34 -21.5 53.5t-58.5 19.5q-92 0 -114 -129l-222 39q18 144 105.5 220.5t226.5 76.5q142 0 224.5 -75.5t82.5 -202.5q0 -87 -50.5 -156.5t-178.5 -149.5q-110 -66 -137 -114h360v-205z" />
    <glyph glyph-name="uni00B3" unicode="&#xb3;" horiz-adv-x="770" 
d="M391 541q-145 0 -234 77.5t-96 212.5l222 27q6 -55 34.5 -82.5t71.5 -27.5t69.5 24.5t26.5 61.5q0 38 -26 59.5t-76 21.5h-88v181h86q43 0 66.5 21t23.5 57t-23.5 56.5t-62.5 20.5q-41 0 -68.5 -25.5t-33.5 -76.5l-224 29q14 127 104.5 203.5t229.5 76.5
q134 0 217.5 -72.5t83.5 -187.5q0 -133 -116 -188q64 -29 98.5 -83t34.5 -124q0 -116 -89 -189t-231 -73z" />
    <glyph glyph-name="acute" unicode="&#xb4;" horiz-adv-x="1228" 
d="M666 1126h-260l155 312h326z" />
    <glyph glyph-name="uni00B5" unicode="&#xb5;" horiz-adv-x="1181" 
d="M768 461v530h287v-991h-258l-11 102h-8q-64 -127 -205 -127q-88 0 -157 60v-494h-287v1450h287v-547q0 -204 172 -204q85 0 132.5 56.5t47.5 164.5z" />
    <glyph glyph-name="paragraph" unicode="&#xb6;" horiz-adv-x="1417" 
d="M117 1114q0 144 104.5 232t292.5 88h264v-1696h-274v1055h-23q-166 0 -265 88.5t-99 232.5zM944 -262v1696h275v-1696h-275z" />
    <glyph glyph-name="periodcentered" unicode="&#xb7;" horiz-adv-x="563" 
d="M283 457q-85 0 -139 54.5t-54 137.5q0 85 54 139t139 54q83 0 136.5 -54t53.5 -139q0 -83 -53.5 -137.5t-136.5 -54.5z" />
    <glyph glyph-name="cedilla" unicode="&#xb8;" horiz-adv-x="1228" 
d="M627 0v-92q86 -13 132 -60.5t46 -121.5q0 -94 -74.5 -149.5t-208.5 -55.5q-56 0 -108 12v162q27 -4 71 -4q95 0 95 49q0 24 -31.5 35.5t-120.5 11.5l21 213h178z" />
    <glyph glyph-name="uni00B9" unicode="&#xb9;" horiz-adv-x="608" 
d="M492 545h-228v600h-182v166h47q86 0 126 29.5t54 93.5h183v-889z" />
    <glyph glyph-name="ordmasculine" unicode="&#xba;" horiz-adv-x="1007" 
d="M504 569q-197 0 -322 124t-125 321q0 196 125 320t322 124q196 0 321 -123.5t125 -320.5t-125 -321t-321 -124zM504 811q76 0 125 56t49 147q0 90 -49 145t-125 55t-125 -54.5t-49 -145.5q0 -92 49 -147.5t125 -55.5z" />
    <glyph glyph-name="guillemotright" unicode="&#xbb;" horiz-adv-x="1288" 
d="M76 1032h313l316 -452l-316 -451h-313l315 451zM594 1032h311l318 -452l-318 -451h-311l313 451z" />
    <glyph glyph-name="onequarter" unicode="&#xbc;" horiz-adv-x="1839" 
d="M502 545h-228v600h-184v166h49q86 0 125.5 29.5t52.5 93.5h185v-889zM565 0h-270l905 1434h268zM1640 0h-210v150h-414v178l354 561h270v-547h95v-192h-95v-150zM1430 641l-189 -299h189v299z" />
    <glyph glyph-name="onehalf" unicode="&#xbd;" horiz-adv-x="1888" 
d="M502 545h-228v600h-184v166h49q86 0 125.5 29.5t52.5 93.5h185v-889zM561 0h-268l903 1434h270zM1776 0h-625v106q0 120 48 191t196 162q99 63 131.5 96t32.5 68q0 34 -20.5 53.5t-57.5 19.5q-92 0 -117 -129l-221 39q20 144 108 220.5t226 76.5q142 0 224.5 -75.5
t82.5 -202.5q0 -87 -51.5 -156.5t-180.5 -149.5q-110 -66 -137 -114h361v-205z" />
    <glyph glyph-name="threequarters" unicode="&#xbe;" horiz-adv-x="1998" 
d="M420 541q-145 0 -234 77.5t-96 212.5l219 27q6 -55 35.5 -82.5t73.5 -27.5q43 0 68.5 24t25.5 62t-25.5 59.5t-74.5 21.5h-88v181h86q43 0 65.5 21t22.5 57t-23 56.5t-61 20.5q-91 0 -103 -102l-223 29q14 127 104.5 203.5t229.5 76.5q134 0 217.5 -72.5t83.5 -187.5
q0 -132 -117 -188q63 -29 98 -83.5t35 -123.5q0 -116 -88.5 -189t-230.5 -73zM727 0h-270l903 1434h270zM1802 0h-211v150h-413v178l354 561h270v-547h92v-192h-92v-150zM1591 641l-188 -299h188v299z" />
    <glyph glyph-name="questiondown" unicode="&#xbf;" horiz-adv-x="1021" 
d="M555 1016q83 0 136.5 -54t53.5 -137q0 -86 -53 -140t-137 -54q-85 0 -139 54t-54 140q0 83 54 137t139 54zM412 498h286v-80q0 -102 -31 -158.5t-139 -146.5l-94 -78q-74 -63 -74 -121q0 -52 34.5 -82.5t97.5 -30.5q162 0 231 205l250 -100q-40 -169 -168.5 -268
t-312.5 -99q-185 0 -301.5 99t-116.5 260q0 85 40 157.5t138 153.5l86 72q48 42 61 67.5t13 83.5v66z" />
    <glyph glyph-name="Agrave" unicode="&#xc0;" horiz-adv-x="1376" 
d="M692 1888l166 -327h-276l-234 327h344zM1360 0h-318l-92 283h-524l-94 -283h-316l498 1434h348zM684 1065l-174 -524h354l-172 524h-8z" />
    <glyph glyph-name="Aacute" unicode="&#xc1;" horiz-adv-x="1376" 
d="M670 1888h346l-236 -327h-274zM1360 0h-318l-92 283h-524l-94 -283h-316l498 1434h348zM684 1065l-174 -524h354l-172 524h-8z" />
    <glyph glyph-name="Acircumflex" unicode="&#xc2;" horiz-adv-x="1376" 
d="M817 1561l-129 157l-129 -157h-270l254 327h291l253 -327h-270zM1360 0h-318l-92 283h-524l-94 -283h-316l498 1434h348zM684 1065l-174 -524h354l-172 524h-8z" />
    <glyph glyph-name="Atilde" unicode="&#xc3;" horiz-adv-x="1376" 
d="M575 1683q-51 0 -51 -120h-198q0 164 54.5 248.5t154.5 84.5q85 0 178 -81q60 -50 88 -50q53 0 53 123h197q0 -164 -54 -250t-153 -86q-83 0 -180 82q-57 49 -89 49zM1360 0h-318l-92 283h-524l-94 -283h-316l498 1434h348zM684 1065l-174 -524h354l-172 524h-8z" />
    <glyph glyph-name="Adieresis" unicode="&#xc4;" horiz-adv-x="1376" 
d="M449 1567q-74 0 -126.5 50.5t-52.5 127.5t53 128.5t126 51.5t124.5 -51.5t51.5 -128.5t-51.5 -127.5t-124.5 -50.5zM928 1567q-73 0 -124.5 50.5t-51.5 127.5t51.5 128.5t124.5 51.5t125.5 -51.5t52.5 -128.5t-52.5 -127.5t-125.5 -50.5zM1360 0h-318l-92 283h-524
l-94 -283h-316l498 1434h348zM684 1065l-174 -524h354l-172 524h-8z" />
    <glyph glyph-name="Aring" unicode="&#xc5;" horiz-adv-x="1376" 
d="M688 1536q-113 0 -187.5 69.5t-74.5 172.5t74.5 172t187.5 69t187.5 -69t74.5 -172t-74.5 -172.5t-187.5 -69.5zM688 1858q-38 0 -60 -22t-22 -58t22 -58t60 -22t60 22t22 58t-22 58t-60 22zM1360 0h-318l-92 283h-524l-94 -283h-316l498 1434h348zM684 1065l-174 -524
h354l-172 524h-8z" />
    <glyph glyph-name="AE" unicode="&#xc6;" horiz-adv-x="2009" 
d="M1903 1434v-279h-598v-301h532v-270h-532v-305h598v-279h-902v309h-471l-168 -309h-350l795 1434h1096zM993 1155l-321 -588h329v588h-8z" />
    <glyph glyph-name="Ccedilla" unicode="&#xc7;" horiz-adv-x="1538" 
d="M805 258q144 0 242 80t122 225l304 -51q-35 -229 -204.5 -374.5t-412.5 -160.5l-2 -69q86 -13 133 -60.5t47 -121.5q0 -94 -74.5 -149.5t-207.5 -55.5q-56 0 -109 12v162q27 -4 72 -4q94 0 94 49q0 24 -31.5 35.5t-120.5 11.5l19 199q-265 42 -429.5 242t-164.5 489
q0 128 34.5 243t99 205.5t152.5 156.5t199.5 101t235.5 35q264 0 449.5 -147t222.5 -389l-314 -52q-25 145 -120.5 225.5t-237.5 80.5q-178 0 -293 -125t-115 -334t115 -334t295 -125z" />
    <glyph glyph-name="Egrave" unicode="&#xc8;" horiz-adv-x="1165" 
d="M610 1888l166 -327h-276l-234 327h344zM1057 1434v-279h-596v-301h530v-270h-530v-305h596v-279h-899v1434h899z" />
    <glyph glyph-name="Eacute" unicode="&#xc9;" horiz-adv-x="1165" 
d="M590 1888h346l-236 -327h-274zM1057 1434v-279h-596v-301h530v-270h-530v-305h596v-279h-899v1434h899z" />
    <glyph glyph-name="Ecircumflex" unicode="&#xca;" horiz-adv-x="1165" 
d="M737 1561l-129 157l-129 -157h-270l254 327h291l254 -327h-271zM1057 1434v-279h-596v-301h530v-270h-530v-305h596v-279h-899v1434h899z" />
    <glyph glyph-name="Edieresis" unicode="&#xcb;" horiz-adv-x="1165" 
d="M369 1567q-74 0 -126.5 50.5t-52.5 127.5t53 128.5t126 51.5t124.5 -51.5t51.5 -128.5t-51.5 -127.5t-124.5 -50.5zM848 1567q-73 0 -124.5 50.5t-51.5 127.5t51.5 128.5t124.5 51.5t125.5 -51.5t52.5 -128.5t-52.5 -127.5t-125.5 -50.5zM1057 1434v-279h-596v-301h530
v-270h-530v-305h596v-279h-899v1434h899z" />
    <glyph glyph-name="Igrave" unicode="&#xcc;" horiz-adv-x="618" 
d="M477 1561h-276l-234 327h344zM461 0h-303v1434h303v-1434z" />
    <glyph glyph-name="Iacute" unicode="&#xcd;" horiz-adv-x="618" 
d="M401 1561h-274l164 327h346zM461 0h-303v1434h303v-1434z" />
    <glyph glyph-name="Icircumflex" unicode="&#xce;" horiz-adv-x="618" 
d="M438 1561l-129 157l-129 -157h-270l254 327h291l254 -327h-271zM461 0h-303v1434h303v-1434z" />
    <glyph glyph-name="Idieresis" unicode="&#xcf;" horiz-adv-x="618" 
d="M70 1567q-74 0 -126.5 50.5t-52.5 127.5t53 128.5t126 51.5t124.5 -51.5t51.5 -128.5t-51.5 -127.5t-124.5 -50.5zM549 1567q-73 0 -124.5 50.5t-51.5 127.5t51.5 128.5t124.5 51.5t125.5 -51.5t52.5 -128.5t-52.5 -127.5t-125.5 -50.5zM461 0h-303v1434h303v-1434z" />
    <glyph glyph-name="Eth" unicode="&#xd0;" horiz-adv-x="1429" 
d="M180 1434h404q350 0 556 -191.5t206 -525.5q0 -333 -206.5 -525t-555.5 -192h-404v604h-192v225h192v605zM481 283h119q204 0 319 112t115 322t-115 322t-319 112h-119v-322h262v-225h-262v-321z" />
    <glyph glyph-name="Ntilde" unicode="&#xd1;" horiz-adv-x="1523" 
d="M649 1683q-51 0 -51 -120h-199q0 164 54.5 248.5t154.5 84.5q85 0 178 -81q60 -50 88 -50q54 0 54 123h196q0 -164 -53.5 -250t-152.5 -86q-84 0 -181 82q-57 49 -88 49zM1063 524v910h303v-1434h-307l-592 909h-6v-909h-303v1434h307l590 -910h8z" />
    <glyph glyph-name="Ograve" unicode="&#xd2;" horiz-adv-x="1609" 
d="M973 1561h-277l-233 327h344zM805 -25q-208 0 -373 94.5t-257.5 264t-92.5 383.5q0 160 54 298.5t149.5 235.5t230 152t289.5 55t289.5 -55t230 -152t149.5 -235.5t54 -298.5q0 -214 -92.5 -383.5t-257.5 -264t-373 -94.5zM805 256q182 0 295.5 126.5t113.5 334.5
t-113.5 334.5t-295.5 126.5q-183 0 -296.5 -126.5t-113.5 -334.5t113.5 -334.5t296.5 -126.5z" />
    <glyph glyph-name="Oacute" unicode="&#xd3;" horiz-adv-x="1609" 
d="M897 1561h-274l163 327h347zM805 -25q-208 0 -373 94.5t-257.5 264t-92.5 383.5q0 160 54 298.5t149.5 235.5t230 152t289.5 55t289.5 -55t230 -152t149.5 -235.5t54 -298.5q0 -214 -92.5 -383.5t-257.5 -264t-373 -94.5zM805 256q182 0 295.5 126.5t113.5 334.5
t-113.5 334.5t-295.5 126.5q-183 0 -296.5 -126.5t-113.5 -334.5t113.5 -334.5t296.5 -126.5z" />
    <glyph glyph-name="Ocircumflex" unicode="&#xd4;" horiz-adv-x="1609" 
d="M934 1561l-129 157l-129 -157h-270l253 327h291l254 -327h-270zM805 1458q155 0 289.5 -55t230 -152t149.5 -235.5t54 -298.5q0 -214 -92.5 -383.5t-257.5 -264t-373 -94.5t-373 94.5t-257.5 264t-92.5 383.5q0 160 54 298.5t149.5 235.5t230 152t289.5 55zM805 256
q182 0 295.5 126.5t113.5 334.5t-113.5 334.5t-295.5 126.5q-183 0 -296.5 -126.5t-113.5 -334.5t113.5 -334.5t296.5 -126.5z" />
    <glyph glyph-name="Otilde" unicode="&#xd5;" horiz-adv-x="1609" 
d="M961 1552q-84 0 -181 82q-57 49 -88 49q-51 0 -51 -120h-199q0 164 54.5 248.5t154.5 84.5q85 0 178 -81q60 -50 89 -50q53 0 53 123h196q0 -164 -53.5 -250t-152.5 -86zM805 -25q-208 0 -373 94.5t-257.5 264t-92.5 383.5q0 160 54 298.5t149.5 235.5t230 152t289.5 55
t289.5 -55t230 -152t149.5 -235.5t54 -298.5q0 -214 -92.5 -383.5t-257.5 -264t-373 -94.5zM805 256q182 0 295.5 126.5t113.5 334.5t-113.5 334.5t-295.5 126.5q-183 0 -296.5 -126.5t-113.5 -334.5t113.5 -334.5t296.5 -126.5z" />
    <glyph glyph-name="Odieresis" unicode="&#xd6;" horiz-adv-x="1609" 
d="M565 1567q-73 0 -125.5 50.5t-52.5 127.5t52.5 128.5t125.5 51.5t124.5 -51.5t51.5 -128.5t-51.5 -127.5t-124.5 -50.5zM1044 1567q-73 0 -124.5 50.5t-51.5 127.5t51.5 128.5t124.5 51.5t126 -51.5t53 -128.5t-52.5 -127.5t-126.5 -50.5zM805 -25q-208 0 -373 94.5
t-257.5 264t-92.5 383.5q0 160 54 298.5t149.5 235.5t230 152t289.5 55t289.5 -55t230 -152t149.5 -235.5t54 -298.5q0 -214 -92.5 -383.5t-257.5 -264t-373 -94.5zM805 256q182 0 295.5 126.5t113.5 334.5t-113.5 334.5t-295.5 126.5q-183 0 -296.5 -126.5t-113.5 -334.5
t113.5 -334.5t296.5 -126.5z" />
    <glyph glyph-name="multiply" unicode="&#xd7;" horiz-adv-x="1331" 
d="M946 1108l178 -178l-280 -281l280 -280l-178 -179l-280 281l-281 -281l-178 179l280 280l-280 281l178 178l281 -281z" />
    <glyph glyph-name="Oslash" unicode="&#xd8;" horiz-adv-x="1630" 
d="M1399 1468l168 -168l-152 -151q123 -188 123 -432q0 -214 -92.5 -383.5t-257.5 -264t-373 -94.5q-249 0 -436 138l-148 -148l-165 168l149 152q-123 188 -123 432q0 160 54 298.5t149.5 235.5t230 152t289.5 55q251 0 436 -137zM815 1178q-182 0 -295.5 -126.5
t-113.5 -334.5q0 -120 38 -213l605 604q-103 70 -234 70zM815 256q183 0 296.5 126.5t113.5 334.5q0 118 -39 213l-604 -604q103 -70 233 -70z" />
    <glyph glyph-name="Ugrave" unicode="&#xd9;" horiz-adv-x="1413" 
d="M874 1561h-276l-233 327h344zM707 -25q-264 0 -416 156t-152 430v873h301v-856q0 -156 71.5 -237t195.5 -81q123 0 193.5 81t70.5 237v856h303v-873q0 -274 -152.5 -430t-414.5 -156z" />
    <glyph glyph-name="Uacute" unicode="&#xda;" horiz-adv-x="1413" 
d="M799 1561h-275l164 327h346zM707 -25q-264 0 -416 156t-152 430v873h301v-856q0 -156 71.5 -237t195.5 -81q123 0 193.5 81t70.5 237v856h303v-873q0 -274 -152.5 -430t-414.5 -156z" />
    <glyph glyph-name="Ucircumflex" unicode="&#xdb;" horiz-adv-x="1413" 
d="M836 1561l-129 157l-129 -157h-271l254 327h291l254 -327h-270zM971 578v856h303v-873q0 -274 -152.5 -430t-414.5 -156q-264 0 -416 156t-152 430v873h301v-856q0 -156 71.5 -237t195.5 -81q123 0 193.5 81t70.5 237z" />
    <glyph glyph-name="Udieresis" unicode="&#xdc;" horiz-adv-x="1413" 
d="M467 1567q-73 0 -125.5 50.5t-52.5 127.5t52.5 128.5t125.5 51.5t124.5 -51.5t51.5 -128.5t-51.5 -127.5t-124.5 -50.5zM946 1567q-73 0 -124.5 50.5t-51.5 127.5t51.5 128.5t124.5 51.5t125.5 -51.5t52.5 -128.5t-52.5 -127.5t-125.5 -50.5zM707 -25q-264 0 -416 156
t-152 430v873h301v-856q0 -156 71.5 -237t195.5 -81q123 0 193.5 81t70.5 237v856h303v-873q0 -274 -152.5 -430t-414.5 -156z" />
    <glyph glyph-name="Yacute" unicode="&#xdd;" horiz-adv-x="1290" 
d="M737 1561h-274l164 327h346zM797 0h-303v580l-488 854h338l299 -549h6l299 549h336l-487 -854v-580z" />
    <glyph glyph-name="Thorn" unicode="&#xde;" horiz-adv-x="1306" 
d="M461 1225h176q280 0 435 -136t155 -376q0 -242 -155 -378t-435 -136h-176v-199h-303v1434h303v-209zM461 481h160q292 0 292 232q0 231 -292 231h-160v-463z" />
    <glyph glyph-name="germandbls" unicode="&#xdf;" horiz-adv-x="1218" 
d="M707 -25q-80 0 -164 17v256q61 -15 110 -15q105 0 160 47.5t55 129.5q0 85 -55.5 129.5t-161.5 44.5h-106v262h45q100 0 151.5 47t51.5 133q0 83 -48 128.5t-135 45.5q-194 0 -194 -229v-971h-287v983q0 222 128 348.5t351 126.5q213 0 341 -112t128 -291
q0 -120 -58.5 -206t-156.5 -112v-8q136 -17 216.5 -110.5t80.5 -239.5q0 -182 -121.5 -293t-330.5 -111z" />
    <glyph glyph-name="agrave" unicode="&#xe0;" horiz-adv-x="1124" 
d="M549 1438l156 -312h-261l-221 312h326zM573 1016q209 0 315.5 -102.5t106.5 -303.5v-610h-260l-10 123h-8q-43 -69 -123.5 -108.5t-179.5 -39.5q-150 0 -243 80.5t-93 210.5q0 123 89.5 201.5t272.5 105.5l187 27q54 9 71 21.5t17 40.5q0 55 -39 86.5t-111 31.5
q-73 0 -122 -36t-66 -107l-271 55q30 151 151 237.5t316 86.5zM719 408v36q-23 -16 -117 -32l-98 -15q-135 -20 -135 -104q0 -46 34.5 -73t96.5 -27q93 0 156 60.5t63 154.5z" />
    <glyph glyph-name="aacute" unicode="&#xe1;" horiz-adv-x="1124" 
d="M537 1438h325l-221 -312h-260zM573 1016q209 0 315.5 -102.5t106.5 -303.5v-610h-260l-10 123h-8q-43 -69 -123.5 -108.5t-179.5 -39.5q-150 0 -243 80.5t-93 210.5q0 123 89.5 201.5t272.5 105.5l187 27q54 9 71 21.5t17 40.5q0 55 -39 86.5t-111 31.5q-73 0 -122 -36
t-66 -107l-271 55q30 151 151 237.5t316 86.5zM719 408v36q-23 -16 -117 -32l-98 -15q-135 -20 -135 -104q0 -46 34.5 -73t96.5 -27q93 0 156 60.5t63 154.5z" />
    <glyph glyph-name="acircumflex" unicode="&#xe2;" horiz-adv-x="1124" 
d="M670 1126l-121 150l-121 -150h-258l240 312h278l240 -312h-258zM573 1016q209 0 315.5 -102.5t106.5 -303.5v-610h-260l-10 123h-8q-43 -69 -123.5 -108.5t-179.5 -39.5q-150 0 -243 80.5t-93 210.5q0 123 89.5 201.5t272.5 105.5l187 27q54 9 71 21.5t17 40.5
q0 55 -39 86.5t-111 31.5q-73 0 -122 -36t-66 -107l-271 55q30 151 151 237.5t316 86.5zM719 408v36q-23 -16 -117 -32l-98 -15q-135 -20 -135 -104q0 -46 34.5 -73t96.5 -27q93 0 156 60.5t63 154.5z" />
    <glyph glyph-name="atilde" unicode="&#xe3;" horiz-adv-x="1124" 
d="M444 1243q-51 0 -51 -115h-186q0 155 50.5 235.5t145.5 80.5q79 0 170 -76q52 -47 82 -47q50 0 50 115h186q0 -154 -51 -235t-144 -81q-79 0 -170 76q-55 47 -82 47zM573 1016q209 0 315.5 -102.5t106.5 -303.5v-610h-260l-10 123h-8q-43 -69 -123.5 -108.5t-179.5 -39.5
q-150 0 -243 80.5t-93 210.5q0 123 89.5 201.5t272.5 105.5l187 27q54 9 71 21.5t17 40.5q0 55 -39 86.5t-111 31.5q-73 0 -122 -36t-66 -107l-271 55q30 151 151 237.5t316 86.5zM719 408v36q-23 -16 -117 -32l-98 -15q-135 -20 -135 -104q0 -46 34.5 -73t96.5 -27
q93 0 156 60.5t63 154.5z" />
    <glyph glyph-name="adieresis" unicode="&#xe4;" horiz-adv-x="1124" 
d="M324 1135q-68 0 -116 47.5t-48 120.5q0 74 47.5 120.5t116.5 46.5q72 0 120 -46.5t48 -120.5q0 -73 -48.5 -120.5t-119.5 -47.5zM772 1135q-70 0 -118 47.5t-48 120.5q0 74 48 120.5t118 46.5t118 -46.5t48 -120.5q0 -73 -48 -120.5t-118 -47.5zM573 1016
q209 0 315.5 -102.5t106.5 -303.5v-610h-260l-10 123h-8q-43 -69 -123.5 -108.5t-179.5 -39.5q-150 0 -243 80.5t-93 210.5q0 123 89.5 201.5t272.5 105.5l187 27q54 9 71 21.5t17 40.5q0 55 -39 86.5t-111 31.5q-73 0 -122 -36t-66 -107l-271 55q30 151 151 237.5t316 86.5
zM719 408v36q-23 -16 -117 -32l-98 -15q-135 -20 -135 -104q0 -46 34.5 -73t96.5 -27q93 0 156 60.5t63 154.5z" />
    <glyph glyph-name="aring" unicode="&#xe5;" horiz-adv-x="1124" 
d="M549 1106q-107 0 -177.5 66t-70.5 163t70.5 163.5t177.5 66.5t177.5 -66.5t70.5 -163.5t-70.5 -163t-177.5 -66zM549 1411q-35 0 -56.5 -21t-21.5 -55t21.5 -54.5t56.5 -20.5t56.5 20.5t21.5 54.5t-21.5 55t-56.5 21zM573 1016q209 0 315.5 -102.5t106.5 -303.5v-610
h-260l-10 123h-8q-43 -69 -123.5 -108.5t-179.5 -39.5q-150 0 -243 80.5t-93 210.5q0 123 89.5 201.5t272.5 105.5l187 27q54 9 71 21.5t17 40.5q0 55 -39 86.5t-111 31.5q-73 0 -122 -36t-66 -107l-271 55q30 151 151 237.5t316 86.5zM719 408v36q-23 -16 -117 -32l-98 -15
q-135 -20 -135 -104q0 -46 34.5 -73t96.5 -27q93 0 156 60.5t63 154.5z" />
    <glyph glyph-name="ae" unicode="&#xe6;" horiz-adv-x="1787" 
d="M1714 524q0 -49 -8 -98h-700q17 -104 77.5 -157.5t151.5 -53.5q66 0 117.5 30.5t77.5 84.5l262 -60q-47 -136 -170.5 -215.5t-286.5 -79.5q-121 0 -221 45t-162 125h-8q-50 -79 -149 -124.5t-232 -45.5q-182 0 -283.5 82t-101.5 217q0 144 117 230t335 86h211v26
q0 164 -168 164q-158 0 -192 -143l-268 49q30 157 151.5 243.5t319.5 86.5q219 0 319 -121h8q124 121 326 121q207 0 342 -134.5t135 -357.5zM1233 780q-77 0 -135 -43t-82 -125h414q-16 85 -69 126.5t-128 41.5zM506 203q105 0 168.5 55t66.5 145h-182q-190 0 -190 -110
q0 -90 137 -90z" />
    <glyph glyph-name="ccedilla" unicode="&#xe7;" horiz-adv-x="1126" 
d="M586 233q75 0 131 44.5t69 123.5l281 -45q-25 -160 -141.5 -262t-286.5 -117v-69q86 -13 132 -60.5t46 -121.5q0 -94 -74 -149.5t-208 -55.5q-57 0 -109 12v162q27 -4 72 -4q52 0 73 12t21 37q0 24 -31.5 35.5t-120.5 11.5l19 201q-174 39 -278.5 175.5t-104.5 332.5
q0 231 143 375.5t369 144.5q191 0 322 -103.5t157 -281.5l-289 -45q-12 78 -65.5 125t-128.5 47q-93 0 -155 -71.5t-62 -190.5t62.5 -191t156.5 -72z" />
    <glyph glyph-name="egrave" unicode="&#xe8;" horiz-adv-x="1153" 
d="M590 1438l155 -312h-260l-221 312h326zM1077 524q0 -42 -6 -98h-715q17 -104 80 -157.5t160 -53.5q71 0 123 30t78 85l262 -60q-47 -137 -172 -216t-295 -79q-231 0 -373.5 142.5t-142.5 371.5q0 233 145 380t371 147q215 0 350 -134t135 -358zM592 780
q-85 0 -143.5 -43.5t-81.5 -128.5h426q-14 87 -67.5 129.5t-133.5 42.5z" />
    <glyph glyph-name="eacute" unicode="&#xe9;" horiz-adv-x="1153" 
d="M578 1438h325l-221 -312h-260zM1077 524q0 -42 -6 -98h-715q17 -104 80 -157.5t160 -53.5q71 0 123 30t78 85l262 -60q-47 -137 -172 -216t-295 -79q-231 0 -373.5 142.5t-142.5 371.5q0 233 145 380t371 147q215 0 350 -134t135 -358zM592 780q-85 0 -143.5 -43.5
t-81.5 -128.5h426q-14 87 -67.5 129.5t-133.5 42.5z" />
    <glyph glyph-name="ecircumflex" unicode="&#xea;" horiz-adv-x="1153" 
d="M711 1126l-121 150l-121 -150h-258l240 312h278l240 -312h-258zM1077 524q0 -42 -6 -98h-715q17 -104 80 -157.5t160 -53.5q71 0 123 30t78 85l262 -60q-47 -137 -172 -216t-295 -79q-231 0 -373.5 142.5t-142.5 371.5q0 233 145 380t371 147q215 0 350 -134t135 -358z
M592 780q-85 0 -143.5 -43.5t-81.5 -128.5h426q-14 87 -67.5 129.5t-133.5 42.5z" />
    <glyph glyph-name="edieresis" unicode="&#xeb;" horiz-adv-x="1153" 
d="M365 1135q-69 0 -116.5 47.5t-47.5 120.5q0 74 47.5 120.5t116.5 46.5q72 0 119.5 -46.5t47.5 -120.5q0 -73 -48 -120.5t-119 -47.5zM813 1135q-70 0 -118 47.5t-48 120.5q0 74 48 120.5t118 46.5t118 -46.5t48 -120.5q0 -73 -48 -120.5t-118 -47.5zM1077 524
q0 -42 -6 -98h-715q17 -104 80 -157.5t160 -53.5q71 0 123 30t78 85l262 -60q-47 -137 -172 -216t-295 -79q-231 0 -373.5 142.5t-142.5 371.5q0 233 145 380t371 147q215 0 350 -134t135 -358zM592 780q-85 0 -143.5 -43.5t-81.5 -128.5h426q-14 87 -67.5 129.5
t-133.5 42.5z" />
    <glyph glyph-name="igrave" unicode="&#xec;" horiz-adv-x="544" 
d="M426 1126h-260l-180 312h325zM416 0h-287v991h287v-991z" />
    <glyph glyph-name="iacute" unicode="&#xed;" horiz-adv-x="544" 
d="M365 1126h-261l113 312h326zM416 0h-287v991h287v-991z" />
    <glyph glyph-name="icircumflex" unicode="&#xee;" horiz-adv-x="544" 
d="M371 1126l-99 138l-98 -138h-242l220 312h239l219 -312h-239zM416 0h-287v991h287v-991z" />
    <glyph glyph-name="idieresis" unicode="&#xef;" horiz-adv-x="544" 
d="M76 1135q-69 0 -113.5 46.5t-44.5 121.5t44.5 121t113.5 46t113 -46t44 -121q0 -76 -44.5 -122t-112.5 -46zM467 1135q-68 0 -112 46t-44 122t44 121.5t112 45.5q69 0 113.5 -46t44.5 -121t-44.5 -121.5t-113.5 -46.5zM416 0h-287v991h287v-991z" />
    <glyph glyph-name="eth" unicode="&#xf0;" horiz-adv-x="1187" 
d="M983 1395l-156 -113q139 -131 213 -311.5t74 -392.5q0 -264 -117 -420q-63 -84 -166.5 -133.5t-238.5 -49.5q-154 0 -272.5 67t-181 180t-62.5 253q0 211 137.5 350.5t353.5 139.5q138 0 226 -68q-49 149 -164 242l-193 -138l-86 117l146 105q-60 31 -183 71l80 219
q184 -49 314 -137l188 137zM594 231q105 0 168 69t63 175q0 107 -62.5 174.5t-168.5 67.5q-105 0 -167 -68.5t-62 -173.5q0 -107 62 -175.5t167 -68.5z" />
    <glyph glyph-name="ntilde" unicode="&#xf1;" horiz-adv-x="1171" 
d="M485 1243q-51 0 -51 -115h-186q0 155 50.5 235.5t145.5 80.5q79 0 170 -76q52 -47 82 -47q49 0 49 115h187q0 -154 -51 -235t-144 -81q-79 0 -170 76q-55 47 -82 47zM715 1016q156 0 246 -101t90 -284v-631h-287v537q0 114 -40.5 164.5t-121.5 50.5q-87 0 -136.5 -56
t-49.5 -166v-530h-287v991h262l10 -121h9q44 67 126 106.5t179 39.5z" />
    <glyph glyph-name="ograve" unicode="&#xf2;" horiz-adv-x="1187" 
d="M748 1126h-261l-221 312h326zM594 -25q-228 0 -373 145.5t-145 375.5t145 375t373 145t373 -145t145 -375t-145 -375.5t-373 -145.5zM594 231q101 0 164 72t63 193t-63 191.5t-164 70.5t-164 -70.5t-63 -191.5t63 -193t164 -72z" />
    <glyph glyph-name="oacute" unicode="&#xf3;" horiz-adv-x="1187" 
d="M686 1126h-260l156 312h325zM594 -25q-228 0 -373 145.5t-145 375.5t145 375t373 145t373 -145t145 -375t-145 -375.5t-373 -145.5zM594 231q101 0 164 72t63 193t-63 191.5t-164 70.5t-164 -70.5t-63 -191.5t63 -193t164 -72z" />
    <glyph glyph-name="ocircumflex" unicode="&#xf4;" horiz-adv-x="1187" 
d="M715 1126l-121 150l-121 -150h-258l240 312h278l240 -312h-258zM594 1016q228 0 373 -145t145 -375t-145 -375.5t-373 -145.5t-373 145.5t-145 375.5t145 375t373 145zM594 231q101 0 164 72t63 193t-63 191.5t-164 70.5t-164 -70.5t-63 -191.5t63 -193t164 -72z" />
    <glyph glyph-name="otilde" unicode="&#xf5;" horiz-adv-x="1187" 
d="M741 1120q-79 0 -170 76q-55 47 -82 47q-51 0 -51 -115h-186q0 155 51 235.5t146 80.5q78 0 169 -76q52 -47 82 -47q50 0 50 115h186q0 -154 -51 -235t-144 -81zM594 -25q-228 0 -373 145.5t-145 375.5t145 375t373 145t373 -145t145 -375t-145 -375.5t-373 -145.5z
M594 231q101 0 164 72t63 193t-63 191.5t-164 70.5t-164 -70.5t-63 -191.5t63 -193t164 -72z" />
    <glyph glyph-name="odieresis" unicode="&#xf6;" horiz-adv-x="1187" 
d="M369 1135q-69 0 -116.5 47.5t-47.5 120.5q0 74 47.5 120.5t116.5 46.5q72 0 120 -46.5t48 -120.5q0 -73 -48.5 -120.5t-119.5 -47.5zM817 1135q-70 0 -118 47.5t-48 120.5q0 74 48 120.5t118 46.5t118 -46.5t48 -120.5q0 -73 -48 -120.5t-118 -47.5zM594 -25
q-228 0 -373 145.5t-145 375.5t145 375t373 145t373 -145t145 -375t-145 -375.5t-373 -145.5zM594 231q101 0 164 72t63 193t-63 191.5t-164 70.5t-164 -70.5t-63 -191.5t63 -193t164 -72z" />
    <glyph glyph-name="divide" unicode="&#xf7;" horiz-adv-x="1331" 
d="M666 883q-80 0 -129.5 45.5t-49.5 118.5t49.5 118t129.5 45t129 -45t49 -118t-49 -118.5t-129 -45.5zM1130 518h-929v262h929v-262zM666 88q-80 0 -129.5 45.5t-49.5 118.5t49.5 118.5t129.5 45.5t129 -45.5t49 -118.5t-49 -118.5t-129 -45.5z" />
    <glyph glyph-name="oslash" unicode="&#xf8;" horiz-adv-x="1200" 
d="M1038 1065l133 -133l-137 -135q86 -128 86 -301q0 -230 -146 -375.5t-374 -145.5q-173 0 -301 86l-135 -135l-133 133l135 136q-84 133 -84 301q0 230 145 375t373 145q173 0 301 -86zM600 782q-108 0 -177 -79t-69 -207q0 -63 19 -115l362 362q-61 39 -135 39zM600 209
q109 0 178.5 79.5t69.5 207.5q0 63 -19 118l-362 -364q56 -41 133 -41z" />
    <glyph glyph-name="ugrave" unicode="&#xf9;" horiz-adv-x="1161" 
d="M582 1438l155 -312h-260l-221 312h326zM745 461v530h287v-991h-260l-12 121h-6q-46 -67 -127.5 -106.5t-175.5 -39.5q-151 0 -240.5 104t-89.5 296v616h287v-536q0 -114 39 -164.5t116 -50.5q86 0 134 55.5t48 165.5z" />
    <glyph glyph-name="uacute" unicode="&#xfa;" horiz-adv-x="1161" 
d="M569 1438h326l-221 -312h-260zM745 461v530h287v-991h-260l-12 121h-6q-46 -67 -127.5 -106.5t-175.5 -39.5q-151 0 -240.5 104t-89.5 296v616h287v-536q0 -114 39 -164.5t116 -50.5q86 0 134 55.5t48 165.5z" />
    <glyph glyph-name="ucircumflex" unicode="&#xfb;" horiz-adv-x="1161" 
d="M702 1126l-120 150l-121 -150h-258l239 312h279l240 -312h-259zM745 461v530h287v-991h-260l-12 121h-6q-46 -67 -127.5 -106.5t-175.5 -39.5q-151 0 -240.5 104t-89.5 296v616h287v-536q0 -114 39 -164.5t116 -50.5q86 0 134 55.5t48 165.5z" />
    <glyph glyph-name="udieresis" unicode="&#xfc;" horiz-adv-x="1161" 
d="M356 1135q-68 0 -115.5 47.5t-47.5 120.5q0 74 47 120.5t116 46.5q72 0 120 -46.5t48 -120.5q0 -73 -48.5 -120.5t-119.5 -47.5zM805 1135q-70 0 -118 47.5t-48 120.5q0 74 48 120.5t118 46.5t118 -46.5t48 -120.5q0 -73 -48 -120.5t-118 -47.5zM745 461v530h287v-991
h-260l-12 121h-6q-46 -67 -127.5 -106.5t-175.5 -39.5q-151 0 -240.5 104t-89.5 296v616h287v-536q0 -114 39 -164.5t116 -50.5q86 0 134 55.5t48 165.5z" />
    <glyph glyph-name="yacute" unicode="&#xfd;" horiz-adv-x="1167" 
d="M573 1438h326l-221 -312h-260zM754 498v493h286v-995q0 -227 -130.5 -353t-356.5 -126q-186 0 -311.5 86t-155.5 245l266 72q47 -151 207 -151q95 0 150 57.5t55 169.5v166h-8q-41 -67 -122.5 -106.5t-176.5 -39.5q-155 0 -244.5 103t-89.5 295v577h287v-499
q0 -112 39.5 -161.5t117.5 -49.5q88 0 137.5 55t49.5 162z" />
    <glyph glyph-name="thorn" unicode="&#xfe;" horiz-adv-x="1222" 
d="M705 1016q188 0 315 -144t127 -376t-127 -376.5t-315 -144.5q-95 0 -170.5 38.5t-112.5 99.5h-6v-572h-287v1893h287v-555h6q41 63 115.5 100t167.5 37zM631 233q99 0 162 70.5t63 192.5t-63 192t-162 70q-98 0 -160.5 -70t-62.5 -192t62.5 -192.5t160.5 -70.5z" />
    <glyph glyph-name="ydieresis" unicode="&#xff;" horiz-adv-x="1167" 
d="M360 1135q-68 0 -115.5 47.5t-47.5 120.5q0 74 47 120.5t116 46.5q72 0 120 -46.5t48 -120.5q0 -73 -48.5 -120.5t-119.5 -47.5zM809 1135q-70 0 -118 47.5t-48 120.5q0 74 48 120.5t118 46.5t118 -46.5t48 -120.5q0 -73 -48 -120.5t-118 -47.5zM754 498v493h286v-995
q0 -227 -130.5 -353t-356.5 -126q-186 0 -311.5 86t-155.5 245l266 72q47 -151 207 -151q95 0 150 57.5t55 169.5v166h-8q-41 -67 -122.5 -106.5t-176.5 -39.5q-155 0 -244.5 103t-89.5 295v577h287v-499q0 -112 39.5 -161.5t117.5 -49.5q88 0 137.5 55t49.5 162z" />
    <glyph glyph-name="Amacron" unicode="&#x100;" horiz-adv-x="1376" 
d="M377 1829h622v-225h-622v225zM1360 0h-318l-92 283h-524l-94 -283h-316l498 1434h348zM684 1065l-174 -524h354l-172 524h-8z" />
    <glyph glyph-name="amacron" unicode="&#x101;" horiz-adv-x="1124" 
d="M256 1380h586v-213h-586v213zM573 1016q209 0 315.5 -102.5t106.5 -303.5v-610h-260l-10 123h-8q-43 -69 -123.5 -108.5t-179.5 -39.5q-150 0 -243 80.5t-93 210.5q0 123 89.5 201.5t272.5 105.5l187 27q54 9 71 21.5t17 40.5q0 55 -39 86.5t-111 31.5q-73 0 -122 -36
t-66 -107l-271 55q30 151 151 237.5t316 86.5zM719 408v36q-23 -16 -117 -32l-98 -15q-135 -20 -135 -104q0 -46 34.5 -73t96.5 -27q93 0 156 60.5t63 154.5z" />
    <glyph glyph-name="Abreve" unicode="&#x102;" horiz-adv-x="1376" 
d="M688 1556q-155 0 -243.5 83.5t-88.5 224.5v22h226q0 -147 106 -147q107 0 107 147h225v-22q0 -141 -88.5 -224.5t-243.5 -83.5zM1360 0h-318l-92 283h-524l-94 -283h-316l498 1434h348zM684 1065l-174 -524h354l-172 524h-8z" />
    <glyph glyph-name="abreve" unicode="&#x103;" horiz-adv-x="1124" 
d="M549 1124q-147 0 -230 78t-83 211v21h213q0 -138 100 -138t100 138h213v-21q0 -133 -83 -211t-230 -78zM573 1016q209 0 315.5 -102.5t106.5 -303.5v-610h-260l-10 123h-8q-43 -69 -123.5 -108.5t-179.5 -39.5q-150 0 -243 80.5t-93 210.5q0 123 89.5 201.5t272.5 105.5
l187 27q54 9 71 21.5t17 40.5q0 55 -39 86.5t-111 31.5q-73 0 -122 -36t-66 -107l-271 55q30 151 151 237.5t316 86.5zM719 408v36q-23 -16 -117 -32l-98 -15q-135 -20 -135 -104q0 -46 34.5 -73t96.5 -27q93 0 156 60.5t63 154.5z" />
    <glyph glyph-name="Aogonek" unicode="&#x104;" horiz-adv-x="1376" 
d="M1208 -182q0 -68 86 -68q35 0 66 10v-223q-56 -16 -123 -16q-126 0 -200 61.5t-74 165.5q0 76 40 141.5t117 110.5h-78l-92 283h-524l-94 -283h-316l498 1434h348l498 -1434q-84 -57 -118 -100t-34 -82zM684 1065l-174 -524h354l-172 524h-8z" />
    <glyph glyph-name="aogonek" unicode="&#x105;" horiz-adv-x="1124" 
d="M995 610v-610q-79 -54 -110 -94t-31 -78q0 -64 80 -64q29 0 61 11v-211q-50 -15 -114 -15q-120 0 -190 57.5t-70 155.5q0 150 147 238h-33l-10 123h-8q-43 -69 -123.5 -108.5t-179.5 -39.5q-150 0 -243 80.5t-93 210.5q0 123 89.5 201.5t272.5 105.5l187 27q54 9 71 21.5
t17 40.5q0 55 -39 86.5t-111 31.5q-73 0 -122 -36t-66 -107l-271 55q30 151 151 237.5t316 86.5q209 0 315.5 -102.5t106.5 -303.5zM719 408v36q-23 -16 -117 -32l-98 -15q-135 -20 -135 -104q0 -46 34.5 -73t96.5 -27q93 0 156 60.5t63 154.5z" />
    <glyph glyph-name="Cacute" unicode="&#x106;" horiz-adv-x="1538" 
d="M895 1561h-274l163 327h346zM803 -25q-207 0 -371.5 94.5t-257 264t-92.5 383.5q0 128 34.5 243t99 205.5t152.5 156.5t199.5 101t235.5 35q264 0 449.5 -147t222.5 -389l-314 -52q-25 145 -120.5 225.5t-237.5 80.5q-178 0 -293 -125t-115 -334t115 -334t295 -125
q144 0 242 80t122 225l304 -51q-37 -242 -223 -389.5t-447 -147.5z" />
    <glyph glyph-name="cacute" unicode="&#x107;" horiz-adv-x="1126" 
d="M678 1126h-260l155 312h326zM584 -25q-224 0 -366 145t-142 376t143 375.5t369 144.5q191 0 322 -103.5t157 -281.5l-289 -45q-12 78 -65.5 125t-128.5 47q-93 0 -155 -71.5t-62 -190.5t62.5 -191t156.5 -72q75 0 131 44.5t69 123.5l281 -45q-26 -172 -159.5 -276.5
t-323.5 -104.5z" />
    <glyph glyph-name="Ccircumflex" unicode="&#x108;" horiz-adv-x="1538" 
d="M932 1561l-129 157l-129 -157h-271l254 327h291l254 -327h-270zM805 258q144 0 242 80t122 225l304 -51q-37 -242 -223 -389.5t-447 -147.5q-207 0 -371.5 94.5t-257 264t-92.5 383.5q0 128 34.5 243t99 205.5t152.5 156.5t199.5 101t235.5 35q264 0 449.5 -147
t222.5 -389l-314 -52q-25 145 -120.5 225.5t-237.5 80.5q-178 0 -293 -125t-115 -334t115 -334t295 -125z" />
    <glyph glyph-name="ccircumflex" unicode="&#x109;" horiz-adv-x="1126" 
d="M707 1126l-121 150l-121 -150h-258l239 312h279l240 -312h-258zM586 233q75 0 131 44.5t69 123.5l281 -45q-26 -172 -159.5 -276.5t-323.5 -104.5q-224 0 -366 145t-142 376t143 375.5t369 144.5q191 0 322 -103.5t157 -281.5l-289 -45q-12 78 -65.5 125t-128.5 47
q-93 0 -155 -71.5t-62 -190.5t62.5 -191t156.5 -72z" />
    <glyph glyph-name="Cdotaccent" unicode="&#x10a;" horiz-adv-x="1538" 
d="M803 1559q-79 0 -135 53t-56 133t56 133t135 53t134.5 -52.5t55.5 -133.5t-55.5 -133.5t-134.5 -52.5zM803 -25q-207 0 -371.5 94.5t-257 264t-92.5 383.5q0 128 34.5 243t99 205.5t152.5 156.5t199.5 101t235.5 35q264 0 449.5 -147t222.5 -389l-314 -52
q-25 145 -120.5 225.5t-237.5 80.5q-178 0 -293 -125t-115 -334t115 -334t295 -125q144 0 242 80t122 225l304 -51q-37 -242 -223 -389.5t-447 -147.5z" />
    <glyph glyph-name="cdotaccent" unicode="&#x10b;" horiz-adv-x="1126" 
d="M586 1126q-76 0 -128 50.5t-52 126.5t52 126t128 50t128 -50t52 -126t-52 -126.5t-128 -50.5zM584 -25q-224 0 -366 145t-142 376t143 375.5t369 144.5q191 0 322 -103.5t157 -281.5l-289 -45q-12 78 -65.5 125t-128.5 47q-93 0 -155 -71.5t-62 -190.5t62.5 -191
t156.5 -72q75 0 131 44.5t69 123.5l281 -45q-26 -172 -159.5 -276.5t-323.5 -104.5z" />
    <glyph glyph-name="Ccaron" unicode="&#x10c;" horiz-adv-x="1538" 
d="M1202 1888l-254 -327h-291l-254 327h271l129 -157l129 157h270zM805 258q144 0 242 80t122 225l304 -51q-37 -242 -223 -389.5t-447 -147.5q-207 0 -371.5 94.5t-257 264t-92.5 383.5q0 128 34.5 243t99 205.5t152.5 156.5t199.5 101t235.5 35q264 0 449.5 -147
t222.5 -389l-314 -52q-25 145 -120.5 225.5t-237.5 80.5q-178 0 -293 -125t-115 -334t115 -334t295 -125z" />
    <glyph glyph-name="ccaron" unicode="&#x10d;" horiz-adv-x="1126" 
d="M965 1438l-240 -312h-279l-239 312h258l121 -150l121 150h258zM586 233q75 0 131 44.5t69 123.5l281 -45q-26 -172 -159.5 -276.5t-323.5 -104.5q-224 0 -366 145t-142 376t143 375.5t369 144.5q191 0 322 -103.5t157 -281.5l-289 -45q-12 78 -65.5 125t-128.5 47
q-93 0 -155 -71.5t-62 -190.5t62.5 -191t156.5 -72z" />
    <glyph glyph-name="Dcaron" unicode="&#x10e;" horiz-adv-x="1409" 
d="M1030 1888l-254 -327h-291l-254 327h271l129 -157l129 157h270zM158 1434h403q351 0 556.5 -191t205.5 -526q0 -333 -206.5 -525t-555.5 -192h-403v1434zM461 283h117q205 0 319.5 112t114.5 322t-114.5 322t-319.5 112h-117v-868z" />
    <glyph glyph-name="dcaron" unicode="&#x10f;" horiz-adv-x="1447" 
d="M1362 1458q78 0 127.5 -61.5t46.5 -157.5q-1 -98 -59 -192.5t-166 -176.5l-78 86q114 102 141 187h-16q-69 0 -114.5 42.5t-45.5 108.5q0 70 47.5 117t116.5 47zM803 879h8v555h287v-1434h-262l-13 121h-6q-38 -66 -118.5 -106t-178.5 -40q-188 0 -315 144.5t-127 376.5
t127 376t315 144q96 0 171 -38t112 -99zM594 233q100 0 162.5 70.5t62.5 192.5t-62.5 192t-162.5 70t-162.5 -70t-62.5 -192t62.5 -192.5t162.5 -70.5z" />
    <glyph glyph-name="Dcroat" unicode="&#x110;" horiz-adv-x="1429" 
d="M180 1434h404q350 0 556 -191.5t206 -525.5q0 -333 -206.5 -525t-555.5 -192h-404v604h-192v225h192v605zM481 283h119q204 0 319 112t115 322t-115 322t-319 112h-119v-322h262v-225h-262v-321z" />
    <glyph glyph-name="dcroat" unicode="&#x111;" horiz-adv-x="1224" 
d="M1098 1298h170v-190h-170v-1108h-262l-13 121h-6q-38 -66 -118.5 -106t-178.5 -40q-188 0 -315 144.5t-127 376.5t127 376t315 144q96 0 171 -38t112 -99h8v229h-256v190h256v136h287v-136zM594 233q100 0 162.5 70.5t62.5 192.5t-62.5 192t-162.5 70t-162.5 -70
t-62.5 -192t62.5 -192.5t162.5 -70.5z" />
    <glyph glyph-name="Emacron" unicode="&#x112;" horiz-adv-x="1165" 
d="M297 1829h623v-225h-623v225zM1057 1434v-279h-596v-301h530v-270h-530v-305h596v-279h-899v1434h899z" />
    <glyph glyph-name="emacron" unicode="&#x113;" horiz-adv-x="1153" 
d="M297 1380h586v-213h-586v213zM1077 524q0 -42 -6 -98h-715q17 -104 80 -157.5t160 -53.5q71 0 123 30t78 85l262 -60q-47 -137 -172 -216t-295 -79q-231 0 -373.5 142.5t-142.5 371.5q0 233 145 380t371 147q215 0 350 -134t135 -358zM592 780q-85 0 -143.5 -43.5
t-81.5 -128.5h426q-14 87 -67.5 129.5t-133.5 42.5z" />
    <glyph glyph-name="Ebreve" unicode="&#x114;" horiz-adv-x="1165" 
d="M608 1556q-155 0 -243.5 83.5t-88.5 224.5v22h226q0 -147 106 -147q107 0 107 147h225v-22q0 -141 -88.5 -224.5t-243.5 -83.5zM1057 1434v-279h-596v-301h530v-270h-530v-305h596v-279h-899v1434h899z" />
    <glyph glyph-name="ebreve" unicode="&#x115;" horiz-adv-x="1153" 
d="M590 1124q-147 0 -230.5 78t-83.5 211v21h213q0 -138 101 -138q100 0 100 138h213v-21q0 -133 -83 -211t-230 -78zM1077 524q0 -42 -6 -98h-715q17 -104 80 -157.5t160 -53.5q71 0 123 30t78 85l262 -60q-47 -137 -172 -216t-295 -79q-231 0 -373.5 142.5t-142.5 371.5
q0 233 145 380t371 147q215 0 350 -134t135 -358zM592 780q-85 0 -143.5 -43.5t-81.5 -128.5h426q-14 87 -67.5 129.5t-133.5 42.5z" />
    <glyph glyph-name="Edotaccent" unicode="&#x116;" horiz-adv-x="1165" 
d="M608 1559q-79 0 -134.5 52.5t-55.5 133.5t55.5 133.5t134.5 52.5t135 -53t56 -133t-56 -133t-135 -53zM1057 1434v-279h-596v-301h530v-270h-530v-305h596v-279h-899v1434h899z" />
    <glyph glyph-name="edotaccent" unicode="&#x117;" horiz-adv-x="1153" 
d="M590 1126q-76 0 -128 50.5t-52 126.5t52 126t128 50t128 -50t52 -126t-52 -126.5t-128 -50.5zM1077 524q0 -42 -6 -98h-715q17 -104 80 -157.5t160 -53.5q71 0 123 30t78 85l262 -60q-47 -137 -172 -216t-295 -79q-231 0 -373.5 142.5t-142.5 371.5q0 233 145 380
t371 147q215 0 350 -134t135 -358zM592 780q-85 0 -143.5 -43.5t-81.5 -128.5h426q-14 87 -67.5 129.5t-133.5 42.5z" />
    <glyph glyph-name="Eogonek" unicode="&#x118;" horiz-adv-x="1165" 
d="M1057 1434v-279h-596v-301h530v-270h-530v-305h596v-279q-84 -57 -118 -100t-34 -82q0 -68 86 -68q35 0 66 10v-223q-56 -16 -123 -16q-126 0 -200.5 61.5t-74.5 165.5q0 76 40.5 141.5t117.5 110.5h-659v1434h899z" />
    <glyph glyph-name="eogonek" unicode="&#x119;" horiz-adv-x="1153" 
d="M1077 524q0 -42 -6 -98h-715q17 -104 80 -157.5t160 -53.5q71 0 123 30t78 85l262 -60q-33 -96 -105.5 -164t-173.5 -102q-78 -53 -108.5 -92.5t-30.5 -77.5q0 -63 80 -63q32 0 61 10v-211q-46 -14 -114 -14q-120 0 -190 57.5t-70 155.5q0 129 108 211q-200 23 -320 161
t-120 348q0 233 145 380t371 147q215 0 350 -134t135 -358zM592 780q-85 0 -143.5 -43.5t-81.5 -128.5h426q-14 87 -67.5 129.5t-133.5 42.5z" />
    <glyph glyph-name="Ecaron" unicode="&#x11a;" horiz-adv-x="1165" 
d="M1008 1888l-254 -327h-291l-254 327h270l129 -157l129 157h271zM1057 1434v-279h-596v-301h530v-270h-530v-305h596v-279h-899v1434h899z" />
    <glyph glyph-name="ecaron" unicode="&#x11b;" horiz-adv-x="1153" 
d="M969 1438l-240 -312h-278l-240 312h258l121 -150l121 150h258zM1077 524q0 -42 -6 -98h-715q17 -104 80 -157.5t160 -53.5q71 0 123 30t78 85l262 -60q-47 -137 -172 -216t-295 -79q-231 0 -373.5 142.5t-142.5 371.5q0 233 145 380t371 147q215 0 350 -134t135 -358z
M592 780q-85 0 -143.5 -43.5t-81.5 -128.5h426q-14 87 -67.5 129.5t-133.5 42.5z" />
    <glyph glyph-name="Gcircumflex" unicode="&#x11c;" horiz-adv-x="1583" 
d="M944 1561l-129 157l-129 -157h-270l254 327h291l253 -327h-270zM836 543v254h637v-797h-228l-16 170h-8q-72 -95 -187.5 -145t-255.5 -50q-145 0 -273.5 54t-221.5 149.5t-147 234.5t-54 302q0 218 94 387.5t261 262.5t378 93q239 0 413 -118.5t234 -319.5l-303 -86
q-35 117 -127 181.5t-223 64.5q-183 0 -298.5 -127.5t-115.5 -337.5q0 -211 116.5 -336t303.5 -125q147 0 249 78t130 211h-358z" />
    <glyph glyph-name="gcircumflex" unicode="&#x11d;" horiz-adv-x="1226" 
d="M739 1126l-121 150l-120 -150h-258l239 312h279l239 -312h-258zM825 870l11 121h262v-973q0 -236 -139.5 -368.5t-378.5 -132.5q-193 0 -325.5 89.5t-170.5 256.5l268 71q58 -165 234 -165q110 0 172.5 65.5t62.5 183.5v140h-6q-37 -64 -118 -103t-177 -39
q-189 0 -314.5 139t-125.5 359t126 361t314 141q98 0 179 -40t118 -106h8zM594 272q99 0 162 66.5t63 175.5t-63 176.5t-162 67.5q-98 0 -160.5 -67.5t-62.5 -176.5t62.5 -175.5t160.5 -66.5z" />
    <glyph glyph-name="Gbreve" unicode="&#x11e;" horiz-adv-x="1583" 
d="M815 1556q-155 0 -243.5 83.5t-88.5 224.5v22h226q0 -147 106 -147q107 0 107 147h225v-22q0 -141 -88.5 -224.5t-243.5 -83.5zM836 543v254h637v-797h-228l-16 170h-8q-72 -95 -187.5 -145t-255.5 -50q-145 0 -273.5 54t-221.5 149.5t-147 234.5t-54 302q0 218 94 387.5
t261 262.5t378 93q239 0 413 -118.5t234 -319.5l-303 -86q-35 117 -127 181.5t-223 64.5q-183 0 -298.5 -127.5t-115.5 -337.5q0 -211 116.5 -336t303.5 -125q147 0 249 78t130 211h-358z" />
    <glyph glyph-name="gbreve" unicode="&#x11f;" horiz-adv-x="1226" 
d="M618 1124q-147 0 -230 78t-83 211v21h213q0 -138 100 -138q101 0 101 138h213v-21q0 -133 -83.5 -211t-230.5 -78zM825 870l11 121h262v-973q0 -236 -139.5 -368.5t-378.5 -132.5q-193 0 -325.5 89.5t-170.5 256.5l268 71q58 -165 234 -165q110 0 172.5 65.5t62.5 183.5
v140h-6q-37 -64 -118 -103t-177 -39q-189 0 -314.5 139t-125.5 359t126 361t314 141q98 0 179 -40t118 -106h8zM594 272q99 0 162 66.5t63 175.5t-63 176.5t-162 67.5q-98 0 -160.5 -67.5t-62.5 -176.5t62.5 -175.5t160.5 -66.5z" />
    <glyph glyph-name="Gdotaccent" unicode="&#x120;" horiz-adv-x="1583" 
d="M815 1559q-79 0 -134.5 52.5t-55.5 133.5t55.5 133.5t134.5 52.5t135 -53t56 -133t-56 -133t-135 -53zM836 543v254h637v-797h-228l-16 170h-8q-72 -95 -187.5 -145t-255.5 -50q-145 0 -273.5 54t-221.5 149.5t-147 234.5t-54 302q0 218 94 387.5t261 262.5t378 93
q239 0 413 -118.5t234 -319.5l-303 -86q-35 117 -127 181.5t-223 64.5q-183 0 -298.5 -127.5t-115.5 -337.5q0 -211 116.5 -336t303.5 -125q147 0 249 78t130 211h-358z" />
    <glyph glyph-name="gdotaccent" unicode="&#x121;" horiz-adv-x="1226" 
d="M618 1126q-76 0 -128 50.5t-52 126.5t52 126t128 50t128.5 -50t52.5 -126t-52.5 -126.5t-128.5 -50.5zM825 870l11 121h262v-973q0 -236 -139.5 -368.5t-378.5 -132.5q-193 0 -325.5 89.5t-170.5 256.5l268 71q58 -165 234 -165q110 0 172.5 65.5t62.5 183.5v140h-6
q-37 -64 -118 -103t-177 -39q-189 0 -314.5 139t-125.5 359t126 361t314 141q98 0 179 -40t118 -106h8zM594 272q99 0 162 66.5t63 175.5t-63 176.5t-162 67.5q-98 0 -160.5 -67.5t-62.5 -176.5t62.5 -175.5t160.5 -66.5z" />
    <glyph glyph-name="uni0122" unicode="&#x122;" horiz-adv-x="1583" 
d="M836 543v254h637v-797h-228l-16 170h-8q-72 -95 -187.5 -145t-255.5 -50q-145 0 -273.5 54t-221.5 149.5t-147 234.5t-54 302q0 218 94 387.5t261 262.5t378 93q239 0 413 -118.5t234 -319.5l-303 -86q-35 117 -127 181.5t-223 64.5q-183 0 -298.5 -127.5t-115.5 -337.5
q0 -211 116.5 -336t303.5 -125q147 0 249 78t130 211h-358zM809 -133q84 0 134.5 -61t49.5 -160q-3 -109 -69 -211h-156q36 53 55 119h-18q-74 0 -120 44.5t-46 110.5q0 65 48.5 111.5t121.5 46.5z" />
    <glyph glyph-name="uni0123" unicode="&#x123;" horiz-adv-x="1226" 
d="M625 1124q-84 0 -135 61.5t-50 160.5q3 106 70 210h156q-38 -56 -56 -118h19q74 0 120 -45t46 -111q0 -65 -48.5 -111.5t-121.5 -46.5zM825 870l11 121h262v-973q0 -236 -139.5 -368.5t-378.5 -132.5q-193 0 -325.5 89.5t-170.5 256.5l268 71q58 -165 234 -165
q110 0 172.5 65.5t62.5 183.5v140h-6q-37 -64 -118 -103t-177 -39q-189 0 -314.5 139t-125.5 359t126 361t314 141q98 0 179 -40t118 -106h8zM594 272q99 0 162 66.5t63 175.5t-63 176.5t-162 67.5q-98 0 -160.5 -67.5t-62.5 -176.5t62.5 -175.5t160.5 -66.5z" />
    <glyph glyph-name="Hcircumflex" unicode="&#x124;" horiz-adv-x="1452" 
d="M854 1561l-129 157l-129 -157h-270l254 327h290l254 -327h-270zM991 842v592h303v-1434h-303v561h-530v-561h-303v1434h303v-592h530z" />
    <glyph glyph-name="hcircumflex" unicode="&#x125;" horiz-adv-x="1171" 
d="M401 1561l-129 157l-129 -157h-270l254 327h291l254 -327h-271zM717 1016q157 0 245.5 -104t88.5 -296v-616h-287v537q0 114 -40.5 164.5t-121.5 50.5q-87 0 -136.5 -56t-49.5 -166v-530h-287v1434h287v-555h6q108 137 295 137z" />
    <glyph glyph-name="Hbar" unicode="&#x126;" horiz-adv-x="1513" 
d="M1325 1217h172v-207h-172v-1010h-303v561h-530v-561h-304v1010h-174v207h174v217h304v-217h530v217h303v-217zM492 842h530v168h-530v-168z" />
    <glyph glyph-name="hbar" unicode="&#x127;" horiz-adv-x="1171" 
d="M717 1016q157 0 245.5 -104t88.5 -296v-616h-287v537q0 114 -40.5 164.5t-121.5 50.5q-87 0 -136.5 -56t-49.5 -166v-530h-287v1108h-170v190h170v136h287v-136h256v-190h-256v-229h6q108 137 295 137z" />
    <glyph glyph-name="Itilde" unicode="&#x128;" horiz-adv-x="618" 
d="M465 1552q-83 0 -180 82q-57 49 -88 49q-52 0 -52 -120h-198q0 164 54.5 248.5t154.5 84.5q85 0 178 -81q60 -50 88 -50q53 0 53 123h197q0 -164 -54 -250t-153 -86zM461 0h-303v1434h303v-1434z" />
    <glyph glyph-name="itilde" unicode="&#x129;" horiz-adv-x="544" 
d="M414 1120q-40 0 -78 17t-88 59q-52 47 -78 47q-47 0 -47 -115h-174q-3 154 44.5 235t135.5 81q77 0 168 -76q52 -47 76 -47q47 0 47 115h174q4 -153 -43.5 -234.5t-136.5 -81.5zM416 0h-287v991h287v-991z" />
    <glyph glyph-name="Imacron" unicode="&#x12a;" horiz-adv-x="618" 
d="M621 1604h-623v225h623v-225zM461 0h-303v1434h303v-1434z" />
    <glyph glyph-name="imacron" unicode="&#x12b;" horiz-adv-x="544" 
d="M545 1167h-545v213h545v-213zM416 0h-287v991h287v-991z" />
    <glyph glyph-name="Ibreve" unicode="&#x12c;" horiz-adv-x="618" 
d="M309 1556q-155 0 -243.5 83.5t-88.5 224.5v22h226q0 -147 106 -147q107 0 107 147h225v-22q0 -141 -88.5 -224.5t-243.5 -83.5zM461 0h-303v1434h303v-1434z" />
    <glyph glyph-name="ibreve" unicode="&#x12d;" horiz-adv-x="544" 
d="M272 1124q-140 0 -214 77t-74 212v21h194q0 -69 25.5 -103.5t68.5 -34.5t68 34.5t25 103.5h196v-21q0 -135 -74.5 -212t-214.5 -77zM416 0h-287v991h287v-991z" />
    <glyph glyph-name="Iogonek" unicode="&#x12e;" horiz-adv-x="618" 
d="M461 1434v-1434q-125 -102 -125 -172q0 -64 67 -64q21 0 58 11v-211q-53 -15 -111 -15q-113 0 -179.5 56.5t-66.5 152.5q0 72 39 135.5t111 106.5h-96v1434h303z" />
    <glyph glyph-name="iogonek" unicode="&#x12f;" horiz-adv-x="544" 
d="M272 1126q-76 0 -128 50.5t-52 126.5t52 126t128 50t128.5 -50t52.5 -126t-52.5 -126.5t-128.5 -50.5zM209 0h-80v991h287v-991q-125 -102 -125 -172q0 -64 67 -64q21 0 58 11v-211q-52 -15 -111 -15q-113 0 -179.5 56.5t-66.5 152.5q0 72 39 135.5t111 106.5z" />
    <glyph glyph-name="Idotaccent" unicode="&#x130;" horiz-adv-x="618" 
d="M309 1559q-79 0 -134.5 52.5t-55.5 133.5t55.5 133.5t134.5 52.5t135 -53t56 -133t-56 -133t-135 -53zM461 0h-303v1434h303v-1434z" />
    <glyph glyph-name="dotlessi" unicode="&#x131;" horiz-adv-x="544" 
d="M416 0h-287v991h287v-991z" />
    <glyph glyph-name="Jcircumflex" unicode="&#x134;" horiz-adv-x="1210" 
d="M786 1561l-129 157l-129 -157h-270l254 327h291l254 -327h-271zM211 1151v283h860v-934q0 -259 -131.5 -392t-378.5 -133q-222 0 -352.5 106.5t-155.5 309.5l295 68q24 -108 77 -155.5t136 -47.5q100 0 153.5 64t53.5 194v637h-557z" />
    <glyph glyph-name="jcircumflex" unicode="&#x135;" horiz-adv-x="544" 
d="M371 1126l-99 138l-98 -138h-242l220 312h239l219 -312h-239zM129 -90v1081h287v-1108q0 -195 -81 -280.5t-261 -85.5q-65 0 -127 12v248q32 -4 57 -4q67 0 96 31t29 106z" />
    <glyph glyph-name="uni0136" unicode="&#x136;" horiz-adv-x="1353" 
d="M1333 1434l-577 -709l587 -725h-376l-500 618h-6v-618h-303v1434h303v-625h6l510 625h356zM698 -133q84 0 135 -61t50 -160q-3 -107 -70 -211h-156q37 55 56 119h-19q-74 0 -120 44.5t-46 110.5q0 65 48.5 111.5t121.5 46.5z" />
    <glyph glyph-name="uni0137" unicode="&#x137;" horiz-adv-x="1118" 
d="M1098 991l-414 -469l428 -522h-352l-338 416h-6v-416h-287v1434h287v-820h8l328 377h346zM569 -133q84 0 135 -61t50 -160q-3 -112 -70 -211h-154q34 50 54 119h-17q-75 0 -121.5 44.5t-46.5 110.5q0 65 48.5 111.5t121.5 46.5z" />
    <glyph glyph-name="Lacute" unicode="&#x139;" horiz-adv-x="1087" 
d="M291 1888h346l-236 -327h-274zM461 1434v-1151h569v-283h-872v1434h303z" />
    <glyph glyph-name="lacute" unicode="&#x13a;" horiz-adv-x="544" 
d="M365 1561h-275l164 327h346zM416 0h-287v1434h287v-1434z" />
    <glyph glyph-name="uni013B" unicode="&#x13b;" horiz-adv-x="1087" 
d="M461 1434v-1151h569v-283h-872v1434h303zM606 -133q84 0 135 -61t50 -160q-3 -107 -70 -211h-156q37 55 56 119h-19q-74 0 -120 44.5t-46 110.5q0 65 48.5 111.5t121.5 46.5z" />
    <glyph glyph-name="uni013C" unicode="&#x13c;" horiz-adv-x="544" 
d="M129 1434h287v-1434h-287v1434zM264 -133q84 0 135 -61t50 -160q-3 -107 -70 -211h-156q37 55 56 119h-19q-74 0 -120 44.5t-46 110.5q0 65 48.5 111.5t121.5 46.5z" />
    <glyph glyph-name="Lcaron" unicode="&#x13d;" horiz-adv-x="1087" 
d="M756 1143q-69 0 -113.5 42.5t-44.5 108.5q0 70 47 117t117 47q78 0 126.5 -61t47.5 -158q-1 -98 -59 -192.5t-166 -176.5l-78 86q114 102 141 187h-18zM461 1434v-1151h569v-283h-872v1434h303z" />
    <glyph glyph-name="lcaron" unicode="&#x13e;" horiz-adv-x="765" 
d="M680 1458q78 0 127.5 -61.5t48.5 -157.5q-3 -98 -61.5 -192.5t-165.5 -176.5l-78 86q114 102 141 187h-16q-69 0 -114.5 42.5t-45.5 108.5q0 70 47.5 117t116.5 47zM416 0h-287v1434h287v-1434z" />
    <glyph glyph-name="Ldot" unicode="&#x13f;" horiz-adv-x="1128" 
d="M461 1434v-1151h569v-283h-872v1434h303zM797 473q-77 0 -128 51t-51 127q0 78 51 129t128 51q78 0 128 -51t50 -129q0 -77 -50 -127.5t-128 -50.5z" />
    <glyph glyph-name="ldot" unicode="&#x140;" horiz-adv-x="968" 
d="M416 0h-287v1434h287v-1434zM745 367q-83 0 -136.5 53.5t-53.5 136.5q0 85 53.5 139t136.5 54q85 0 139 -54t54 -139q0 -83 -54 -136.5t-139 -53.5z" />
    <glyph glyph-name="Lslash" unicode="&#x141;" horiz-adv-x="1142" 
d="M516 664v-381h569v-283h-872v446l-217 -157v258l217 158v729h303v-512l334 241v-258z" />
    <glyph glyph-name="lslash" unicode="&#x142;" horiz-adv-x="739" 
d="M514 909l195 142v-258l-195 -142v-651h-287v444l-196 -141v258l196 141v732h287v-525z" />
    <glyph glyph-name="Nacute" unicode="&#x143;" horiz-adv-x="1523" 
d="M743 1888h347l-236 -327h-274zM1063 524v910h303v-1434h-307l-592 909h-6v-909h-303v1434h307l590 -910h8z" />
    <glyph glyph-name="nacute" unicode="&#x144;" horiz-adv-x="1171" 
d="M578 1438h325l-221 -312h-260zM715 1016q156 0 246 -101t90 -284v-631h-287v537q0 114 -40.5 164.5t-121.5 50.5q-87 0 -136.5 -56t-49.5 -166v-530h-287v991h262l10 -121h9q44 67 126 106.5t179 39.5z" />
    <glyph glyph-name="uni0145" unicode="&#x145;" horiz-adv-x="1523" 
d="M1063 524v910h303v-1434h-307l-592 909h-6v-909h-303v1434h307l590 -910h8zM754 -133q84 0 134.5 -61t49.5 -160q-3 -107 -70 -211h-155q36 53 55 119h-18q-74 0 -120 44.5t-46 110.5q0 65 48.5 111.5t121.5 46.5z" />
    <glyph glyph-name="uni0146" unicode="&#x146;" horiz-adv-x="1171" 
d="M715 1016q156 0 246 -101t90 -284v-631h-287v537q0 114 -40.5 164.5t-121.5 50.5q-87 0 -136.5 -56t-49.5 -166v-530h-287v991h262l10 -121h9q44 67 126 106.5t179 39.5zM580 -133q84 0 134.5 -61t49.5 -160q-3 -107 -70 -211h-155q36 53 55 119h-19q-74 0 -119.5 44.5
t-45.5 110.5q0 65 48.5 111.5t121.5 46.5z" />
    <glyph glyph-name="Ncaron" unicode="&#x147;" horiz-adv-x="1523" 
d="M1161 1888l-254 -327h-291l-254 327h271l129 -157l129 157h270zM1063 524v910h303v-1434h-307l-592 909h-6v-909h-303v1434h307l590 -910h8z" />
    <glyph glyph-name="ncaron" unicode="&#x148;" horiz-adv-x="1171" 
d="M969 1438l-240 -312h-278l-240 312h258l121 -150l121 150h258zM715 1016q156 0 246 -101t90 -284v-631h-287v537q0 114 -40.5 164.5t-121.5 50.5q-87 0 -136.5 -56t-49.5 -166v-530h-287v991h262l10 -121h9q44 67 126 106.5t179 39.5z" />
    <glyph glyph-name="Eng" unicode="&#x14a;" horiz-adv-x="1523" 
d="M1063 524v910h303v-1457q0 -198 -81 -285t-261 -87q-73 0 -127 14v260q32 -4 59 -4q53 0 78 23.5t25 74.5v27l-592 909h-6v-909h-303v1434h307l590 -910h8z" />
    <glyph glyph-name="eng" unicode="&#x14b;" horiz-adv-x="1171" 
d="M715 1016q156 0 246 -104t90 -296v-614q0 -197 -81 -283t-261 -86q-65 0 -127 15v248q40 -5 59 -5q65 0 94 31t29 105v510q0 114 -40.5 164.5t-121.5 50.5q-87 0 -136.5 -56t-49.5 -166v-530h-287v991h262l10 -121h9q44 67 126 106.5t179 39.5z" />
    <glyph glyph-name="Omacron" unicode="&#x14c;" horiz-adv-x="1609" 
d="M1116 1604h-622v225h622v-225zM805 -25q-208 0 -373 94.5t-257.5 264t-92.5 383.5q0 160 54 298.5t149.5 235.5t230 152t289.5 55t289.5 -55t230 -152t149.5 -235.5t54 -298.5q0 -214 -92.5 -383.5t-257.5 -264t-373 -94.5zM805 256q182 0 295.5 126.5t113.5 334.5
t-113.5 334.5t-295.5 126.5q-183 0 -296.5 -126.5t-113.5 -334.5t113.5 -334.5t296.5 -126.5z" />
    <glyph glyph-name="omacron" unicode="&#x14d;" horiz-adv-x="1187" 
d="M887 1167h-586v213h586v-213zM594 -25q-228 0 -373 145.5t-145 375.5t145 375t373 145t373 -145t145 -375t-145 -375.5t-373 -145.5zM594 231q101 0 164 72t63 193t-63 191.5t-164 70.5t-164 -70.5t-63 -191.5t63 -193t164 -72z" />
    <glyph glyph-name="Obreve" unicode="&#x14e;" horiz-adv-x="1609" 
d="M805 1556q-155 0 -243.5 83.5t-88.5 224.5v22h225q0 -147 107 -147q106 0 106 147h226v-22q0 -141 -88.5 -224.5t-243.5 -83.5zM805 -25q-208 0 -373 94.5t-257.5 264t-92.5 383.5q0 160 54 298.5t149.5 235.5t230 152t289.5 55t289.5 -55t230 -152t149.5 -235.5
t54 -298.5q0 -214 -92.5 -383.5t-257.5 -264t-373 -94.5zM805 256q182 0 295.5 126.5t113.5 334.5t-113.5 334.5t-295.5 126.5q-183 0 -296.5 -126.5t-113.5 -334.5t113.5 -334.5t296.5 -126.5z" />
    <glyph glyph-name="obreve" unicode="&#x14f;" horiz-adv-x="1187" 
d="M594 1124q-147 0 -230 78t-83 211v21h213q0 -138 100 -138t100 138h213v-21q0 -133 -83 -211t-230 -78zM594 -25q-228 0 -373 145.5t-145 375.5t145 375t373 145t373 -145t145 -375t-145 -375.5t-373 -145.5zM594 231q101 0 164 72t63 193t-63 191.5t-164 70.5
t-164 -70.5t-63 -191.5t63 -193t164 -72z" />
    <glyph glyph-name="Ohungarumlaut" unicode="&#x150;" horiz-adv-x="1609" 
d="M664 1561h-240l143 327h291zM1075 1561h-241l145 327h289zM805 -25q-208 0 -373 94.5t-257.5 264t-92.5 383.5q0 160 54 298.5t149.5 235.5t230 152t289.5 55t289.5 -55t230 -152t149.5 -235.5t54 -298.5q0 -214 -92.5 -383.5t-257.5 -264t-373 -94.5zM805 256
q182 0 295.5 126.5t113.5 334.5t-113.5 334.5t-295.5 126.5q-183 0 -296.5 -126.5t-113.5 -334.5t113.5 -334.5t296.5 -126.5z" />
    <glyph glyph-name="ohungarumlaut" unicode="&#x151;" horiz-adv-x="1187" 
d="M463 1126h-227l137 312h272zM850 1126h-227l137 312h274zM594 -25q-228 0 -373 145.5t-145 375.5t145 375t373 145t373 -145t145 -375t-145 -375.5t-373 -145.5zM594 231q101 0 164 72t63 193t-63 191.5t-164 70.5t-164 -70.5t-63 -191.5t63 -193t164 -72z" />
    <glyph glyph-name="OE" unicode="&#x152;" horiz-adv-x="1955" 
d="M1847 1434v-279h-596v-301h531v-270h-531v-305h596v-279h-1001q-348 0 -555 192.5t-207 524.5q0 334 206 525.5t556 191.5h1001zM831 283h117v868h-117q-203 0 -318.5 -113.5t-115.5 -320.5t115.5 -320.5t318.5 -113.5z" />
    <glyph glyph-name="oe" unicode="&#x153;" horiz-adv-x="1900" 
d="M1825 524q0 -42 -6 -98h-713q17 -104 79 -157.5t156 -53.5q145 0 203 115l262 -60q-47 -137 -172 -216t-295 -79q-236 0 -370 156h-8q-137 -156 -367 -156q-228 0 -373 145.5t-145 375.5t145 375t373 145q236 0 371 -160h8q132 160 366 160q215 0 350.5 -134t135.5 -358z
M1339 780q-82 0 -140.5 -42.5t-82.5 -125.5h424q-17 86 -69.5 127t-131.5 41zM594 231q100 0 163.5 73t63.5 192t-63 190.5t-164 71.5t-164 -71.5t-63 -190.5t63.5 -192t163.5 -73z" />
    <glyph glyph-name="Racute" unicode="&#x154;" horiz-adv-x="1331" 
d="M596 1888h346l-235 -327h-275zM1241 0h-354l-285 434h-141v-434h-303v1434h473q282 0 440 -134.5t158 -365.5q0 -164 -81.5 -281.5t-232.5 -173.5zM645 1153h-184v-440h184q131 0 202 57.5t71 163.5q0 104 -71.5 161.5t-201.5 57.5z" />
    <glyph glyph-name="racute" unicode="&#x155;" horiz-adv-x="813" 
d="M426 1438h326l-222 -312h-260zM680 1010q52 0 90 -15v-270q-46 6 -86 6q-135 0 -201.5 -70.5t-66.5 -216.5v-444h-287v991h260l14 -149h9q35 79 106.5 123.5t161.5 44.5z" />
    <glyph glyph-name="uni0156" unicode="&#x156;" horiz-adv-x="1331" 
d="M915 479l326 -479h-354l-285 434h-141v-434h-303v1434h473q282 0 440 -134.5t158 -365.5q0 -164 -81.5 -281.5t-232.5 -173.5zM645 1153h-184v-440h184q131 0 202 57.5t71 163.5q0 104 -71.5 161.5t-201.5 57.5zM662 -133q84 0 134.5 -61t49.5 -160q-3 -107 -70 -211
h-155q36 53 55 119h-19q-74 0 -119.5 44.5t-45.5 110.5q0 65 48.5 111.5t121.5 46.5z" />
    <glyph glyph-name="uni0157" unicode="&#x157;" horiz-adv-x="813" 
d="M680 1010q52 0 90 -15v-270q-46 6 -86 6q-135 0 -201.5 -70.5t-66.5 -216.5v-444h-287v991h260l14 -149h9q35 79 106.5 123.5t161.5 44.5zM264 -133q84 0 135 -61t50 -160q-3 -107 -70 -211h-156q37 55 56 119h-19q-74 0 -120 44.5t-46 110.5q0 65 48.5 111.5t121.5 46.5
z" />
    <glyph glyph-name="Rcaron" unicode="&#x158;" horiz-adv-x="1331" 
d="M1014 1888l-254 -327h-291l-254 327h270l129 -157l129 157h271zM1241 0h-354l-285 434h-141v-434h-303v1434h473q282 0 440 -134.5t158 -365.5q0 -164 -81.5 -281.5t-232.5 -173.5zM645 1153h-184v-440h184q131 0 202 57.5t71 163.5q0 104 -71.5 161.5t-201.5 57.5z" />
    <glyph glyph-name="rcaron" unicode="&#x159;" horiz-adv-x="813" 
d="M776 1438l-219 -312h-240l-219 312h242l98 -138l99 138h239zM403 842h9q35 79 106.5 123.5t161.5 44.5q52 0 90 -15v-270q-46 6 -86 6q-135 0 -201.5 -70.5t-66.5 -216.5v-444h-287v991h260z" />
    <glyph glyph-name="Sacute" unicode="&#x15a;" horiz-adv-x="1208" 
d="M690 1561h-274l164 327h346zM616 -25q-222 0 -373 113.5t-182 302.5l289 70q67 -215 275 -215q100 0 159.5 47.5t59.5 124.5q0 65 -50 104.5t-173 65.5l-148 30q-393 85 -393 400q0 195 143 317.5t377 122.5q212 0 352.5 -103.5t175.5 -287.5l-288 -72q-43 193 -248 193
q-97 0 -154 -44.5t-57 -115.5q0 -60 50 -95.5t181 -64.5l146 -30q201 -44 295 -142t94 -254q0 -207 -146.5 -337t-384.5 -130z" />
    <glyph glyph-name="sacute" unicode="&#x15b;" horiz-adv-x="960" 
d="M573 1126h-260l156 312h326zM489 -25q-173 0 -288.5 77.5t-137.5 207.5l256 62q15 -58 64.5 -91.5t116.5 -33.5q61 0 96 25t35 65q0 70 -137 96l-121 25q-154 29 -228.5 99.5t-74.5 186.5q0 142 110.5 232t302.5 90q167 0 273.5 -71t134.5 -197l-256 -64q-14 53 -57.5 83
t-106.5 30q-59 0 -93 -24t-34 -62q0 -30 29.5 -50t111.5 -36l121 -25q155 -28 227 -100.5t72 -186.5q0 -150 -111.5 -244t-304.5 -94z" />
    <glyph glyph-name="Scircumflex" unicode="&#x15c;" horiz-adv-x="1208" 
d="M727 1561l-129 157l-129 -157h-270l254 327h290l254 -327h-270zM612 868l146 -30q201 -44 295 -142t94 -254q0 -207 -146.5 -337t-384.5 -130q-222 0 -373 113.5t-182 302.5l289 70q67 -215 275 -215q100 0 159.5 47.5t59.5 124.5q0 65 -50 104.5t-173 65.5l-148 30
q-393 85 -393 400q0 195 143 317.5t377 122.5q212 0 352.5 -103.5t175.5 -287.5l-288 -72q-43 193 -248 193q-97 0 -154 -44.5t-57 -115.5q0 -60 50 -95.5t181 -64.5z" />
    <glyph glyph-name="scircumflex" unicode="&#x15d;" horiz-adv-x="960" 
d="M602 1126l-121 150l-121 -150h-258l240 312h279l239 -312h-258zM485 625l121 -25q155 -28 227 -100.5t72 -186.5q0 -150 -111.5 -244t-304.5 -94q-173 0 -288.5 77.5t-137.5 207.5l256 62q15 -58 64.5 -91.5t116.5 -33.5q61 0 96 25t35 65q0 70 -137 96l-121 25
q-154 29 -228.5 99.5t-74.5 186.5q0 142 110.5 232t302.5 90q167 0 273.5 -71t134.5 -197l-256 -64q-14 53 -57.5 83t-106.5 30q-59 0 -93 -24t-34 -62q0 -30 29.5 -50t111.5 -36z" />
    <glyph glyph-name="Scedilla" unicode="&#x15e;" horiz-adv-x="1208" 
d="M1147 442q0 -191 -125.5 -317t-335.5 -145l-2 -72q86 -13 133 -60.5t47 -121.5q0 -94 -74.5 -149.5t-207.5 -55.5q-56 0 -109 12v162q27 -4 72 -4q94 0 94 49q0 24 -31.5 35.5t-120.5 11.5l19 197q-181 26 -300 134.5t-145 272.5l289 70q67 -215 275 -215
q100 0 159.5 47.5t59.5 124.5q0 65 -50 104.5t-173 65.5l-148 30q-393 85 -393 400q0 195 143 317.5t377 122.5q212 0 352.5 -103.5t175.5 -287.5l-288 -72q-43 193 -248 193q-97 0 -154 -44.5t-57 -115.5q0 -60 50 -95.5t181 -64.5l146 -30q201 -44 295 -142t94 -254z" />
    <glyph glyph-name="scedilla" unicode="&#x15f;" horiz-adv-x="960" 
d="M905 313q0 -136 -93.5 -227t-256.5 -106v-72q86 -13 132 -60.5t46 -121.5q0 -94 -74 -149.5t-208 -55.5q-57 0 -109 12v162q27 -4 72 -4q52 0 73 12t21 37q0 24 -31.5 35.5t-120.5 11.5l19 199q-128 23 -210.5 95t-101.5 179l256 62q15 -58 64.5 -91.5t116.5 -33.5
q61 0 96 25t35 65q0 70 -137 96l-121 25q-154 29 -228.5 99.5t-74.5 186.5q0 142 110.5 232t302.5 90q167 0 273.5 -71t134.5 -197l-256 -64q-14 53 -57.5 83t-106.5 30q-59 0 -93 -24t-34 -62q0 -30 29.5 -50t111.5 -36l121 -25q155 -28 227 -100.5t72 -186.5z" />
    <glyph glyph-name="Scaron" unicode="&#x160;" horiz-adv-x="1208" 
d="M997 1888l-254 -327h-290l-254 327h270l129 -157l129 157h270zM612 868l146 -30q201 -44 295 -142t94 -254q0 -207 -146.5 -337t-384.5 -130q-222 0 -373 113.5t-182 302.5l289 70q67 -215 275 -215q100 0 159.5 47.5t59.5 124.5q0 65 -50 104.5t-173 65.5l-148 30
q-393 85 -393 400q0 195 143 317.5t377 122.5q212 0 352.5 -103.5t175.5 -287.5l-288 -72q-43 193 -248 193q-97 0 -154 -44.5t-57 -115.5q0 -60 50 -95.5t181 -64.5z" />
    <glyph glyph-name="scaron" unicode="&#x161;" horiz-adv-x="960" 
d="M860 1438l-239 -312h-279l-240 312h258l121 -150l121 150h258zM485 625l121 -25q155 -28 227 -100.5t72 -186.5q0 -150 -111.5 -244t-304.5 -94q-173 0 -288.5 77.5t-137.5 207.5l256 62q15 -58 64.5 -91.5t116.5 -33.5q61 0 96 25t35 65q0 70 -137 96l-121 25
q-154 29 -228.5 99.5t-74.5 186.5q0 142 110.5 232t302.5 90q167 0 273.5 -71t134.5 -197l-256 -64q-14 53 -57.5 83t-106.5 30q-59 0 -93 -24t-34 -62q0 -30 29.5 -50t111.5 -36z" />
    <glyph glyph-name="uni0162" unicode="&#x162;" horiz-adv-x="1161" 
d="M37 1151v283h1087v-283h-393v-1151h-303v1151h-391zM573 -133q84 0 135 -61t50 -160q-3 -107 -70 -211h-156q37 55 56 119h-19q-74 0 -120 44.5t-46 110.5q0 65 48.5 111.5t121.5 46.5z" />
    <glyph glyph-name="uni0163" unicode="&#x163;" horiz-adv-x="788" 
d="M637 229q41 0 88 7v-242q-78 -19 -158 -19q-195 0 -289 94t-94 298v372h-153v252h153v236h287v-236h248v-252h-248v-350q0 -90 36.5 -125t129.5 -35zM483 -133q84 0 135 -61t50 -160q-3 -107 -70 -211h-156q37 55 56 119h-19q-74 0 -120 44.5t-46 110.5q0 65 48.5 111.5
t121.5 46.5z" />
    <glyph glyph-name="Tcaron" unicode="&#x164;" horiz-adv-x="1161" 
d="M979 1888l-254 -327h-291l-254 327h271l129 -157l129 157h270zM37 1434h1087v-283h-393v-1151h-303v1151h-391v283z" />
    <glyph glyph-name="tcaron" unicode="&#x165;" horiz-adv-x="788" 
d="M686 1661q78 0 126.5 -61t47.5 -158q-1 -98 -59 -192.5t-166 -176.5l-78 86q114 102 141 187h-18q-69 0 -113.5 42.5t-44.5 108.5q0 71 47 117.5t117 46.5zM471 739v-350q0 -90 36.5 -125t129.5 -35q41 0 88 7v-242q-78 -19 -158 -19q-195 0 -289 94t-94 298v372h-153
v252h153v236h287v-236h248v-252h-248z" />
    <glyph glyph-name="Tbar" unicode="&#x166;" horiz-adv-x="1161" 
d="M1124 1434v-283h-393v-354h227v-226h-227v-571h-303v571h-227v226h227v354h-391v283h1087z" />
    <glyph glyph-name="tbar" unicode="&#x167;" horiz-adv-x="813" 
d="M649 229q41 0 88 7v-242q-78 -19 -157 -19q-195 0 -289 94t-94 298v57h-154v170h154v145h-154v252h154v236h286v-236h248v-252h-248v-145h248v-170h-248v-35q0 -90 36.5 -125t129.5 -35z" />
    <glyph glyph-name="Utilde" unicode="&#x168;" horiz-adv-x="1413" 
d="M862 1552q-83 0 -180 82q-57 49 -88 49q-51 0 -51 -120h-199q0 164 54.5 248.5t154.5 84.5q85 0 178 -81q60 -50 88 -50q53 0 53 123h197q0 -164 -54 -250t-153 -86zM707 -25q-264 0 -416 156t-152 430v873h301v-856q0 -156 71.5 -237t195.5 -81q123 0 193.5 81t70.5 237
v856h303v-873q0 -274 -152.5 -430t-414.5 -156z" />
    <glyph glyph-name="utilde" unicode="&#x169;" horiz-adv-x="1161" 
d="M477 1243q-51 0 -51 -115h-186q0 155 50.5 235.5t145.5 80.5q79 0 170 -76q52 -47 82 -47q49 0 49 115h187q0 -154 -51 -235t-144 -81q-79 0 -170 76q-55 47 -82 47zM745 461v530h287v-991h-260l-12 121h-6q-46 -67 -127.5 -106.5t-175.5 -39.5q-151 0 -240.5 104
t-89.5 296v616h287v-536q0 -114 39 -164.5t116 -50.5q86 0 134 55.5t48 165.5z" />
    <glyph glyph-name="Umacron" unicode="&#x16a;" horiz-adv-x="1413" 
d="M1018 1604h-623v225h623v-225zM707 -25q-264 0 -416 156t-152 430v873h301v-856q0 -156 71.5 -237t195.5 -81q123 0 193.5 81t70.5 237v856h303v-873q0 -274 -152.5 -430t-414.5 -156z" />
    <glyph glyph-name="umacron" unicode="&#x16b;" horiz-adv-x="1161" 
d="M289 1380h585v-213h-585v213zM745 461v530h287v-991h-260l-12 121h-6q-46 -67 -127.5 -106.5t-175.5 -39.5q-151 0 -240.5 104t-89.5 296v616h287v-536q0 -114 39 -164.5t116 -50.5q86 0 134 55.5t48 165.5z" />
    <glyph glyph-name="Ubreve" unicode="&#x16c;" horiz-adv-x="1413" 
d="M707 1556q-155 0 -243.5 83.5t-88.5 224.5v22h225q0 -147 107 -147q106 0 106 147h225v-22q0 -141 -88 -224.5t-243 -83.5zM707 -25q-264 0 -416 156t-152 430v873h301v-856q0 -156 71.5 -237t195.5 -81q123 0 193.5 81t70.5 237v856h303v-873q0 -274 -152.5 -430
t-414.5 -156z" />
    <glyph glyph-name="ubreve" unicode="&#x16d;" horiz-adv-x="1161" 
d="M582 1124q-147 0 -230.5 78t-83.5 211v21h213q0 -138 101 -138q100 0 100 138h213v-21q0 -133 -83 -211t-230 -78zM745 461v530h287v-991h-260l-12 121h-6q-46 -67 -127.5 -106.5t-175.5 -39.5q-151 0 -240.5 104t-89.5 296v616h287v-536q0 -114 39 -164.5t116 -50.5
q86 0 134 55.5t48 165.5z" />
    <glyph glyph-name="Uring" unicode="&#x16e;" horiz-adv-x="1413" 
d="M707 1536q-113 0 -188 69.5t-75 172.5t74.5 172t188.5 69q113 0 187.5 -69t74.5 -172t-74.5 -172.5t-187.5 -69.5zM707 1698q38 0 59.5 22t21.5 58t-21.5 58t-59.5 22t-60 -22t-22 -58t22 -58t60 -22zM707 -25q-264 0 -416 156t-152 430v873h301v-856q0 -156 71.5 -237
t195.5 -81q123 0 193.5 81t70.5 237v856h303v-873q0 -274 -152.5 -430t-414.5 -156z" />
    <glyph glyph-name="uring" unicode="&#x16f;" horiz-adv-x="1161" 
d="M582 1106q-107 0 -177.5 66t-70.5 163t70.5 163.5t177.5 66.5q106 0 176.5 -66.5t70.5 -163.5t-70 -163t-177 -66zM582 1411q-35 0 -56.5 -21t-21.5 -55t21.5 -54.5t56.5 -20.5t56 20.5t21 54.5t-21 55t-56 21zM745 461v530h287v-991h-260l-12 121h-6
q-46 -67 -127.5 -106.5t-175.5 -39.5q-151 0 -240.5 104t-89.5 296v616h287v-536q0 -114 39 -164.5t116 -50.5q86 0 134 55.5t48 165.5z" />
    <glyph glyph-name="Uhungarumlaut" unicode="&#x170;" horiz-adv-x="1413" 
d="M563 1561h-239l143 327h291zM975 1561h-242l146 327h288zM707 -25q-264 0 -416 156t-152 430v873h301v-856q0 -156 71.5 -237t195.5 -81q123 0 193.5 81t70.5 237v856h303v-873q0 -274 -152.5 -430t-414.5 -156z" />
    <glyph glyph-name="uhungarumlaut" unicode="&#x171;" horiz-adv-x="1161" 
d="M360 1438h273l-182 -312h-228zM1022 1438l-184 -312h-228l138 312h274zM745 461v530h287v-991h-260l-12 121h-6q-46 -67 -127.5 -106.5t-175.5 -39.5q-151 0 -240.5 104t-89.5 296v616h287v-536q0 -114 39 -164.5t116 -50.5q86 0 134 55.5t48 165.5z" />
    <glyph glyph-name="Uogonek" unicode="&#x172;" horiz-adv-x="1413" 
d="M971 578v856h303v-873q0 -216 -98 -361t-273 -198q-84 -57 -117.5 -100t-33.5 -82q0 -68 86 -68q34 0 65 10v-223q-56 -16 -123 -16q-126 0 -200 61.5t-74 165.5q0 142 123 230q-229 23 -359.5 176t-130.5 405v873h301v-856q0 -156 71.5 -237t195.5 -81q123 0 193.5 81
t70.5 237z" />
    <glyph glyph-name="uogonek" unicode="&#x173;" horiz-adv-x="1161" 
d="M1032 991v-991q-79 -54 -110 -94t-31 -78q0 -64 80 -64q29 0 61 11v-211q-50 -15 -114 -15q-120 0 -190.5 57.5t-70.5 155.5q0 149 148 238h-33l-12 121h-6q-46 -67 -127.5 -106.5t-175.5 -39.5q-151 0 -240.5 104t-89.5 296v616h287v-536q0 -114 39 -164.5t116 -50.5
q86 0 134 55.5t48 165.5v530h287z" />
    <glyph glyph-name="Wcircumflex" unicode="&#x174;" horiz-adv-x="2048" 
d="M1153 1561l-129 157l-129 -157h-270l254 327h290l254 -327h-270zM1452 485l256 949h315l-407 -1434h-301l-287 973h-8l-285 -973h-303l-405 1434h313l256 -949h6l287 949h270l287 -949h6z" />
    <glyph glyph-name="wcircumflex" unicode="&#x175;" horiz-adv-x="1665" 
d="M954 1126l-120 150l-121 -150h-258l239 312h279l239 -312h-258zM1171 379l170 612h297l-305 -991h-299l-198 627h-7l-198 -627h-301l-303 991h297l170 -612h8l200 612h261l200 -612h8z" />
    <glyph glyph-name="Ycircumflex" unicode="&#x176;" horiz-adv-x="1290" 
d="M774 1561l-129 157l-129 -157h-270l254 327h291l253 -327h-270zM649 885l299 549h336l-487 -854v-580h-303v580l-488 854h338l299 -549h6z" />
    <glyph glyph-name="ycircumflex" unicode="&#x177;" horiz-adv-x="1167" 
d="M707 1126l-121 150l-121 -150h-258l239 312h279l240 -312h-258zM754 498v493h286v-995q0 -227 -130.5 -353t-356.5 -126q-186 0 -311.5 86t-155.5 245l266 72q47 -151 207 -151q95 0 150 57.5t55 169.5v166h-8q-41 -67 -122.5 -106.5t-176.5 -39.5q-155 0 -244.5 103
t-89.5 295v577h287v-499q0 -112 39.5 -161.5t117.5 -49.5q88 0 137.5 55t49.5 162z" />
    <glyph glyph-name="Ydieresis" unicode="&#x178;" horiz-adv-x="1290" 
d="M406 1567q-74 0 -126.5 50.5t-52.5 127.5t53 128.5t126 51.5t124.5 -51.5t51.5 -128.5t-51.5 -127.5t-124.5 -50.5zM885 1567q-73 0 -124.5 50.5t-51.5 127.5t51.5 128.5t124.5 51.5t125.5 -51.5t52.5 -128.5t-52.5 -127.5t-125.5 -50.5zM797 0h-303v580l-488 854h338
l299 -549h6l299 549h336l-487 -854v-580z" />
    <glyph glyph-name="Zacute" unicode="&#x179;" horiz-adv-x="1169" 
d="M563 1888h346l-235 -327h-275zM1071 1196l-608 -913h624v-283h-1005v238l608 913h-592v283h973v-238z" />
    <glyph glyph-name="zacute" unicode="&#x17a;" horiz-adv-x="952" 
d="M465 1438h326l-222 -312h-260zM868 782l-422 -530h437v-252h-813v209l422 530h-414v252h790v-209z" />
    <glyph glyph-name="Zdotaccent" unicode="&#x17b;" horiz-adv-x="1169" 
d="M582 1559q-79 0 -135 53t-56 133t56 133t135 53t134.5 -52.5t55.5 -133.5t-55.5 -133.5t-134.5 -52.5zM1071 1196l-608 -913h624v-283h-1005v238l608 913h-592v283h973v-238z" />
    <glyph glyph-name="zdotaccent" unicode="&#x17c;" horiz-adv-x="952" 
d="M477 1126q-76 0 -128 50.5t-52 126.5t52 126t128 50t128 -50t52 -126t-52 -126.5t-128 -50.5zM868 782l-422 -530h437v-252h-813v209l422 530h-414v252h790v-209z" />
    <glyph glyph-name="Zcaron" unicode="&#x17d;" horiz-adv-x="1169" 
d="M981 1888l-254 -327h-291l-254 327h271l129 -157l129 157h270zM1071 1196l-608 -913h624v-283h-1005v238l608 913h-592v283h973v-238z" />
    <glyph glyph-name="zcaron" unicode="&#x17e;" horiz-adv-x="952" 
d="M856 1438l-240 -312h-278l-240 312h258l121 -150l121 150h258zM868 782l-422 -530h437v-252h-813v209l422 530h-414v252h790v-209z" />
    <glyph glyph-name="florin" unicode="&#x192;" horiz-adv-x="970" 
d="M854 1196q-73 0 -109 -31t-51 -112l-32 -170h243v-185h-278l-76 -405q-32 -163 -123.5 -240.5t-243.5 -77.5q-68 0 -139 19v250q37 -6 72 -6q71 0 106.5 31t52.5 112l60 317h-205v185h240l49 258q32 163 123 240t241 77q72 0 140 -18v-250q-35 6 -70 6z" />
    <glyph glyph-name="uni01CD" unicode="&#x1cd;" horiz-adv-x="1376" 
d="M1087 1888l-253 -327h-291l-254 327h270l129 -157l129 157h270zM1360 0h-318l-92 283h-524l-94 -283h-316l498 1434h348zM684 1065l-174 -524h354l-172 524h-8z" />
    <glyph glyph-name="uni01CE" unicode="&#x1ce;" horiz-adv-x="1124" 
d="M928 1438l-240 -312h-278l-240 312h258l121 -150l121 150h258zM573 1016q209 0 315.5 -102.5t106.5 -303.5v-610h-260l-10 123h-8q-43 -69 -123.5 -108.5t-179.5 -39.5q-150 0 -243 80.5t-93 210.5q0 123 89.5 201.5t272.5 105.5l187 27q54 9 71 21.5t17 40.5
q0 55 -39 86.5t-111 31.5q-73 0 -122 -36t-66 -107l-271 55q30 151 151 237.5t316 86.5zM719 408v36q-23 -16 -117 -32l-98 -15q-135 -20 -135 -104q0 -46 34.5 -73t96.5 -27q93 0 156 60.5t63 154.5z" />
    <glyph glyph-name="uni01E2" unicode="&#x1e2;" horiz-adv-x="2009" 
d="M1004 1829h622v-225h-622v225zM1903 1434v-279h-598v-301h532v-270h-532v-305h598v-279h-902v309h-471l-168 -309h-350l795 1434h1096zM993 1155l-321 -588h329v588h-8z" />
    <glyph glyph-name="uni01E3" unicode="&#x1e3;" horiz-adv-x="1787" 
d="M621 1380h585v-213h-585v213zM1714 524q0 -49 -8 -98h-700q17 -104 77.5 -157.5t151.5 -53.5q66 0 117.5 30.5t77.5 84.5l262 -60q-47 -136 -170.5 -215.5t-286.5 -79.5q-121 0 -221 45t-162 125h-8q-50 -79 -149 -124.5t-232 -45.5q-182 0 -283.5 82t-101.5 217
q0 144 117 230t335 86h211v26q0 164 -168 164q-158 0 -192 -143l-268 49q30 157 151.5 243.5t319.5 86.5q219 0 319 -121h8q124 121 326 121q207 0 342 -134.5t135 -357.5zM1233 780q-77 0 -135 -43t-82 -125h414q-16 85 -69 126.5t-128 41.5zM506 203q105 0 168.5 55
t66.5 145h-182q-190 0 -190 -110q0 -90 137 -90z" />
    <glyph glyph-name="Gcaron" unicode="&#x1e6;" horiz-adv-x="1583" 
d="M1214 1888l-253 -327h-291l-254 327h270l129 -157l129 157h270zM836 543v254h637v-797h-228l-16 170h-8q-72 -95 -187.5 -145t-255.5 -50q-145 0 -273.5 54t-221.5 149.5t-147 234.5t-54 302q0 218 94 387.5t261 262.5t378 93q239 0 413 -118.5t234 -319.5l-303 -86
q-35 117 -127 181.5t-223 64.5q-183 0 -298.5 -127.5t-115.5 -337.5q0 -211 116.5 -336t303.5 -125q147 0 249 78t130 211h-358z" />
    <glyph glyph-name="gcaron" unicode="&#x1e7;" horiz-adv-x="1226" 
d="M997 1438l-239 -312h-279l-239 312h258l120 -150l121 150h258zM825 870l11 121h262v-973q0 -236 -139.5 -368.5t-378.5 -132.5q-193 0 -325.5 89.5t-170.5 256.5l268 71q58 -165 234 -165q110 0 172.5 65.5t62.5 183.5v140h-6q-37 -64 -118 -103t-177 -39
q-189 0 -314.5 139t-125.5 359t126 361t314 141q98 0 179 -40t118 -106h8zM594 272q99 0 162 66.5t63 175.5t-63 176.5t-162 67.5q-98 0 -160.5 -67.5t-62.5 -176.5t62.5 -175.5t160.5 -66.5z" />
    <glyph glyph-name="uni01E8" unicode="&#x1e8;" horiz-adv-x="1353" 
d="M1112 1888l-254 -327h-291l-254 327h271l129 -157l129 157h270zM1333 1434l-577 -709l587 -725h-376l-500 618h-6v-618h-303v1434h303v-625h6l510 625h356z" />
    <glyph glyph-name="uni01E9" unicode="&#x1e9;" horiz-adv-x="1118" 
d="M649 1880l-239 -311h-277l-239 311h256l122 -149l121 149h256zM684 522l428 -522h-352l-338 416h-6v-416h-287v1434h287v-820h8l328 377h346z" />
    <glyph glyph-name="AEacute" unicode="&#x1fc;" horiz-adv-x="2009" 
d="M1296 1888h346l-235 -327h-274zM1903 1434v-279h-598v-301h532v-270h-532v-305h598v-279h-902v309h-471l-168 -309h-350l795 1434h1096zM993 1155l-321 -588h329v588h-8z" />
    <glyph glyph-name="aeacute" unicode="&#x1fd;" horiz-adv-x="1787" 
d="M901 1438h326l-221 -312h-261zM1714 524q0 -49 -8 -98h-700q17 -104 77.5 -157.5t151.5 -53.5q66 0 117.5 30.5t77.5 84.5l262 -60q-47 -136 -170.5 -215.5t-286.5 -79.5q-121 0 -221 45t-162 125h-8q-50 -79 -149 -124.5t-232 -45.5q-182 0 -283.5 82t-101.5 217
q0 144 117 230t335 86h211v26q0 164 -168 164q-158 0 -192 -143l-268 49q30 157 151.5 243.5t319.5 86.5q219 0 319 -121h8q124 121 326 121q207 0 342 -134.5t135 -357.5zM1233 780q-77 0 -135 -43t-82 -125h414q-16 85 -69 126.5t-128 41.5zM506 203q105 0 168.5 55
t66.5 145h-182q-190 0 -190 -110q0 -90 137 -90z" />
    <glyph glyph-name="Oslashacute" unicode="&#x1fe;" horiz-adv-x="1630" 
d="M797 1888h346l-236 -327h-274zM1399 1468l168 -168l-152 -151q123 -188 123 -432q0 -214 -92.5 -383.5t-257.5 -264t-373 -94.5q-249 0 -436 138l-148 -148l-165 168l149 152q-123 188 -123 432q0 160 54 298.5t149.5 235.5t230 152t289.5 55q251 0 436 -137zM815 1178
q-182 0 -295.5 -126.5t-113.5 -334.5q0 -120 38 -213l605 604q-103 70 -234 70zM815 256q183 0 296.5 126.5t113.5 334.5q0 118 -39 213l-604 -604q103 -70 233 -70z" />
    <glyph glyph-name="oslashacute" unicode="&#x1ff;" horiz-adv-x="1200" 
d="M588 1438h325l-221 -312h-260zM1038 1065l133 -133l-137 -135q86 -128 86 -301q0 -230 -146 -375.5t-374 -145.5q-173 0 -301 86l-135 -135l-133 133l135 136q-84 133 -84 301q0 230 145 375t373 145q173 0 301 -86zM600 782q-108 0 -177 -79t-69 -207q0 -63 19 -115
l362 362q-61 39 -135 39zM600 209q109 0 178.5 79.5t69.5 207.5q0 63 -19 118l-362 -364q56 -41 133 -41z" />
    <glyph glyph-name="uni0218" unicode="&#x218;" horiz-adv-x="1208" 
d="M612 868l146 -30q201 -44 295 -142t94 -254q0 -207 -146.5 -337t-384.5 -130q-222 0 -373 113.5t-182 302.5l289 70q67 -215 275 -215q100 0 159.5 47.5t59.5 124.5q0 65 -50 104.5t-173 65.5l-148 30q-393 85 -393 400q0 195 143 317.5t377 122.5q212 0 352.5 -103.5
t175.5 -287.5l-288 -72q-43 193 -248 193q-97 0 -154 -44.5t-57 -115.5q0 -60 50 -95.5t181 -64.5zM588 -133q84 0 134.5 -61t49.5 -160q-3 -107 -70 -211h-155q36 53 55 119h-18q-74 0 -120 44.5t-46 110.5q0 65 48.5 111.5t121.5 46.5z" />
    <glyph glyph-name="uni0219" unicode="&#x219;" horiz-adv-x="960" 
d="M485 625l121 -25q155 -28 227 -100.5t72 -186.5q0 -150 -111.5 -244t-304.5 -94q-173 0 -288.5 77.5t-137.5 207.5l256 62q15 -58 64.5 -91.5t116.5 -33.5q61 0 96 25t35 65q0 70 -137 96l-121 25q-154 29 -228.5 99.5t-74.5 186.5q0 142 110.5 232t302.5 90
q167 0 273.5 -71t134.5 -197l-256 -64q-14 53 -57.5 83t-106.5 30q-59 0 -93 -24t-34 -62q0 -30 29.5 -50t111.5 -36zM461 -133q84 0 134.5 -61t49.5 -160q-3 -107 -70 -211h-155q36 53 55 119h-18q-74 0 -120 44.5t-46 110.5q0 65 48.5 111.5t121.5 46.5z" />
    <glyph glyph-name="uni021A" unicode="&#x21a;" horiz-adv-x="1161" 
d="M37 1151v283h1087v-283h-393v-1151h-303v1151h-391zM573 -133q84 0 135 -61t50 -160q-3 -107 -70 -211h-156q37 55 56 119h-19q-74 0 -120 44.5t-46 110.5q0 65 48.5 111.5t121.5 46.5z" />
    <glyph glyph-name="uni021B" unicode="&#x21b;" horiz-adv-x="788" 
d="M637 229q41 0 88 7v-242q-78 -19 -158 -19q-195 0 -289 94t-94 298v372h-153v252h153v236h287v-236h248v-252h-248v-350q0 -90 36.5 -125t129.5 -35zM483 -133q84 0 135 -61t50 -160q-3 -107 -70 -211h-156q37 55 56 119h-19q-74 0 -120 44.5t-46 110.5q0 65 48.5 111.5
t121.5 46.5z" />
    <glyph glyph-name="uni0237" unicode="&#x237;" horiz-adv-x="544" 
d="M74 -483q-65 0 -127 12v248q32 -4 57 -4q67 0 96 31t29 106v1081h287v-1108q0 -195 -81 -280.5t-261 -85.5z" />
    <glyph glyph-name="circumflex" unicode="&#x2c6;" horiz-adv-x="1228" 
d="M754 1438l239 -312h-258l-121 150l-120 -150h-258l239 312h279z" />
    <glyph glyph-name="caron" unicode="&#x2c7;" horiz-adv-x="1228" 
d="M614 1288l121 150h258l-239 -312h-279l-239 312h258z" />
    <glyph glyph-name="breve" unicode="&#x2d8;" horiz-adv-x="1228" 
d="M614 1124q-147 0 -230 78t-83 211v21h213q0 -138 100 -138q101 0 101 138h213v-21q0 -133 -83.5 -211t-230.5 -78z" />
    <glyph glyph-name="dotaccent" unicode="&#x2d9;" horiz-adv-x="1228" 
d="M614 1126q-76 0 -128 50.5t-52 126.5t52 126t128 50t128.5 -50t52.5 -126t-52.5 -126.5t-128.5 -50.5z" />
    <glyph glyph-name="ring" unicode="&#x2da;" horiz-adv-x="1228" 
d="M614 1106q-107 0 -177 66t-70 163t70.5 163.5t176.5 66.5q107 0 177.5 -66.5t70.5 -163.5t-70.5 -163t-177.5 -66zM614 1260q35 0 56.5 20.5t21.5 54.5t-21.5 55t-56.5 21t-56 -21t-21 -55t21 -54.5t56 -20.5z" />
    <glyph glyph-name="ogonek" unicode="&#x2db;" horiz-adv-x="1228" 
d="M686 -451q-120 0 -190 57.5t-70 155.5q0 99 72 177t207 114l96 -53q-79 -54 -110.5 -94t-31.5 -78q0 -64 80 -64q30 0 62 11v-211q-49 -15 -115 -15z" />
    <glyph glyph-name="tilde" unicode="&#x2dc;" horiz-adv-x="1228" 
d="M762 1120q-79 0 -170 76q-55 47 -82 47q-51 0 -51 -115h-187q0 155 51 235.5t146 80.5q79 0 170 -76q52 -47 82 -47q49 0 49 115h186q0 -154 -50.5 -235t-143.5 -81z" />
    <glyph glyph-name="hungarumlaut" unicode="&#x2dd;" horiz-adv-x="1228" 
d="M504 1126h-228l138 312h272zM891 1126h-227l137 312h274z" />
    <glyph glyph-name="gravecomb" unicode="&#x300;" 
d="M-422 1126h-260l-221 312h325z" />
    <glyph glyph-name="acutecomb" unicode="&#x301;" 
d="M-563 1126h-260l155 312h326z" />
    <glyph glyph-name="uni0302" unicode="&#x302;" 
d="M-475 1438l239 -312h-258l-120 150l-121 -150h-258l239 312h279z" />
    <glyph glyph-name="tildecomb" unicode="&#x303;" 
d="M-467 1120q-79 0 -170 76q-55 47 -82 47q-51 0 -51 -115h-186q0 155 50.5 235.5t145.5 80.5q79 0 170 -76q52 -47 82 -47q49 0 49 115h187q0 -154 -51 -235t-144 -81z" />
    <glyph glyph-name="uni0304" unicode="&#x304;" 
d="M-322 1167h-585v213h585v-213z" />
    <glyph glyph-name="uni0306" unicode="&#x306;" 
d="M-614 1124q-147 0 -230.5 78t-83.5 211v21h213q0 -138 101 -138q100 0 100 138h213v-21q0 -133 -83 -211t-230 -78z" />
    <glyph glyph-name="uni0307" unicode="&#x307;" 
d="M-614 1126q-76 0 -128.5 50.5t-52.5 126.5t52.5 126t128.5 50t128 -50t52 -126t-52 -126.5t-128 -50.5z" />
    <glyph glyph-name="uni0308" unicode="&#x308;" 
d="M-840 1135q-68 0 -116 47.5t-48 120.5q0 74 47.5 120.5t116.5 46.5q72 0 120 -46.5t48 -120.5q0 -73 -48.5 -120.5t-119.5 -47.5zM-391 1135q-70 0 -118 47.5t-48 120.5q0 74 48 120.5t118 46.5t118 -46.5t48 -120.5q0 -73 -48 -120.5t-118 -47.5z" />
    <glyph glyph-name="uni030A" unicode="&#x30a;" 
d="M-614 1106q-107 0 -177.5 66t-70.5 163t70.5 163.5t177.5 66.5q106 0 176.5 -66.5t70.5 -163.5t-70 -163t-177 -66zM-614 1260q35 0 56 20.5t21 54.5t-21 55t-56 21t-56.5 -21t-21.5 -55t21.5 -54.5t56.5 -20.5z" />
    <glyph glyph-name="uni030B" unicode="&#x30b;" 
d="M-725 1126h-227l137 312h272zM-338 1126h-227l137 312h274z" />
    <glyph glyph-name="uni030C" unicode="&#x30c;" 
d="M-614 1288l120 150h258l-239 -312h-279l-239 312h258z" />
    <glyph glyph-name="uni0315" unicode="&#x315;" 
d="M-618 1458q78 0 126.5 -61t47.5 -158q-1 -98 -59.5 -192.5t-166.5 -176.5l-78 86q115 103 142 187h-19q-69 0 -113 42.5t-44 108.5q0 70 47 117t117 47z" />
    <glyph glyph-name="uni0326" unicode="&#x326;" 
d="M-621 -133q84 0 135 -61t50 -160q-3 -107 -70 -211h-156q37 55 56 119h-19q-74 0 -120 44.5t-46 110.5q0 65 48.5 111.5t121.5 46.5z" />
    <glyph glyph-name="uni0327" unicode="&#x327;" 
d="M-602 0v-92q86 -13 132 -60.5t46 -121.5q0 -94 -74.5 -149.5t-208.5 -55.5q-55 0 -108 12v162q27 -4 72 -4q52 0 73 12t21 37q0 24 -31.5 35.5t-120.5 11.5l21 213h178z" />
    <glyph glyph-name="uni0328" unicode="&#x328;" 
d="M-543 -451q-120 0 -190 57.5t-70 155.5q0 99 72 177t207 114l96 -53q-79 -54 -110 -94t-31 -78q0 -64 80 -64q29 0 61 11v-211q-49 -15 -115 -15z" />
    <glyph glyph-name="uni03BC" unicode="&#x3bc;" horiz-adv-x="1181" 
d="M768 461v530h287v-991h-258l-11 102h-8q-64 -127 -205 -127q-88 0 -157 60v-494h-287v1450h287v-547q0 -204 172 -204q85 0 132.5 56.5t47.5 164.5z" />
    <glyph glyph-name="pi" unicode="&#x3c0;" horiz-adv-x="1196" 
d="M1102 254h45v-254h-127q-159 0 -234 74.5t-75 234.5v418h-295v-727h-287v991h868v-631q0 -58 24.5 -82t80.5 -24z" />
    <glyph glyph-name="uni1E20" unicode="&#x1e20;" horiz-adv-x="1583" 
d="M504 1829h622v-225h-622v225zM836 543v254h637v-797h-228l-16 170h-8q-72 -95 -187.5 -145t-255.5 -50q-145 0 -273.5 54t-221.5 149.5t-147 234.5t-54 302q0 218 94 387.5t261 262.5t378 93q239 0 413 -118.5t234 -319.5l-303 -86q-35 117 -127 181.5t-223 64.5
q-183 0 -298.5 -127.5t-115.5 -337.5q0 -211 116.5 -336t303.5 -125q147 0 249 78t130 211h-358z" />
    <glyph glyph-name="uni1E21" unicode="&#x1e21;" horiz-adv-x="1226" 
d="M326 1380h585v-213h-585v213zM825 870l11 121h262v-973q0 -236 -139.5 -368.5t-378.5 -132.5q-193 0 -325.5 89.5t-170.5 256.5l268 71q58 -165 234 -165q110 0 172.5 65.5t62.5 183.5v140h-6q-37 -64 -118 -103t-177 -39q-189 0 -314.5 139t-125.5 359t126 361t314 141
q98 0 179 -40t118 -106h8zM594 272q99 0 162 66.5t63 175.5t-63 176.5t-162 67.5q-98 0 -160.5 -67.5t-62.5 -176.5t62.5 -175.5t160.5 -66.5z" />
    <glyph glyph-name="uni1E30" unicode="&#x1e30;" horiz-adv-x="1353" 
d="M694 1888h346l-235 -327h-275zM1333 1434l-577 -709l587 -725h-376l-500 618h-6v-618h-303v1434h303v-625h6l510 625h356z" />
    <glyph glyph-name="uni1E31" unicode="&#x1e31;" horiz-adv-x="1118" 
d="M258 1880h326l-219 -311h-261zM684 522l428 -522h-352l-338 416h-6v-416h-287v1434h287v-820h8l328 377h346z" />
    <glyph glyph-name="uni1E3E" unicode="&#x1e3e;" horiz-adv-x="1884" 
d="M924 1888h346l-236 -327h-274zM946 455l459 979h321v-1434h-294v850h-9l-391 -850h-180l-391 850h-6v-850h-297v1434h321l459 -979h8z" />
    <glyph glyph-name="uni1E3F" unicode="&#x1e3f;" horiz-adv-x="1751" 
d="M864 1438h326l-221 -312h-260zM1298 1016q155 0 244.5 -103.5t89.5 -296.5v-616h-286v539q0 213 -150 213q-78 0 -125 -56.5t-47 -165.5v-530h-287v539q0 112 -37 162.5t-110 50.5q-80 0 -127 -57t-47 -165v-530h-287v991h262l10 -121h9q44 67 123 106.5t169 39.5
q183 0 267 -158h8q53 73 138 115.5t183 42.5z" />
    <glyph glyph-name="uni1E40" unicode="&#x1e40;" horiz-adv-x="1884" 
d="M942 1559q-79 0 -134.5 52.5t-55.5 133.5t55.5 133.5t134.5 52.5t135 -53t56 -133t-56 -133t-135 -53zM946 455l459 979h321v-1434h-294v850h-9l-391 -850h-180l-391 850h-6v-850h-297v1434h321l459 -979h8z" />
    <glyph glyph-name="uni1E41" unicode="&#x1e41;" horiz-adv-x="1751" 
d="M877 1126q-76 0 -128.5 50.5t-52.5 126.5t52.5 126t128.5 50t128 -50t52 -126t-52 -126.5t-128 -50.5zM1298 1016q155 0 244.5 -103.5t89.5 -296.5v-616h-286v539q0 213 -150 213q-78 0 -125 -56.5t-47 -165.5v-530h-287v539q0 112 -37 162.5t-110 50.5q-80 0 -127 -57
t-47 -165v-530h-287v991h262l10 -121h9q44 67 123 106.5t169 39.5q183 0 267 -158h8q53 73 138 115.5t183 42.5z" />
    <glyph glyph-name="uni1E44" unicode="&#x1e44;" horiz-adv-x="1523" 
d="M762 1559q-79 0 -135 53t-56 133t56 133t135 53t134.5 -52.5t55.5 -133.5t-55.5 -133.5t-134.5 -52.5zM1063 524v910h303v-1434h-307l-592 909h-6v-909h-303v1434h307l590 -910h8z" />
    <glyph glyph-name="uni1E45" unicode="&#x1e45;" horiz-adv-x="1171" 
d="M590 1126q-76 0 -128 50.5t-52 126.5t52 126t128 50t128 -50t52 -126t-52 -126.5t-128 -50.5zM715 1016q156 0 246 -101t90 -284v-631h-287v537q0 114 -40.5 164.5t-121.5 50.5q-87 0 -136.5 -56t-49.5 -166v-530h-287v991h262l10 -121h9q44 67 126 106.5t179 39.5z" />
    <glyph glyph-name="Wgrave" unicode="&#x1e80;" horiz-adv-x="2048" 
d="M1194 1561h-276l-234 327h344zM735 0h-303l-405 1434h313l256 -949h6l287 949h270l287 -949h6l256 949h315l-407 -1434h-301l-287 973h-8z" />
    <glyph glyph-name="wgrave" unicode="&#x1e81;" horiz-adv-x="1665" 
d="M987 1126h-260l-221 312h325zM631 0h-301l-303 991h297l170 -612h8l200 612h261l200 -612h8l170 612h297l-305 -991h-299l-198 627h-7z" />
    <glyph glyph-name="Wacute" unicode="&#x1e82;" horiz-adv-x="2048" 
d="M1116 1561h-274l164 327h346zM735 0h-303l-405 1434h313l256 -949h6l287 949h270l287 -949h6l256 949h315l-407 -1434h-301l-287 973h-8z" />
    <glyph glyph-name="wacute" unicode="&#x1e83;" horiz-adv-x="1665" 
d="M926 1126h-260l155 312h326zM631 0h-301l-303 991h297l170 -612h8l200 612h261l200 -612h8l170 612h297l-305 -991h-299l-198 627h-7z" />
    <glyph glyph-name="Wdieresis" unicode="&#x1e84;" horiz-adv-x="2048" 
d="M784 1567q-73 0 -125.5 50.5t-52.5 127.5t52.5 128.5t125.5 51.5t125 -51.5t52 -128.5t-52 -127.5t-125 -50.5zM1264 1567q-73 0 -125 50.5t-52 127.5t52 128.5t125 51.5t125.5 -51.5t52.5 -128.5t-52.5 -127.5t-125.5 -50.5zM735 0h-303l-405 1434h313l256 -949h6
l287 949h270l287 -949h6l256 949h315l-407 -1434h-301l-287 973h-8z" />
    <glyph glyph-name="wdieresis" unicode="&#x1e85;" horiz-adv-x="1665" 
d="M608 1135q-68 0 -116 47.5t-48 120.5q0 74 47.5 120.5t116.5 46.5q72 0 120 -46.5t48 -120.5q0 -73 -48.5 -120.5t-119.5 -47.5zM1057 1135q-70 0 -118 47.5t-48 120.5q0 74 48 120.5t118 46.5t118 -46.5t48 -120.5q0 -73 -48 -120.5t-118 -47.5zM631 0h-301l-303 991
h297l170 -612h8l200 612h261l200 -612h8l170 612h297l-305 -991h-299l-198 627h-7z" />
    <glyph glyph-name="uni1E90" unicode="&#x1e90;" horiz-adv-x="1169" 
d="M711 1561l-129 157l-129 -157h-271l254 327h291l254 -327h-270zM1071 1196l-608 -913h624v-283h-1005v238l608 913h-592v283h973v-238z" />
    <glyph glyph-name="uni1E91" unicode="&#x1e91;" horiz-adv-x="952" 
d="M598 1126l-121 150l-121 -150h-258l240 312h278l240 -312h-258zM868 782l-422 -530h437v-252h-813v209l422 530h-414v252h790v-209z" />
    <glyph glyph-name="uni1E9E" unicode="&#x1e9e;" horiz-adv-x="1417" 
d="M1300 1190l-294 -412q348 -60 348 -387q0 -197 -125.5 -306.5t-362.5 -109.5q-112 0 -223 25v279q116 -25 197 -25q202 0 202 147q0 77 -63 112.5t-215 35.5h-84v242l244 339q-79 50 -195 50q-289 0 -289 -314v-866h-301v891q0 278 147 422.5t429 144.5
q200 0 350.5 -71.5t234.5 -196.5z" />
    <glyph glyph-name="Ygrave" unicode="&#x1ef2;" horiz-adv-x="1290" 
d="M815 1561h-276l-234 327h344zM797 0h-303v580l-488 854h338l299 -549h6l299 549h336l-487 -854v-580z" />
    <glyph glyph-name="ygrave" unicode="&#x1ef3;" horiz-adv-x="1167" 
d="M584 1438l155 -312h-260l-221 312h326zM754 498v493h286v-995q0 -227 -130.5 -353t-356.5 -126q-186 0 -311.5 86t-155.5 245l266 72q47 -151 207 -151q95 0 150 57.5t55 169.5v166h-8q-41 -67 -122.5 -106.5t-176.5 -39.5q-155 0 -244.5 103t-89.5 295v577h287v-499
q0 -112 39.5 -161.5t117.5 -49.5q88 0 137.5 55t49.5 162z" />
    <glyph glyph-name="uni2000" unicode="&#x2000;" horiz-adv-x="1024" 
 />
    <glyph glyph-name="uni2001" unicode="&#x2001;" horiz-adv-x="2048" 
 />
    <glyph glyph-name="uni2002" unicode="&#x2002;" horiz-adv-x="1024" 
 />
    <glyph glyph-name="uni2003" unicode="&#x2003;" horiz-adv-x="2048" 
 />
    <glyph glyph-name="uni2009" unicode="&#x2009;" horiz-adv-x="307" 
 />
    <glyph glyph-name="uni200A" unicode="&#x200a;" horiz-adv-x="153" 
 />
    <glyph glyph-name="uni200B" unicode="&#x200b;" 
 />
    <glyph glyph-name="endash" unicode="&#x2013;" horiz-adv-x="1024" 
d="M1024 444h-1024v254h1024v-254z" />
    <glyph glyph-name="emdash" unicode="&#x2014;" horiz-adv-x="2048" 
d="M2048 444h-2048v254h2048v-254z" />
    <glyph glyph-name="quoteleft" unicode="&#x2018;" horiz-adv-x="446" 
d="M233 1186q69 0 114.5 -43t45.5 -109q0 -70 -47.5 -117t-116.5 -47q-79 0 -128.5 61.5t-47.5 158.5q3 196 228 368l77 -86q-105 -92 -135 -186h10z" />
    <glyph glyph-name="quoteright" unicode="&#x2019;" horiz-adv-x="446" 
d="M217 1458q79 0 128.5 -61t47.5 -158q-3 -198 -227 -369l-78 86q107 94 137 187h-12q-69 0 -114.5 42.5t-45.5 108.5q0 70 47.5 117t116.5 47z" />
    <glyph glyph-name="quotesinglbase" unicode="&#x201a;" horiz-adv-x="520" 
d="M254 315q80 0 128.5 -60.5t47.5 -158.5q-2 -97 -60 -191.5t-167 -176.5l-78 86q105 92 135 186h-10q-69 0 -114.5 43t-45.5 109q0 70 47.5 116.5t116.5 46.5z" />
    <glyph glyph-name="quotedblleft" unicode="&#x201c;" horiz-adv-x="870" 
d="M233 1186q69 0 114.5 -43t45.5 -109q0 -70 -47.5 -117t-116.5 -47q-79 0 -128.5 61.5t-47.5 158.5q3 196 228 368l77 -86q-105 -92 -135 -186h10zM657 1186q69 0 114.5 -43t45.5 -109q0 -70 -47.5 -117t-116.5 -47q-79 0 -128.5 61.5t-47.5 158.5q3 199 228 368l77 -86
q-105 -92 -135 -186h10z" />
    <glyph glyph-name="quotedblright" unicode="&#x201d;" horiz-adv-x="870" 
d="M217 1458q79 0 128.5 -61t47.5 -158q-3 -198 -227 -369l-78 86q107 94 137 187h-12q-69 0 -114.5 42.5t-45.5 108.5q0 70 47.5 117t116.5 47zM641 1458q79 0 128.5 -61t47.5 -158q-3 -98 -61.5 -192.5t-165.5 -176.5l-78 86q106 95 135 187h-10q-69 0 -114.5 42.5
t-45.5 108.5q0 70 47.5 117t116.5 47z" />
    <glyph glyph-name="quotedblbase" unicode="&#x201e;" horiz-adv-x="944" 
d="M254 315q80 0 128.5 -60.5t47.5 -158.5q-2 -97 -60 -191.5t-167 -176.5l-78 86q105 92 135 186h-10q-69 0 -114.5 43t-45.5 109q0 70 47.5 116.5t116.5 46.5zM678 315q80 0 128.5 -60.5t47.5 -158.5q-3 -97 -61.5 -191.5t-165.5 -176.5l-78 86q106 96 135 186h-10
q-69 0 -114.5 43t-45.5 109q0 70 47.5 116.5t116.5 46.5z" />
    <glyph glyph-name="dagger" unicode="&#x2020;" horiz-adv-x="1060" 
d="M666 1067h315v-264h-315v-1065h-271v1065h-315v264h315v453h271v-453z" />
    <glyph glyph-name="daggerdbl" unicode="&#x2021;" horiz-adv-x="1101" 
d="M1001 1067v-264h-315v-350h275v-265h-275v-450h-270v450h-275v265h275v350h-316v264h316v453h270v-453h315z" />
    <glyph glyph-name="bullet" unicode="&#x2022;" horiz-adv-x="1050" 
d="M524 369q-144 0 -241 98.5t-97 241.5q0 142 97 240t241 98q145 0 242.5 -98t97.5 -240q0 -143 -97.5 -241.5t-242.5 -98.5z" />
    <glyph glyph-name="ellipsis" unicode="&#x2026;" horiz-adv-x="1650" 
d="M283 -18q-85 0 -139 53.5t-54 138.5t54 139t139 54q83 0 136.5 -54t53.5 -139t-53.5 -138.5t-136.5 -53.5zM825 -18q-83 0 -136.5 53.5t-53.5 138.5t53.5 139t136.5 54t137 -54t54 -139q0 -84 -54 -138t-137 -54zM1368 -18q-83 0 -136.5 53.5t-53.5 138.5t53.5 139
t136.5 54q85 0 139 -54t54 -139t-54 -138.5t-139 -53.5z" />
    <glyph glyph-name="perthousand" unicode="&#x2030;" horiz-adv-x="2719" 
d="M444 702q-164 0 -273.5 108t-109.5 271q0 161 109.5 269t273.5 108t273.5 -108t109.5 -269q0 -163 -109.5 -271t-273.5 -108zM614 0h-270l905 1434h269zM444 909q71 0 115.5 48t44.5 124q0 75 -44 122.5t-116 47.5t-115.5 -47.5t-43.5 -122.5q0 -76 44 -124t115 -48z
M1419 -25q-164 0 -273.5 108t-109.5 269q0 163 109.5 271t273.5 108t273.5 -108t109.5 -271q0 -161 -109.5 -269t-273.5 -108zM2275 -25q-164 0 -273.5 108t-109.5 269q0 163 109.5 271t273.5 108t273.5 -108t109.5 -271q0 -161 -109.5 -269t-273.5 -108zM1419 182
q71 0 115.5 47.5t44.5 122.5q0 76 -44.5 124t-115.5 48q-72 0 -115.5 -47.5t-43.5 -124.5q0 -75 43.5 -122.5t115.5 -47.5zM2275 182q72 0 116 47.5t44 122.5q0 77 -44 124.5t-116 47.5t-115.5 -47.5t-43.5 -124.5q0 -75 43.5 -122.5t115.5 -47.5z" />
    <glyph glyph-name="guilsinglleft" unicode="&#x2039;" horiz-adv-x="772" 
d="M383 1032h311l-313 -452l313 -451h-311l-317 451z" />
    <glyph glyph-name="guilsinglright" unicode="&#x203a;" horiz-adv-x="772" 
d="M76 1032h313l316 -452l-316 -451h-313l315 451z" />
    <glyph glyph-name="fraction" unicode="&#x2044;" horiz-adv-x="1173" 
d="M268 0h-268l903 1434h271z" />
    <glyph glyph-name="uni2070" unicode="&#x2070;" horiz-adv-x="819" 
d="M410 541q-163 0 -253.5 89t-90.5 247v245q0 158 90.5 247t253.5 89q164 0 255 -89.5t91 -246.5v-245q0 -157 -91 -246.5t-255 -89.5zM410 748q55 0 84.5 30t29.5 88v267q0 58 -29.5 88t-84.5 30t-85 -30t-30 -88v-267q0 -58 30 -88t85 -30z" />
    <glyph glyph-name="uni2074" unicode="&#x2074;" horiz-adv-x="821" 
d="M684 545h-209v149h-416v178l355 562h270v-547h94v-193h-94v-149zM475 1186l-190 -299h190v299z" />
    <glyph glyph-name="uni2075" unicode="&#x2075;" horiz-adv-x="772" 
d="M389 530q-133 0 -223 70t-103 191l220 40q7 -44 37.5 -69t72.5 -25q47 0 76 30.5t29 80.5t-28.5 80t-74.5 30q-68 0 -98 -51h-221l63 527h525v-205h-338l-19 -129q59 33 135 33q122 0 200.5 -80.5t78.5 -212.5q0 -141 -91.5 -225.5t-240.5 -84.5z" />
    <glyph glyph-name="uni2076" unicode="&#x2076;" horiz-adv-x="790" 
d="M397 530q-144 0 -245 96t-101 240q0 60 24.5 123t82.5 150l198 295h267l-177 -258q11 0 23 -2q117 -11 194.5 -96.5t77.5 -211.5q0 -143 -100 -239.5t-244 -96.5zM397 737q53 0 86 35t33 92q0 55 -33 90t-86 35t-87 -35t-34 -90q0 -57 34 -92t87 -35z" />
    <glyph glyph-name="uni2077" unicode="&#x2077;" horiz-adv-x="690" 
d="M365 545h-271l293 672h-344v217h600v-207z" />
    <glyph glyph-name="uni2078" unicode="&#x2078;" horiz-adv-x="784" 
d="M391 541q-155 0 -243.5 72t-88.5 190q0 69 34 125t97 90q-118 66 -118 190q0 109 88 179.5t231 70.5q145 0 233.5 -71t88.5 -179q0 -122 -117 -190q129 -69 129 -215q0 -118 -89 -190t-245 -72zM391 1096q43 0 69.5 25t26.5 63q0 40 -26.5 64t-69.5 24q-42 0 -69 -24.5
t-27 -63.5q0 -38 27.5 -63t68.5 -25zM391 727q45 0 76 27t31 69q0 41 -30.5 68t-76.5 27q-45 0 -75.5 -27t-30.5 -68q0 -42 31 -69t75 -27z" />
    <glyph glyph-name="uni2079" unicode="&#x2079;" horiz-adv-x="790" 
d="M438 555h-268l176 258q-8 0 -20 2q-117 11 -196 96.5t-79 210.5q0 143 101 239.5t245 96.5q143 0 243.5 -96t100.5 -240q0 -62 -23.5 -124t-82.5 -148zM397 999q53 0 87 35t34 90q0 57 -34 92t-87 35t-87 -35t-34 -92q0 -55 34 -90t87 -35z" />
    <glyph glyph-name="Euro" unicode="&#x20ac;" horiz-adv-x="1280" 
d="M760 227q77 0 131.5 53.5t75.5 155.5l270 -67q-35 -181 -167.5 -287.5t-309.5 -106.5q-200 0 -343 135t-190 377h-159v162h141q-2 23 -2 68q0 44 2 67h-141v162h159q49 242 191 377t342 135q176 0 309 -106t168 -287l-274 -68q-18 103 -72.5 156t-130.5 53
q-86 0 -149 -65t-93 -195h356v-162h-376q-2 -23 -2 -67q0 -45 2 -68h376v-162h-356q30 -129 93.5 -194.5t148.5 -65.5z" />
    <glyph glyph-name="uni20BF" unicode="&#x20bf;" horiz-adv-x="1300" 
d="M1221 397q0 -154 -83 -253t-239 -130v-194h-207v180h-153v-180h-207v180h-174v1434h174v180h207v-180h135h18v180h207v-213q129 -44 198.5 -137.5t69.5 -221.5q0 -214 -188 -303v-6q242 -71 242 -336zM682 1180h-227v-336h227q95 0 145 42t50 124q0 79 -50.5 124.5
t-144.5 45.5zM455 254h266q188 0 188 170t-188 170h-266v-340z" />
    <glyph glyph-name="uni2116" unicode="&#x2116;" horiz-adv-x="2529" 
d="M1999 569q-197 0 -322 124t-125 321q0 196 125 320t322 124q196 0 321 -123.5t125 -320.5t-125 -321t-321 -124zM1055 524h8v910h303v-1434h-307l-592 909h-6v-909h-303v1434h307zM1999 1214q-76 0 -125 -54.5t-49 -145.5q0 -92 49 -147.5t125 -55.5t125 56t49 147
q0 90 -49 145t-125 55zM2322 186h-647v252h647v-252z" />
    <glyph glyph-name="trademark" unicode="&#x2122;" horiz-adv-x="1566" 
d="M221 1235h-162v199h533v-199h-162v-428h-209v428zM1081 1159l158 275h240v-627h-195v358l-131 -225h-145l-129 223v-356h-195v627h238z" />
    <glyph glyph-name="uni2126" unicode="&#x2126;" horiz-adv-x="1622" 
d="M1503 770q0 -172 -70 -309.5t-198 -206.5h268v-254h-602v283q148 77 229.5 198t81.5 279q0 191 -112 311.5t-289 120.5t-289 -120.5t-112 -311.5q0 -158 81.5 -279t229.5 -198v-283h-602v254h268q-128 69 -198 206.5t-70 309.5q0 196 92 354t250 246t350 88t350 -88
t250 -246t92 -354z" />
    <glyph glyph-name="estimated" unicode="&#x212e;" horiz-adv-x="1669" 
d="M834 0q-145 0 -275.5 52t-228.5 147q-97 94 -152 228.5t-55 289.5t55 291.5t152 230.5q98 92 229 143.5t275 51.5t274 -51.5t227 -143.5q98 -93 153.5 -230t55.5 -292v-25h-1196v-309q0 -72 20.5 -119t71.5 -84q171 -127 394 -127q172 0 315 75t231 210l43 -33
q-97 -145 -251.5 -225t-337.5 -80zM348 1049v-308h981v299q0 71 -20 120.5t-68 86.5q-177 133 -407 133q-223 0 -394 -127q-51 -37 -71.5 -84t-20.5 -120z" />
    <glyph glyph-name="arrowleft" unicode="&#x2190;" horiz-adv-x="1454" 
d="M543 852h841v-270h-841l248 -250l-177 -180l-542 565l542 565l177 -180z" />
    <glyph glyph-name="arrowup" unicode="&#x2191;" horiz-adv-x="1454" 
d="M727 1378l565 -542l-180 -179l-250 250v-841h-270v841l-250 -250l-180 179z" />
    <glyph glyph-name="arrowright" unicode="&#x2192;" horiz-adv-x="1454" 
d="M664 1102l176 180l542 -565l-542 -565l-176 180l247 250h-841v270h841z" />
    <glyph glyph-name="arrowdown" unicode="&#x2193;" horiz-adv-x="1454" 
d="M862 526l250 250l180 -178l-565 -543l-565 543l180 178l250 -250v842h270v-842z" />
    <glyph glyph-name="uni2196" unicode="&#x2196;" horiz-adv-x="1454" 
d="M653 983l594 -594l-192 -192l-594 594v-351l-254 -2l16 783l783 16l-2 -254h-351z" />
    <glyph glyph-name="uni2197" unicode="&#x2197;" horiz-adv-x="1454" 
d="M1231 1221l16 -783l-254 2v351l-594 -594l-192 192l594 594h-350l-2 254z" />
    <glyph glyph-name="uni2198" unicode="&#x2198;" horiz-adv-x="1454" 
d="M993 643v350l254 2l-16 -782l-782 -16l2 254h350l-594 593l192 193z" />
    <glyph glyph-name="uni2199" unicode="&#x2199;" horiz-adv-x="1454" 
d="M1247 1044l-594 -593h351l2 -254l-783 16l-16 782l254 -2v-350l594 594z" />
    <glyph glyph-name="partialdiff" unicode="&#x2202;" horiz-adv-x="1284" 
d="M580 1458q618 0 618 -774q0 -392 -184 -567q-155 -142 -391 -142q-249 0 -398 137t-149 355q0 206 140.5 341.5t356.5 135.5q206 0 320 -131h8q-15 209 -94.5 296t-251.5 87q-137 0 -266 -59l-60 245q162 76 351 76zM625 225q113 0 181 66.5t68 175.5q0 105 -67.5 168
t-181.5 63t-183 -63.5t-69 -167.5q0 -109 69 -175.5t183 -66.5z" />
    <glyph glyph-name="uni2206" unicode="&#x2206;" horiz-adv-x="1435" 
d="M618 1434h201l580 -1295l-88 -139h-1186l-86 139zM408 270h622l-311 713z" />
    <glyph glyph-name="product" unicode="&#x220f;" horiz-adv-x="1355" 
d="M158 -262v1782h1040v-1782h-291v1513h-456v-1513h-293z" />
    <glyph glyph-name="summation" unicode="&#x2211;" horiz-adv-x="1099" 
d="M86 1520h965v-269h-625l451 -622l-451 -623h625v-268h-965v268l451 623l-451 622v269z" />
    <glyph glyph-name="minus" unicode="&#x2212;" horiz-adv-x="1331" 
d="M1130 518h-929v262h929v-262z" />
    <glyph glyph-name="radical" unicode="&#x221a;" horiz-adv-x="1337" 
d="M635 190l377 1330h299l-512 -1782h-297l-254 713h-203v266h408z" />
    <glyph glyph-name="infinity" unicode="&#x221e;" horiz-adv-x="1548" 
d="M1100 1073q174 0 277.5 -110t103.5 -281t-103.5 -281t-277.5 -110q-202 0 -326 174q-60 -82 -138 -128t-190 -46q-172 0 -276 110.5t-104 280.5t104 280.5t276 110.5q112 0 190 -46t138 -128q124 174 326 174zM449 508q63 0 107 44t91 130q-47 86 -91 130t-107 44
q-65 0 -108.5 -48.5t-43.5 -125.5t43.5 -125.5t108.5 -48.5zM1100 508q65 0 107 48.5t42 125.5t-42 125.5t-107 48.5q-63 0 -108.5 -44.5t-92.5 -129.5q47 -85 92.5 -129.5t108.5 -44.5z" />
    <glyph glyph-name="integral" unicode="&#x222b;" horiz-adv-x="833" 
d="M250 -262h-205v254h107q64 0 91 26.5t27 90.5v1114q0 297 314 297h204v-254h-106q-64 0 -91.5 -26.5t-27.5 -90.5v-1114q0 -297 -313 -297z" />
    <glyph glyph-name="approxequal" unicode="&#x2248;" horiz-adv-x="1331" 
d="M881 690q-75 0 -215 48t-215 48q-66 0 -122.5 -20.5t-127.5 -67.5v263q118 86 254 86q72 0 214 -48.5t210 -48.5q71 0 137 25.5t114 64.5v-262q-122 -88 -249 -88zM881 252q-75 0 -215 49t-215 49q-67 0 -124.5 -21.5t-125.5 -68.5v262q119 88 254 88q72 0 214 -49
t210 -49q72 0 138 25.5t113 64.5v-262q-126 -88 -249 -88z" />
    <glyph glyph-name="notequal" unicode="&#x2260;" horiz-adv-x="1331" 
d="M1130 999v-262h-321l-74 -176h395v-262h-505l-90 -215h-213l90 215h-211v262h321l74 176h-395v262h506l90 215h213l-90 -215h210z" />
    <glyph glyph-name="lessequal" unicode="&#x2264;" horiz-adv-x="1331" 
d="M201 928l929 319v-272l-579 -176l579 -176v-275l-929 322v258zM1130 0h-929v262h929v-262z" />
    <glyph glyph-name="greaterequal" unicode="&#x2265;" horiz-adv-x="1331" 
d="M201 975v272l929 -319v-258l-929 -322v275l579 176zM1130 0h-929v262h929v-262z" />
    <glyph glyph-name="filledbox" unicode="&#x25a0;" horiz-adv-x="1843" 
d="M1638 0h-1433v1434h1433v-1434z" />
    <glyph glyph-name="triagup" unicode="&#x25b2;" horiz-adv-x="1843" 
d="M1638 0h-1433l717 1434z" />
    <glyph glyph-name="triagdn" unicode="&#x25bc;" horiz-adv-x="1843" 
d="M1638 1434l-716 -1434l-717 1434h1433z" />
    <glyph glyph-name="uni25C6" unicode="&#x25c6;" horiz-adv-x="1843" 
d="M1638 715l-718 -715l-715 715l715 719z" />
    <glyph glyph-name="lozenge" unicode="&#x25ca;" horiz-adv-x="1335" 
d="M782 0h-229l-514 717l514 717h229l514 -717zM369 715l297 -416l301 420l-299 416z" />
    <glyph glyph-name="uni25CF" unicode="&#x25cf;" horiz-adv-x="1843" 
d="M922 0q-145 0 -278 57t-229 153t-153 229t-57 278t57 278t153 229t229 153t278 57t278 -57t228.5 -153t152.5 -228.5t57 -278.5t-57 -278.5t-152.5 -228.5t-228.5 -153t-278 -57z" />
    <glyph glyph-name="uni2610" unicode="&#x2610;" horiz-adv-x="1843" 
d="M1638 0h-1433v1434h1433v-1434zM371 1278v-1122h1102v1122h-1102z" />
    <glyph glyph-name="uni2611" unicode="&#x2611;" horiz-adv-x="1843" 
d="M205 0v1434h1433v-1434h-1433zM371 156h1102v1122h-1102v-1122zM1135 1180l217 -125l-465 -803l-393 227l131 228l176 -103z" />
    <glyph glyph-name="uni2612" unicode="&#x2612;" horiz-adv-x="1843" 
d="M1638 0h-1433v1434h1433v-1434zM371 1278v-1122h1102v1122h-1102zM922 547l-283 -283l-170 170l283 283l-283 282l170 170l283 -282l282 282l170 -170l-282 -282l282 -283l-170 -170z" />
    <glyph glyph-name="heart" unicode="&#x2665;" horiz-adv-x="1843" 
d="M922 98q-65 63 -150.5 127t-153.5 107t-139 98.5t-118 108.5t-77 130t-30 169q0 97 32 176t84 127.5t115.5 74t130.5 25.5q119 0 205.5 -73t96.5 -205h8q10 132 96 205t205 73q67 0 130.5 -25.5t115.5 -74t84 -127.5t32 -176q0 -92 -30 -169t-77 -130t-117.5 -108.5
t-138.5 -98.5t-153.5 -107t-150.5 -127z" />
    <glyph glyph-name="uni2B51" unicode="&#x2b51;" horiz-adv-x="1843" 
d="M920 338l-474 -344l183 557l-469 340h581l179 553l178 -555h585l-473 -342l181 -553z" />
    <glyph glyph-name="uni004A0301" horiz-adv-x="1210" 
d="M639 1888h346l-235 -327h-275zM211 1151v283h860v-934q0 -259 -131.5 -392t-378.5 -133q-222 0 -352.5 106.5t-155.5 309.5l295 68q24 -108 77 -155.5t136 -47.5q100 0 153.5 64t53.5 194v637h-557z" />
    <glyph glyph-name="i.loclTRK" horiz-adv-x="544" 
d="M272 1126q-76 0 -128 50.5t-52 126.5t52 126t128 50t128.5 -50t52.5 -126t-52.5 -126.5t-128.5 -50.5zM416 0h-287v991h287v-991z" />
    <glyph glyph-name="uni006A0301" horiz-adv-x="544" 
d="M365 1126h-261l113 312h326zM74 -483q-65 0 -127 12v248q32 -4 57 -4q67 0 96 31t29 106v1081h287v-1108q0 -195 -81 -280.5t-261 -85.5z" />
    <glyph glyph-name="germandbls.calt" horiz-adv-x="1417" 
d="M1300 1190l-294 -412q348 -60 348 -387q0 -197 -125.5 -306.5t-362.5 -109.5q-112 0 -223 25v279q116 -25 197 -25q202 0 202 147q0 77 -63 112.5t-215 35.5h-84v242l244 339q-79 50 -195 50q-289 0 -289 -314v-866h-301v891q0 278 147 422.5t429 144.5
q200 0 350.5 -71.5t234.5 -196.5z" />
    <glyph glyph-name="a.ss01" horiz-adv-x="1222" 
d="M821 870l10 121h263v-991h-263l-10 121h-8q-37 -66 -117.5 -106t-177.5 -40q-188 0 -315 144.5t-127 376.5t127 376t315 144q97 0 177.5 -40t117.5 -106h8zM592 233q100 0 162.5 70.5t62.5 192.5t-62.5 192t-162.5 70t-162.5 -70t-62.5 -192t62.5 -192.5t162.5 -70.5z
" />
    <glyph glyph-name="aacute.ss01" horiz-adv-x="1222" 
d="M606 1438h326l-221 -312h-260zM821 870l10 121h263v-991h-263l-10 121h-8q-37 -66 -117.5 -106t-177.5 -40q-188 0 -315 144.5t-127 376.5t127 376t315 144q97 0 177.5 -40t117.5 -106h8zM592 233q100 0 162.5 70.5t62.5 192.5t-62.5 192t-162.5 70t-162.5 -70
t-62.5 -192t62.5 -192.5t162.5 -70.5z" />
    <glyph glyph-name="abreve.ss01" horiz-adv-x="1222" 
d="M618 1124q-147 0 -230 78t-83 211v21h213q0 -138 100 -138q101 0 101 138h213v-21q0 -133 -83.5 -211t-230.5 -78zM821 870l10 121h263v-991h-263l-10 121h-8q-37 -66 -117.5 -106t-177.5 -40q-188 0 -315 144.5t-127 376.5t127 376t315 144q97 0 177.5 -40t117.5 -106h8
zM592 233q100 0 162.5 70.5t62.5 192.5t-62.5 192t-162.5 70t-162.5 -70t-62.5 -192t62.5 -192.5t162.5 -70.5z" />
    <glyph glyph-name="uni01CE.ss01" horiz-adv-x="1222" 
d="M997 1438l-239 -312h-279l-239 312h258l120 -150l121 150h258zM821 870l10 121h263v-991h-263l-10 121h-8q-37 -66 -117.5 -106t-177.5 -40q-188 0 -315 144.5t-127 376.5t127 376t315 144q97 0 177.5 -40t117.5 -106h8zM592 233q100 0 162.5 70.5t62.5 192.5t-62.5 192
t-162.5 70t-162.5 -70t-62.5 -192t62.5 -192.5t162.5 -70.5z" />
    <glyph glyph-name="acircumflex.ss01" horiz-adv-x="1222" 
d="M739 1126l-121 150l-120 -150h-258l239 312h279l239 -312h-258zM821 870l10 121h263v-991h-263l-10 121h-8q-37 -66 -117.5 -106t-177.5 -40q-188 0 -315 144.5t-127 376.5t127 376t315 144q97 0 177.5 -40t117.5 -106h8zM592 233q100 0 162.5 70.5t62.5 192.5t-62.5 192
t-162.5 70t-162.5 -70t-62.5 -192t62.5 -192.5t162.5 -70.5z" />
    <glyph glyph-name="adieresis.ss01" horiz-adv-x="1222" 
d="M393 1135q-69 0 -116.5 47.5t-47.5 120.5q0 74 47.5 120.5t116.5 46.5q72 0 120 -46.5t48 -120.5q0 -73 -48.5 -120.5t-119.5 -47.5zM842 1135q-70 0 -118 47.5t-48 120.5q0 74 48 120.5t118 46.5t118 -46.5t48 -120.5q0 -73 -48 -120.5t-118 -47.5zM821 870l10 121h263
v-991h-263l-10 121h-8q-37 -66 -117.5 -106t-177.5 -40q-188 0 -315 144.5t-127 376.5t127 376t315 144q97 0 177.5 -40t117.5 -106h8zM592 233q100 0 162.5 70.5t62.5 192.5t-62.5 192t-162.5 70t-162.5 -70t-62.5 -192t62.5 -192.5t162.5 -70.5z" />
    <glyph glyph-name="agrave.ss01" horiz-adv-x="1222" 
d="M618 1438l156 -312h-260l-221 312h325zM821 870l10 121h263v-991h-263l-10 121h-8q-37 -66 -117.5 -106t-177.5 -40q-188 0 -315 144.5t-127 376.5t127 376t315 144q97 0 177.5 -40t117.5 -106h8zM592 233q100 0 162.5 70.5t62.5 192.5t-62.5 192t-162.5 70t-162.5 -70
t-62.5 -192t62.5 -192.5t162.5 -70.5z" />
    <glyph glyph-name="amacron.ss01" horiz-adv-x="1222" 
d="M326 1380h585v-213h-585v213zM821 870l10 121h263v-991h-263l-10 121h-8q-37 -66 -117.5 -106t-177.5 -40q-188 0 -315 144.5t-127 376.5t127 376t315 144q97 0 177.5 -40t117.5 -106h8zM592 233q100 0 162.5 70.5t62.5 192.5t-62.5 192t-162.5 70t-162.5 -70t-62.5 -192
t62.5 -192.5t162.5 -70.5z" />
    <glyph glyph-name="aogonek.ss01" horiz-adv-x="1222" 
d="M1094 991v-991q-79 -54 -110.5 -94t-31.5 -78q0 -64 80 -64q30 0 62 11v-211q-50 -15 -115 -15q-120 0 -190 57.5t-70 155.5q0 150 147 238h-35l-10 121h-8q-37 -66 -117.5 -106t-177.5 -40q-188 0 -315 144.5t-127 376.5t127 376t315 144q97 0 177.5 -40t117.5 -106h8
l10 121h263zM592 233q100 0 162.5 70.5t62.5 192.5t-62.5 192t-162.5 70t-162.5 -70t-62.5 -192t62.5 -192.5t162.5 -70.5z" />
    <glyph glyph-name="aring.ss01" horiz-adv-x="1222" 
d="M618 1106q-107 0 -177 66t-70 163t70.5 163.5t176.5 66.5q107 0 177.5 -66.5t70.5 -163.5t-70.5 -163t-177.5 -66zM618 1411q-35 0 -56 -21t-21 -55t21 -54.5t56 -20.5t56.5 20.5t21.5 54.5t-21.5 55t-56.5 21zM821 870l10 121h263v-991h-263l-10 121h-8
q-37 -66 -117.5 -106t-177.5 -40q-188 0 -315 144.5t-127 376.5t127 376t315 144q97 0 177.5 -40t117.5 -106h8zM592 233q100 0 162.5 70.5t62.5 192.5t-62.5 192t-162.5 70t-162.5 -70t-62.5 -192t62.5 -192.5t162.5 -70.5z" />
    <glyph glyph-name="atilde.ss01" horiz-adv-x="1222" 
d="M514 1243q-51 0 -51 -115h-187q0 155 51 235.5t146 80.5q79 0 170 -76q52 -47 82 -47q49 0 49 115h187q0 -154 -51 -235t-144 -81q-79 0 -170 76q-55 47 -82 47zM821 870l10 121h263v-991h-263l-10 121h-8q-37 -66 -117.5 -106t-177.5 -40q-188 0 -315 144.5t-127 376.5
t127 376t315 144q97 0 177.5 -40t117.5 -106h8zM592 233q100 0 162.5 70.5t62.5 192.5t-62.5 192t-162.5 70t-162.5 -70t-62.5 -192t62.5 -192.5t162.5 -70.5z" />
    <glyph glyph-name="g.ss02" horiz-adv-x="1026" 
d="M512 1016h500v-148l-148 -26q49 -76 49 -185q0 -157 -109.5 -255.5t-291.5 -98.5q-71 0 -150 21q-30 -7 -47.5 -27t-17.5 -47q0 -31 24 -48.5t68 -17.5h279q169 0 256.5 -78t87.5 -227q0 -174 -126 -268t-382 -94q-236 0 -356.5 79.5t-120.5 219.5q0 142 120 207
q-86 67 -86 176q0 74 39 130.5t107 86.5q-94 97 -94 241q0 160 109 259.5t290 99.5zM512 512q69 0 110.5 41t41.5 109q0 66 -41.5 106.5t-110.5 40.5q-67 0 -108.5 -40.5t-41.5 -106.5q0 -68 41 -109t109 -41zM621 -47h-232q-41 0 -69.5 -28.5t-28.5 -71.5q0 -115 225 -115
q232 0 232 121q0 94 -127 94z" />
    <glyph glyph-name="gbreve.ss02" horiz-adv-x="1026" 
d="M530 1124q-147 0 -230 78t-83 211v21h213q0 -138 100 -138q101 0 101 138h213v-21q0 -133 -83.5 -211t-230.5 -78zM512 1016h500v-148l-148 -26q49 -76 49 -185q0 -157 -109.5 -255.5t-291.5 -98.5q-71 0 -150 21q-30 -7 -47.5 -27t-17.5 -47q0 -31 24 -48.5t68 -17.5
h279q169 0 256.5 -78t87.5 -227q0 -174 -126 -268t-382 -94q-236 0 -356.5 79.5t-120.5 219.5q0 142 120 207q-86 67 -86 176q0 74 39 130.5t107 86.5q-94 97 -94 241q0 160 109 259.5t290 99.5zM512 512q69 0 110.5 41t41.5 109q0 66 -41.5 106.5t-110.5 40.5
q-67 0 -108.5 -40.5t-41.5 -106.5q0 -68 41 -109t109 -41zM621 -47h-232q-41 0 -69.5 -28.5t-28.5 -71.5q0 -115 225 -115q232 0 232 121q0 94 -127 94z" />
    <glyph glyph-name="gcaron.ss02" horiz-adv-x="1026" 
d="M909 1438l-239 -312h-279l-239 312h258l120 -150l121 150h258zM512 1016h500v-148l-148 -26q49 -76 49 -185q0 -157 -109.5 -255.5t-291.5 -98.5q-71 0 -150 21q-30 -7 -47.5 -27t-17.5 -47q0 -31 24 -48.5t68 -17.5h279q169 0 256.5 -78t87.5 -227q0 -174 -126 -268
t-382 -94q-236 0 -356.5 79.5t-120.5 219.5q0 142 120 207q-86 67 -86 176q0 74 39 130.5t107 86.5q-94 97 -94 241q0 160 109 259.5t290 99.5zM512 512q69 0 110.5 41t41.5 109q0 66 -41.5 106.5t-110.5 40.5q-67 0 -108.5 -40.5t-41.5 -106.5q0 -68 41 -109t109 -41z
M621 -47h-232q-41 0 -69.5 -28.5t-28.5 -71.5q0 -115 225 -115q232 0 232 121q0 94 -127 94z" />
    <glyph glyph-name="gcircumflex.ss02" horiz-adv-x="1026" 
d="M651 1126l-121 150l-120 -150h-258l239 312h279l239 -312h-258zM512 1016h500v-148l-148 -26q49 -76 49 -185q0 -157 -109.5 -255.5t-291.5 -98.5q-71 0 -150 21q-30 -7 -47.5 -27t-17.5 -47q0 -31 24 -48.5t68 -17.5h279q169 0 256.5 -78t87.5 -227q0 -174 -126 -268
t-382 -94q-236 0 -356.5 79.5t-120.5 219.5q0 142 120 207q-86 67 -86 176q0 74 39 130.5t107 86.5q-94 97 -94 241q0 160 109 259.5t290 99.5zM512 512q69 0 110.5 41t41.5 109q0 66 -41.5 106.5t-110.5 40.5q-67 0 -108.5 -40.5t-41.5 -106.5q0 -68 41 -109t109 -41z
M621 -47h-232q-41 0 -69.5 -28.5t-28.5 -71.5q0 -115 225 -115q232 0 232 121q0 94 -127 94z" />
    <glyph glyph-name="uni0123.ss02" horiz-adv-x="1026" 
d="M539 1124q-84 0 -135 61.5t-50 160.5q3 106 70 210h156q-38 -56 -56 -118h19q74 0 120 -45t46 -111q0 -65 -48.5 -111.5t-121.5 -46.5zM512 1016h500v-148l-148 -26q49 -76 49 -185q0 -157 -109.5 -255.5t-291.5 -98.5q-71 0 -150 21q-30 -7 -47.5 -27t-17.5 -47
q0 -31 24 -48.5t68 -17.5h279q169 0 256.5 -78t87.5 -227q0 -174 -126 -268t-382 -94q-236 0 -356.5 79.5t-120.5 219.5q0 142 120 207q-86 67 -86 176q0 74 39 130.5t107 86.5q-94 97 -94 241q0 160 109 259.5t290 99.5zM512 512q69 0 110.5 41t41.5 109q0 66 -41.5 106.5
t-110.5 40.5q-67 0 -108.5 -40.5t-41.5 -106.5q0 -68 41 -109t109 -41zM621 -47h-232q-41 0 -69.5 -28.5t-28.5 -71.5q0 -115 225 -115q232 0 232 121q0 94 -127 94z" />
    <glyph glyph-name="gdotaccent.ss02" horiz-adv-x="1026" 
d="M530 1126q-76 0 -128 50.5t-52 126.5t52 126t128 50t128.5 -50t52.5 -126t-52.5 -126.5t-128.5 -50.5zM512 1016h500v-148l-148 -26q49 -76 49 -185q0 -157 -109.5 -255.5t-291.5 -98.5q-71 0 -150 21q-30 -7 -47.5 -27t-17.5 -47q0 -31 24 -48.5t68 -17.5h279
q169 0 256.5 -78t87.5 -227q0 -174 -126 -268t-382 -94q-236 0 -356.5 79.5t-120.5 219.5q0 142 120 207q-86 67 -86 176q0 74 39 130.5t107 86.5q-94 97 -94 241q0 160 109 259.5t290 99.5zM512 512q69 0 110.5 41t41.5 109q0 66 -41.5 106.5t-110.5 40.5
q-67 0 -108.5 -40.5t-41.5 -106.5q0 -68 41 -109t109 -41zM621 -47h-232q-41 0 -69.5 -28.5t-28.5 -71.5q0 -115 225 -115q232 0 232 121q0 94 -127 94z" />
    <glyph glyph-name="uni1E21.ss02" horiz-adv-x="1026" 
d="M238 1380h585v-213h-585v213zM512 1016h500v-148l-148 -26q49 -76 49 -185q0 -157 -109.5 -255.5t-291.5 -98.5q-71 0 -150 21q-30 -7 -47.5 -27t-17.5 -47q0 -31 24 -48.5t68 -17.5h279q169 0 256.5 -78t87.5 -227q0 -174 -126 -268t-382 -94q-236 0 -356.5 79.5
t-120.5 219.5q0 142 120 207q-86 67 -86 176q0 74 39 130.5t107 86.5q-94 97 -94 241q0 160 109 259.5t290 99.5zM512 512q69 0 110.5 41t41.5 109q0 66 -41.5 106.5t-110.5 40.5q-67 0 -108.5 -40.5t-41.5 -106.5q0 -68 41 -109t109 -41zM621 -47h-232q-41 0 -69.5 -28.5
t-28.5 -71.5q0 -115 225 -115q232 0 232 121q0 94 -127 94z" />
    <glyph glyph-name="y.ss03" horiz-adv-x="1077" 
d="M545 352l211 639h307l-535 -1450h-307l164 449l-369 1001h312l209 -639h8z" />
    <glyph glyph-name="yacute.ss03" horiz-adv-x="1077" 
d="M528 1438h326l-221 -312h-260zM545 352l211 639h307l-535 -1450h-307l164 449l-369 1001h312l209 -639h8z" />
    <glyph glyph-name="ycircumflex.ss03" horiz-adv-x="1077" 
d="M662 1126l-121 150l-121 -150h-258l239 312h279l240 -312h-258zM545 352l211 639h307l-535 -1450h-307l164 449l-369 1001h312l209 -639h8z" />
    <glyph glyph-name="ydieresis.ss03" horiz-adv-x="1077" 
d="M315 1135q-68 0 -115.5 47.5t-47.5 120.5q0 74 47 120.5t116 46.5q72 0 120 -46.5t48 -120.5q0 -73 -48.5 -120.5t-119.5 -47.5zM764 1135q-70 0 -118 47.5t-48 120.5q0 74 48 120.5t118 46.5t118 -46.5t48 -120.5q0 -73 -48 -120.5t-118 -47.5zM545 352l211 639h307
l-535 -1450h-307l164 449l-369 1001h312l209 -639h8z" />
    <glyph glyph-name="ygrave.ss03" horiz-adv-x="1077" 
d="M539 1438l155 -312h-260l-221 312h326zM545 352l211 639h307l-535 -1450h-307l164 449l-369 1001h312l209 -639h8z" />
    <glyph glyph-name="zero.zero" horiz-adv-x="1300" 
d="M649 1458q252 0 390.5 -142.5t138.5 -397.5v-402q0 -255 -138.5 -398t-390.5 -143q-251 0 -388.5 143t-137.5 398v402q0 255 137.5 397.5t388.5 142.5zM649 1186q-229 0 -229 -268v-230l452 303q-13 97 -70.5 146t-152.5 49zM649 248q112 0 171 66.5t59 201.5v232
l-455 -306q30 -194 225 -194z" />
    <glyph glyph-name="zero.lf" horiz-adv-x="1300" 
d="M649 -25q-251 0 -388.5 143t-137.5 398v402q0 255 137.5 397.5t388.5 142.5q252 0 390.5 -142.5t138.5 -397.5v-402q0 -255 -138.5 -398t-390.5 -143zM649 248q112 0 171 66.5t59 201.5v402q0 135 -59 201.5t-171 66.5q-229 0 -229 -268v-402q0 -268 229 -268z" />
    <glyph glyph-name="one.lf" horiz-adv-x="901" 
d="M479 1434h240v-1434h-299v991h-303v262h73q140 0 203 40t86 141z" />
    <glyph glyph-name="two.lf" horiz-adv-x="1171" 
d="M707 518q-126 -76 -190.5 -132t-92.5 -114h655v-272h-981v145q0 89 17.5 156.5t63 134.5t122.5 130.5t199 138.5q166 104 225 173t59 142q0 77 -46.5 121.5t-125.5 44.5q-90 0 -151 -62t-82 -192l-293 51q32 230 170.5 352.5t351.5 122.5q216 0 345.5 -118.5
t129.5 -317.5q0 -144 -84 -260.5t-292 -243.5z" />
    <glyph glyph-name="three.lf" horiz-adv-x="1202" 
d="M606 -25q-222 0 -359.5 120t-154.5 331l291 37q13 -105 72 -160t151 -55q93 0 149 51t56 135q0 83 -56 128.5t-161 45.5h-141v246h137q95 0 142.5 44t47.5 120q0 79 -47.5 123.5t-132.5 44.5q-175 0 -211 -207l-293 39q26 205 164 322.5t348 117.5t339.5 -112.5
t129.5 -296.5q0 -216 -188 -312v-6q106 -46 163.5 -131.5t57.5 -200.5q0 -187 -140 -305.5t-364 -118.5z" />
    <glyph glyph-name="four.lf" horiz-adv-x="1253" 
d="M1036 510h168v-254h-168v-256h-280v256h-680v236l602 942h358v-924zM756 1102l-377 -592h377v592z" />
    <glyph glyph-name="five.lf" horiz-adv-x="1200" 
d="M680 946q197 0 322.5 -130.5t125.5 -344.5q0 -222 -143.5 -359t-374.5 -137q-209 0 -348 111.5t-164 300.5l291 53q15 -90 76.5 -141t148.5 -51q99 0 157 64t58 171q0 105 -57 165.5t-154 60.5q-64 0 -118.5 -27.5t-87.5 -79.5h-287l98 832h809v-273h-555l-35 -278
q100 63 238 63z" />
    <glyph glyph-name="six.lf" horiz-adv-x="1222" 
d="M662 995q207 0 348 -139.5t141 -353.5q0 -147 -71 -268t-195 -190t-273 -69q-147 0 -269 67.5t-193.5 187.5t-71.5 268q0 101 38.5 202.5t133.5 239.5l330 494h352l-297 -439h27zM614 248q102 0 170 70.5t68 179.5q0 108 -68 177.5t-170 69.5t-169.5 -69.5t-67.5 -177.5
q0 -109 67.5 -179.5t169.5 -70.5z" />
    <glyph glyph-name="seven.lf" horiz-adv-x="1077" 
d="M70 1161v273h944v-267l-496 -1167h-348l512 1161h-612z" />
    <glyph glyph-name="eight.lf" horiz-adv-x="1222" 
d="M610 -25q-238 0 -377 115.5t-139 302.5q0 116 57 206.5t162 139.5v9q-196 103 -196 311q0 174 136 286.5t357 112.5q223 0 359.5 -112.5t136.5 -286.5q0 -207 -197 -311v-9q105 -49 162 -139.5t57 -206.5q0 -187 -139 -302.5t-379 -115.5zM610 850q92 0 146.5 49.5
t54.5 128.5q0 81 -54 130.5t-147 49.5q-91 0 -144.5 -49.5t-53.5 -130.5q0 -79 53.5 -128.5t144.5 -49.5zM610 225q97 0 159 53t62 140q0 85 -62.5 140.5t-158.5 55.5q-95 0 -157 -55.5t-62 -140.5q0 -87 62 -140t157 -53z" />
    <glyph glyph-name="nine.lf" horiz-adv-x="1222" 
d="M610 1458q147 0 269.5 -67t194 -187t71.5 -268q0 -101 -38.5 -202.5t-133.5 -239.5l-330 -494h-352l297 438h-27q-206 0 -347.5 140t-141.5 354q0 147 71 268t194.5 189.5t272.5 68.5zM608 688q102 0 170 70t68 178q0 109 -68 179.5t-170 70.5t-169.5 -70.5t-67.5 -179.5
q0 -108 67.5 -178t169.5 -70z" />
    <glyph glyph-name="zero.ss04" horiz-adv-x="1843" 
d="M922 0q-145 0 -278 57t-229 153t-153 229t-57 278t57 278t153 229t229 153t278 57t278 -57t228.5 -153t152.5 -228.5t57 -278.5t-57 -278.5t-152.5 -228.5t-228.5 -153t-278 -57zM922 258q164 0 255 89.5t91 246.5v246q0 157 -91 246.5t-255 89.5q-163 0 -253.5 -89
t-90.5 -247v-246q0 -158 90.5 -247t253.5 -89zM922 465q-55 0 -85 30.5t-30 88.5v266q0 58 30 88.5t85 30.5t84.5 -30.5t29.5 -88.5v-266q0 -58 -29.5 -88.5t-84.5 -30.5z" />
    <glyph glyph-name="one.ss04" horiz-adv-x="1843" 
d="M922 0q-145 0 -278 57t-229 153t-153 229t-57 278t57 278t153 229t229 153t278 57t278 -57t228.5 -153t152.5 -228.5t57 -278.5t-57 -278.5t-152.5 -228.5t-228.5 -153t-278 -57zM840 872v-600h227v889h-184q-13 -64 -52.5 -93.5t-125.5 -29.5h-50v-166h185z" />
    <glyph glyph-name="two.ss04" horiz-adv-x="1843" 
d="M922 0q-145 0 -278 57t-229 153t-153 229t-57 278t57 278t153 229t229 153t278 57t278 -57t228.5 -153t152.5 -228.5t57 -278.5t-57 -278.5t-152.5 -228.5t-228.5 -153t-278 -57zM606 379v-107h627v205h-361q28 49 138 115q129 80 179 149t50 156q0 127 -82.5 203
t-224.5 76q-139 0 -226.5 -76.5t-105.5 -220.5l221 -39q22 129 115 129q37 0 58.5 -20t21.5 -54q0 -35 -32.5 -68t-131.5 -96q-149 -91 -197.5 -161.5t-48.5 -190.5z" />
    <glyph glyph-name="three.ss04" horiz-adv-x="1843" 
d="M922 0q-145 0 -278 57t-229 153t-153 229t-57 278t57 278t153 229t229 153t278 57t278 -57t228.5 -153t152.5 -228.5t57 -278.5t-57 -278.5t-152.5 -228.5t-228.5 -153t-278 -57zM922 258q142 0 230.5 73t88.5 189q0 70 -34.5 124t-98.5 83q117 55 117 188
q0 116 -84 188.5t-217 72.5q-139 0 -229.5 -77t-104.5 -204l223 -29q6 51 33.5 77t68.5 26q39 0 62.5 -21t23.5 -57t-23.5 -57t-66.5 -21h-86v-180h88q50 0 76.5 -22t26.5 -60q0 -37 -26.5 -61.5t-69.5 -24.5t-72 27.5t-35 82.5l-221 -26q7 -135 96 -213t234 -78z" />
    <glyph glyph-name="four.ss04" horiz-adv-x="1843" 
d="M922 0q-145 0 -278 57t-229 153t-153 229t-57 278t57 278t153 229t229 153t278 57t278 -57t228.5 -153t152.5 -228.5t57 -278.5t-57 -278.5t-152.5 -228.5t-228.5 -153t-278 -57zM934 422v-150h211v150h92v192h-92v547h-271l-354 -561v-178h414zM934 614h-189l189 299
v-299z" />
    <glyph glyph-name="five.ss04" horiz-adv-x="1843" 
d="M922 0q-145 0 -278 57t-229 153t-153 229t-57 278t57 278t153 229t229 153t278 57t278 -57t228.5 -153t152.5 -228.5t57 -278.5t-57 -278.5t-152.5 -228.5t-228.5 -153t-278 -57zM920 258q148 0 239.5 84t91.5 225q0 132 -78 212.5t-200 80.5q-79 0 -135 -33l16 129h338
v205h-524l-62 -526h221q30 51 97 51q46 0 75 -30.5t29 -80.5q0 -49 -29 -79.5t-75 -30.5q-44 0 -74.5 25.5t-36.5 68.5l-221 -41q15 -121 105 -190.5t223 -69.5z" />
    <glyph glyph-name="six.ss04" horiz-adv-x="1843" 
d="M922 0q-145 0 -278 57t-229 153t-153 229t-57 278t57 278t153 229t229 153t278 57t278 -57t228.5 -153t152.5 -228.5t57 -278.5t-57 -278.5t-152.5 -228.5t-228.5 -153t-278 -57zM915 258q144 0 244.5 96.5t100.5 239.5q0 126 -78 211t-195 96q-12 2 -20 2l174 258h-267
l-196 -295q-59 -86 -83 -148.5t-24 -123.5q0 -145 100 -240.5t244 -95.5zM915 465q-53 0 -86.5 35t-33.5 92q0 55 33.5 90t86.5 35t87 -35t34 -90q0 -57 -34 -92t-87 -35z" />
    <glyph glyph-name="seven.ss04" horiz-adv-x="1843" 
d="M922 0q-145 0 -278 57t-229 153t-153 229t-57 278t57 278t153 229t229 153t278 57t278 -57t228.5 -153t152.5 -228.5t57 -278.5t-57 -278.5t-152.5 -228.5t-228.5 -153t-278 -57zM979 944l-293 -672h268l281 682v207h-600v-217h344z" />
    <glyph glyph-name="eight.ss04" horiz-adv-x="1843" 
d="M922 0q-145 0 -278 57t-229 153t-153 229t-57 278t57 278t153 229t229 153t278 57t278 -57t228.5 -153t152.5 -228.5t57 -278.5t-57 -278.5t-152.5 -228.5t-228.5 -153t-278 -57zM922 258q155 0 243 72t88 190q0 146 -129 215q119 69 119 191q0 108 -88 179t-233 71
q-144 0 -232 -70.5t-88 -179.5q0 -58 30 -108t87 -83q-63 -33 -96 -89t-33 -126q0 -118 88.5 -190t243.5 -72zM922 813q-43 0 -70 25t-27 63q0 40 27 64t70 24t69.5 -24t26.5 -64q0 -38 -26.5 -63t-69.5 -25zM922 444q-45 0 -76 27.5t-31 69.5q0 41 31 67.5t76 26.5
t75.5 -26.5t30.5 -67.5q0 -42 -30.5 -69.5t-75.5 -27.5z" />
    <glyph glyph-name="nine.ss04" horiz-adv-x="1843" 
d="M922 0q-145 0 -278 57t-229 153t-153 229t-57 278t57 278t153 229t229 153t278 57t278 -57t228.5 -153t152.5 -228.5t57 -278.5t-57 -278.5t-152.5 -228.5t-228.5 -153t-278 -57zM879 530l-177 -258h269l196 295q59 86 83 149t24 124q0 144 -100.5 240t-243.5 96
q-144 0 -245 -96.5t-101 -239.5q0 -125 79 -211t195 -97q12 -2 21 -2zM930 717q-53 0 -87 35t-34 90q0 57 34 92t87 35t87 -35t34 -92q0 -55 -34 -90t-87 -35z" />
    <glyph glyph-name="zero.ss05" horiz-adv-x="1843" 
d="M922 0q-145 0 -278 57t-229 153t-153 229t-57 278t57 278t153 229t229 153t278 57t278 -57t228.5 -153t152.5 -228.5t57 -278.5t-57 -278.5t-152.5 -228.5t-228.5 -153t-278 -57zM922 78q130 0 248 50.5t204 136.5t136.5 204t50.5 248t-50.5 248t-136.5 204t-204 136.5
t-248 50.5t-248 -50.5t-204 -136.5t-136.5 -204t-50.5 -248t50.5 -248t136.5 -204t204 -136.5t248 -50.5zM922 258q-163 0 -253.5 89t-90.5 247v246q0 158 90.5 247t253.5 89q164 0 255 -89.5t91 -246.5v-246q0 -157 -91 -246.5t-255 -89.5zM922 465q55 0 84.5 30.5
t29.5 88.5v266q0 58 -29.5 88.5t-84.5 30.5t-85 -30.5t-30 -88.5v-266q0 -58 30 -88.5t85 -30.5z" />
    <glyph glyph-name="one.ss05" horiz-adv-x="1843" 
d="M922 0q-145 0 -278 57t-229 153t-153 229t-57 278t57 278t153 229t229 153t278 57t278 -57t228.5 -153t152.5 -228.5t57 -278.5t-57 -278.5t-152.5 -228.5t-228.5 -153t-278 -57zM922 78q130 0 248 50.5t204 136.5t136.5 204t50.5 248t-50.5 248t-136.5 204t-204 136.5
t-248 50.5t-248 -50.5t-204 -136.5t-136.5 -204t-50.5 -248t50.5 -248t136.5 -204t204 -136.5t248 -50.5zM1067 272h-227v600h-185v166h50q86 0 125.5 29.5t52.5 93.5h184v-889z" />
    <glyph glyph-name="two.ss05" horiz-adv-x="1843" 
d="M922 0q-145 0 -278 57t-229 153t-153 229t-57 278t57 278t153 229t229 153t278 57t278 -57t228.5 -153t152.5 -228.5t57 -278.5t-57 -278.5t-152.5 -228.5t-228.5 -153t-278 -57zM922 78q130 0 248 50.5t204 136.5t136.5 204t50.5 248t-50.5 248t-136.5 204t-204 136.5
t-248 50.5t-248 -50.5t-204 -136.5t-136.5 -204t-50.5 -248t50.5 -248t136.5 -204t204 -136.5t248 -50.5zM1233 272h-627v107q0 120 48.5 190.5t197.5 161.5q99 63 131.5 96t32.5 68q0 34 -21.5 54t-58.5 20q-93 0 -115 -129l-221 39q18 144 105.5 220.5t226.5 76.5
q142 0 224.5 -76t82.5 -203q0 -87 -50 -156t-179 -149q-110 -66 -138 -115h361v-205z" />
    <glyph glyph-name="three.ss05" horiz-adv-x="1843" 
d="M922 0q-145 0 -278 57t-229 153t-153 229t-57 278t57 278t153 229t229 153t278 57t278 -57t228.5 -153t152.5 -228.5t57 -278.5t-57 -278.5t-152.5 -228.5t-228.5 -153t-278 -57zM922 78q130 0 248 50.5t204 136.5t136.5 204t50.5 248t-50.5 248t-136.5 204t-204 136.5
t-248 50.5t-248 -50.5t-204 -136.5t-136.5 -204t-50.5 -248t50.5 -248t136.5 -204t204 -136.5t248 -50.5zM922 258q-145 0 -234 78t-96 213l221 26q6 -55 35 -82.5t72 -27.5t69.5 24.5t26.5 61.5q0 38 -26.5 60t-76.5 22h-88v180h86q43 0 66.5 21t23.5 57t-23.5 57t-62.5 21
q-41 0 -68.5 -26t-33.5 -77l-223 29q14 127 104.5 204t229.5 77q133 0 217 -72.5t84 -188.5q0 -133 -117 -188q64 -29 98.5 -83t34.5 -124q0 -116 -88.5 -189t-230.5 -73z" />
    <glyph glyph-name="four.ss05" horiz-adv-x="1843" 
d="M922 0q-145 0 -278 57t-229 153t-153 229t-57 278t57 278t153 229t229 153t278 57t278 -57t228.5 -153t152.5 -228.5t57 -278.5t-57 -278.5t-152.5 -228.5t-228.5 -153t-278 -57zM922 78q130 0 248 50.5t204 136.5t136.5 204t50.5 248t-50.5 248t-136.5 204t-204 136.5
t-248 50.5t-248 -50.5t-204 -136.5t-136.5 -204t-50.5 -248t50.5 -248t136.5 -204t204 -136.5t248 -50.5zM1145 272h-211v150h-414v178l354 561h271v-547h92v-192h-92v-150zM934 913l-189 -299h189v299z" />
    <glyph glyph-name="five.ss05" horiz-adv-x="1843" 
d="M922 0q-145 0 -278 57t-229 153t-153 229t-57 278t57 278t153 229t229 153t278 57t278 -57t228.5 -153t152.5 -228.5t57 -278.5t-57 -278.5t-152.5 -228.5t-228.5 -153t-278 -57zM922 78q130 0 248 50.5t204 136.5t136.5 204t50.5 248t-50.5 248t-136.5 204t-204 136.5
t-248 50.5t-248 -50.5t-204 -136.5t-136.5 -204t-50.5 -248t50.5 -248t136.5 -204t204 -136.5t248 -50.5zM920 258q-133 0 -223 69.5t-105 190.5l221 41q6 -43 36.5 -68.5t74.5 -25.5q46 0 75 30.5t29 79.5q0 50 -29 80.5t-75 30.5q-67 0 -97 -51h-221l62 526h524v-205h-338
l-16 -129q56 33 135 33q122 0 200 -80.5t78 -212.5q0 -141 -91.5 -225t-239.5 -84z" />
    <glyph glyph-name="six.ss05" horiz-adv-x="1843" 
d="M922 0q-145 0 -278 57t-229 153t-153 229t-57 278t57 278t153 229t229 153t278 57t278 -57t228.5 -153t152.5 -228.5t57 -278.5t-57 -278.5t-152.5 -228.5t-228.5 -153t-278 -57zM922 78q130 0 248 50.5t204 136.5t136.5 204t50.5 248t-50.5 248t-136.5 204t-204 136.5
t-248 50.5t-248 -50.5t-204 -136.5t-136.5 -204t-50.5 -248t50.5 -248t136.5 -204t204 -136.5t248 -50.5zM915 260q-144 0 -245 96t-101 240q0 116 107 272l196 295h269l-176 -260q7 2 22 0q118 -12 195.5 -97t77.5 -210q0 -143 -100.5 -239.5t-244.5 -96.5zM915 465
q52 0 85.5 35.5t33.5 91.5q0 57 -33 92t-86 35t-86.5 -35t-33.5 -92q0 -56 34 -91.5t86 -35.5z" />
    <glyph glyph-name="seven.ss05" horiz-adv-x="1843" 
d="M922 0q-145 0 -278 57t-229 153t-153 229t-57 278t57 278t153 229t229 153t278 57t278 -57t228.5 -153t152.5 -228.5t57 -278.5t-57 -278.5t-152.5 -228.5t-228.5 -153t-278 -57zM922 78q130 0 248 50.5t204 136.5t136.5 204t50.5 248t-50.5 248t-136.5 204t-204 136.5
t-248 50.5t-248 -50.5t-204 -136.5t-136.5 -204t-50.5 -248t50.5 -248t136.5 -204t204 -136.5t248 -50.5zM954 272h-268l293 672h-344v217h600v-207z" />
    <glyph glyph-name="eight.ss05" horiz-adv-x="1843" 
d="M922 0q-145 0 -278 57t-229 153t-153 229t-57 278t57 278t153 229t229 153t278 57t278 -57t228.5 -153t152.5 -228.5t57 -278.5t-57 -278.5t-152.5 -228.5t-228.5 -153t-278 -57zM922 78q130 0 248 50.5t204 136.5t136.5 204t50.5 248t-50.5 248t-136.5 204t-204 136.5
t-248 50.5t-248 -50.5t-204 -136.5t-136.5 -204t-50.5 -248t50.5 -248t136.5 -204t204 -136.5t248 -50.5zM922 258q-155 0 -243.5 72t-88.5 190q0 70 33 126t96 89q-57 33 -87 83t-30 108q0 109 88 179.5t232 70.5q145 0 233 -71t88 -179q0 -122 -119 -191q129 -69 129 -215
q0 -118 -88 -190t-243 -72zM922 813q43 0 69.5 25t26.5 63q0 40 -26.5 64t-69.5 24t-70 -24t-27 -64q0 -38 27 -63t70 -25zM922 444q45 0 75.5 27.5t30.5 69.5q0 41 -30.5 67.5t-75.5 26.5t-76 -26.5t-31 -67.5q0 -42 31 -69.5t76 -27.5z" />
    <glyph glyph-name="nine.ss05" horiz-adv-x="1843" 
d="M922 0q-145 0 -278 57t-229 153t-153 229t-57 278t57 278t153 229t229 153t278 57t278 -57t228.5 -153t152.5 -228.5t57 -278.5t-57 -278.5t-152.5 -228.5t-228.5 -153t-278 -57zM922 78q130 0 248 50.5t204 136.5t136.5 204t50.5 248t-50.5 248t-136.5 204t-204 136.5
t-248 50.5t-248 -50.5t-204 -136.5t-136.5 -204t-50.5 -248t50.5 -248t136.5 -204t204 -136.5t248 -50.5zM971 272h-269l177 258q-9 0 -21 2q-116 11 -195 97t-79 211q0 143 101 239.5t245 96.5q143 0 243.5 -96t100.5 -240q0 -61 -24 -124t-83 -149zM930 717q53 0 87 35
t34 90q0 57 -34 92t-87 35t-87 -35t-34 -92q0 -55 34 -90t87 -35z" />
    <glyph glyph-name="zero.tf" horiz-adv-x="1331" 
d="M666 -25q-252 0 -390.5 143t-138.5 398v402q0 255 138.5 397.5t390.5 142.5t390 -142.5t138 -397.5v-402q0 -255 -138 -398t-390 -143zM666 248q229 0 229 268v402q0 268 -229 268q-112 0 -171 -66.5t-59 -201.5v-402q0 -135 59 -201.5t171 -66.5z" />
    <glyph glyph-name="one.tf" horiz-adv-x="1331" 
d="M901 1434v-1162h285v-272h-955v272h371v719h-332v262h103q140 0 203 40t86 141h239z" />
    <glyph glyph-name="two.tf" horiz-adv-x="1331" 
d="M788 518q-125 -75 -189.5 -131.5t-92.5 -114.5h655v-272h-981v145q0 89 17.5 156.5t63 135t122.5 131t199 137.5q166 104 225 173t59 142q0 77 -46.5 121.5t-125.5 44.5q-90 0 -151 -62t-82 -192l-293 51q32 230 170.5 352.5t351.5 122.5q216 0 345.5 -118.5
t129.5 -317.5q0 -144 -84.5 -260.5t-292.5 -243.5z" />
    <glyph glyph-name="three.tf" horiz-adv-x="1331" 
d="M676 -25q-221 0 -358 120t-154 331l289 37q13 -106 72 -160.5t153 -54.5q93 0 148 51t55 135q0 83 -56 128.5t-161 45.5h-142v246h137q96 0 143.5 43.5t47.5 120.5q0 80 -46.5 124t-131.5 44q-177 0 -213 -207l-293 39q28 205 165 322.5t347 117.5t340.5 -112.5
t130.5 -296.5q0 -216 -191 -312v-6q107 -46 164.5 -131.5t57.5 -200.5q0 -187 -139.5 -305.5t-364.5 -118.5z" />
    <glyph glyph-name="four.tf" horiz-adv-x="1331" 
d="M1081 510h168v-254h-168v-256h-280v256h-678v236l600 942h358v-924zM801 1102l-377 -592h377v592z" />
    <glyph glyph-name="five.tf" horiz-adv-x="1331" 
d="M745 946q197 0 323 -130.5t126 -344.5q0 -222 -143.5 -359t-374.5 -137q-208 0 -347.5 112t-162.5 300l289 53q15 -90 76.5 -141t148.5 -51q99 0 158 64.5t59 170.5q0 105 -58 165.5t-155 60.5q-64 0 -119 -27.5t-88 -79.5h-287l99 832h809v-273h-555l-35 -278
q100 63 237 63z" />
    <glyph glyph-name="six.tf" horiz-adv-x="1331" 
d="M717 995q207 0 348 -139.5t141 -353.5q0 -147 -71 -268t-194.5 -190t-272.5 -69q-147 0 -269.5 67.5t-194 187.5t-71.5 268q0 101 38.5 202.5t133.5 239.5l330 494h352l-297 -439h27zM670 248q102 0 169.5 70.5t67.5 179.5q0 108 -67.5 177.5t-169.5 69.5t-170 -69.5
t-68 -177.5q0 -109 68 -179.5t170 -70.5z" />
    <glyph glyph-name="seven.tf" horiz-adv-x="1331" 
d="M170 1153v281h983v-267l-496 -1167h-348l510 1153h-649z" />
    <glyph glyph-name="eight.tf" horiz-adv-x="1331" 
d="M666 -25q-240 0 -379.5 115.5t-139.5 302.5q0 116 57.5 206.5t162.5 139.5v9q-195 104 -195 311q0 174 136 286.5t358 112.5q221 0 357 -112.5t136 -286.5q0 -207 -194 -311v-9q105 -49 162 -139.5t57 -206.5q0 -187 -139 -302.5t-379 -115.5zM666 850q91 0 145.5 49.5
t54.5 128.5q0 80 -54.5 130t-145.5 50t-146 -50t-55 -130q0 -79 55 -128.5t146 -49.5zM666 225q95 0 158 53.5t63 139.5q0 85 -62.5 140.5t-158.5 55.5q-97 0 -159.5 -55.5t-62.5 -140.5q0 -86 63.5 -139.5t158.5 -53.5z" />
    <glyph glyph-name="nine.tf" horiz-adv-x="1331" 
d="M664 1458q147 0 269 -67t193.5 -187t71.5 -268q0 -101 -38.5 -202.5t-133.5 -239.5l-330 -494h-352l297 438h-27q-206 0 -347.5 140t-141.5 354q0 147 71 268t194.5 189.5t273.5 68.5zM662 688q102 0 169.5 70t67.5 178q0 109 -67.5 179.5t-169.5 70.5t-170 -70.5
t-68 -179.5q0 -108 68 -178t170 -70z" />
    <glyph glyph-name="zero.tf.zero" horiz-adv-x="1331" 
d="M666 1458q252 0 390 -142.5t138 -397.5v-402q0 -255 -138 -398t-390 -143t-390.5 143t-138.5 398v402q0 255 138.5 397.5t390.5 142.5zM666 1186q-112 0 -171 -66.5t-59 -201.5v-230l453 303q-13 97 -70.5 146t-152.5 49zM666 248q229 0 229 268v232l-455 -306
q30 -194 226 -194z" />
    <glyph glyph-name="colon.case" horiz-adv-x="583" 
d="M303 844q-85 0 -138.5 53.5t-53.5 138.5t53.5 139t138.5 54q83 0 137 -54t54 -139q0 -84 -54 -138t-137 -54zM303 201q-85 0 -138.5 53.5t-53.5 136.5q0 85 53.5 139t138.5 54q83 0 137 -54t54 -139q0 -83 -54 -136.5t-137 -53.5z" />
    <glyph glyph-name="exclamdown.case" horiz-adv-x="616" 
d="M307 1452q85 0 139 -53.5t54 -138.5t-54 -139t-139 -54q-83 0 -136.5 54t-53.5 139t53.5 138.5t136.5 53.5zM158 0l26 934h248l27 -934h-301z" />
    <glyph glyph-name="questiondown.case" horiz-adv-x="1021" 
d="M555 1454q83 0 136.5 -53.5t53.5 -138.5t-53.5 -139t-136.5 -54q-85 0 -139 54t-54 139t54 138.5t139 53.5zM412 936h286v-80q0 -102 -31 -158.5t-139 -146.5l-94 -78q-41 -36 -57.5 -64t-16.5 -59q0 -51 34.5 -80.5t97.5 -29.5q162 0 231 202l250 -98
q-40 -171 -168.5 -269t-312.5 -98q-185 0 -301.5 98t-116.5 261q0 85 40 156.5t138 154.5l86 72q48 42 61 67.5t13 83.5v66z" />
    <glyph glyph-name="parenleft.case" horiz-adv-x="716" 
d="M668 -47l-219 -133q-162 179 -250 418t-88 481q0 240 88 480t250 419l219 -135q-118 -148 -189 -354t-71 -410q0 -205 71 -411.5t189 -354.5z" />
    <glyph glyph-name="parenright.case" horiz-adv-x="716" 
d="M266 -182l-217 135q117 146 187.5 353t70.5 411t-70.5 411t-187.5 353l217 135q162 -179 250 -418t88 -481t-88 -481t-250 -418z" />
    <glyph glyph-name="braceleft.case" horiz-adv-x="800" 
d="M735 -160h-198q-156 0 -242 79.5t-86 219.5v324q0 65 -31 94t-100 29h-17v262h17q69 0 100 29t31 94v323q0 140 86 219.5t242 79.5h198v-258h-123q-63 0 -90.5 -26.5t-27.5 -89.5v-248q0 -203 -172 -250v-8q172 -47 172 -250v-248q0 -63 27.5 -90t90.5 -27h123v-258z" />
    <glyph glyph-name="braceright.case" horiz-adv-x="800" 
d="M264 -160h-198v258h124q62 0 90.5 27.5t28.5 89.5v248q0 204 172 250v8q-172 46 -172 250v248q0 62 -28.5 89t-90.5 27h-124v258h198q156 0 242 -79.5t86 -219.5v-323q0 -64 31.5 -93.5t99.5 -29.5h18v-262h-18q-68 0 -99.5 -29.5t-31.5 -93.5v-324q0 -140 -86 -219.5
t-242 -79.5z" />
    <glyph glyph-name="bracketleft.case" horiz-adv-x="774" 
d="M711 1593v-260h-267v-1233h267v-260h-553v1753h553z" />
    <glyph glyph-name="bracketright.case" horiz-adv-x="774" 
d="M63 1333v260h553v-1753h-553v260h267v1233h-267z" />
    <glyph glyph-name="hyphen.case" horiz-adv-x="808" 
d="M729 543h-649v252h649v-252z" />
    <glyph glyph-name="endash.case" horiz-adv-x="1024" 
d="M1024 541h-1024v254h1024v-254z" />
    <glyph glyph-name="emdash.case" horiz-adv-x="2048" 
d="M2048 541h-2048v254h2048v-254z" />
    <glyph glyph-name="guillemotleft.case" horiz-adv-x="1329" 
d="M403 1167h312l-314 -450l314 -451h-312l-317 451zM920 1167h313l-315 -450l315 -451h-313l-316 451z" />
    <glyph glyph-name="guillemotright.case" horiz-adv-x="1329" 
d="M96 1167h314l315 -450l-315 -451h-314l316 451zM614 1167h312l317 -450l-317 -451h-312l314 451z" />
    <glyph glyph-name="guilsinglleft.case" horiz-adv-x="813" 
d="M403 1167h312l-314 -450l314 -451h-312l-317 451z" />
    <glyph glyph-name="guilsinglright.case" horiz-adv-x="813" 
d="M96 1167h314l315 -450l-315 -451h-314l316 451z" />
    <glyph glyph-name="uni20BF.tf" horiz-adv-x="1331" 
d="M1233 397q0 -154 -83 -253t-239 -130v-194h-206v180h-154v-180h-207v180h-174v1434h174v180h207v-180h135h19v180h206v-213q129 -44 199 -137.5t70 -221.5q0 -104 -48 -181.5t-141 -121.5v-6q242 -71 242 -336zM694 1180h-227v-336h227q95 0 145 42t50 124
q0 79 -50.5 124.5t-144.5 45.5zM467 254h266q97 0 143 42t46 128q0 170 -189 170h-266v-340z" />
    <glyph glyph-name="cent.tf" horiz-adv-x="1331" 
d="M733 991v-551q67 12 114.5 58.5t59.5 117.5l260 -41q-26 -158 -144 -259t-290 -115v-201h-121v203q-194 24 -315 164t-121 350q0 211 120.5 351t315.5 163v203h121v-201q174 -14 291 -114.5t143 -262.5l-268 -43q-12 72 -56.5 119t-109.5 59zM446 717q0 -103 45 -174.5
t121 -96.5v541q-75 -24 -120.5 -95t-45.5 -175z" />
    <glyph glyph-name="currency.tf" horiz-adv-x="1331" 
d="M1087 717q0 -124 -63 -225l137 -138l-133 -133l-141 141q-91 -55 -221 -55q-124 0 -222 53l-141 -139l-133 133l137 138q-63 97 -63 225t63 225l-137 137l133 133l141 -141q96 55 222 55q122 0 223 -53l139 139l133 -133l-137 -137q63 -97 63 -225zM666 543q76 0 122 48
t46 126t-46 126t-122 48t-123 -48t-47 -126t47 -126t123 -48z" />
    <glyph glyph-name="dollar.tf" horiz-adv-x="1331" 
d="M1153 471q0 -177 -118 -292.5t-314 -127.5v-137h-121v139q-171 19 -285 118.5t-139 252.5l260 63q45 -149 164 -184v318l-53 12q-176 36 -265 126.5t-89 227.5q0 163 113.5 272.5t303.5 122.5v138h121v-140q163 -17 270.5 -108.5t135.5 -239.5l-258 -65q-27 137 -148 168
v-297l72 -15q181 -39 265.5 -126.5t84.5 -225.5zM465 997q0 -49 31.5 -79t113.5 -54v279q-69 -9 -107 -47.5t-38 -98.5zM721 594v-301q74 9 116 50.5t42 105.5q0 56 -36 89.5t-122 55.5z" />
    <glyph glyph-name="Euro.tf" horiz-adv-x="1331" 
d="M797 227q76 0 130 53t77 156l270 -67q-36 -182 -168.5 -288t-310.5 -106q-200 0 -343 135t-190 377h-160v162h142q-2 23 -2 68q0 44 2 67h-142v162h160q49 242 191 377t342 135q177 0 310 -106t169 -287l-277 -68q-17 103 -70.5 156t-129.5 53q-86 0 -150 -65t-94 -195
h356v-162h-377q-2 -23 -2 -67q0 -45 2 -68h377v-162h-356q30 -129 94 -194.5t150 -65.5z" />
    <glyph glyph-name="florin.tf" horiz-adv-x="1331" 
d="M1034 1196q-73 0 -109 -31t-51 -112l-32 -170h243v-185h-278l-76 -405q-32 -163 -123 -240.5t-243 -77.5q-69 0 -140 19v250q37 -6 72 -6q71 0 107 31t53 112l59 317h-205v185h240l49 258q59 317 365 317q71 0 139 -18v-250q-34 6 -70 6z" />
    <glyph glyph-name="sterling.tf" horiz-adv-x="1331" 
d="M735 489q0 -140 -92 -235h520v-254h-956v166q134 93 188 168t54 166q0 35 -11 88h-227v186h149q-27 55 -42.5 90t-29.5 90.5t-14 108.5q0 171 122.5 283t320.5 112q189 0 308.5 -103t139.5 -282l-270 -55q-25 190 -174 190q-71 0 -111.5 -40.5t-40.5 -110.5
q0 -20 4.5 -44t9 -41.5t17 -49.5t18 -45t23 -53t21.5 -50h352v-186h-289q10 -55 10 -99z" />
    <glyph glyph-name="yen.tf" horiz-adv-x="1331" 
d="M924 1434h303l-357 -682h291v-174h-352v-152h352v-174h-352v-252h-287v252h-350v174h350v152h-350v174h289l-357 682h304l258 -531z" />
    <glyph glyph-name="arrowup.ss08" horiz-adv-x="1638" 
d="M1536 0h-1434v1434h1434v-1434zM707 846v-684h225v684l287 -289l157 156l-557 559l-557 -559l158 -156z" />
    <glyph glyph-name="uni2197.ss08" horiz-adv-x="1638" 
d="M1536 0h-1434v1434h1434v-1434zM387 453l162 -162l483 485l-2 -407h221l2 788l-788 -2v-219h407z" />
    <glyph glyph-name="arrowright.ss08" horiz-adv-x="1638" 
d="M1536 0h-1434v1434h1434v-1434zM659 317l156 -157l559 557l-559 557l-156 -158l289 -287h-684v-225h684z" />
    <glyph glyph-name="uni2198.ss08" horiz-adv-x="1638" 
d="M1536 0h-1434v1434h1434v-1434zM471 279l789 -3l-3 789h-219v-408l-483 484l-162 -160l486 -483h-408v-219z" />
    <glyph glyph-name="arrowdown.ss08" horiz-adv-x="1638" 
d="M1536 0h-1434v1434h1434v-1434zM262 721l557 -559l557 559l-157 156l-287 -289v684h-225v-684l-287 289z" />
    <glyph glyph-name="uni2199.ss08" horiz-adv-x="1638" 
d="M1536 0h-1434v1434h1434v-1434zM381 1065l-2 -789l788 3v219h-407l483 483l-160 162l-483 -486v408h-219z" />
    <glyph glyph-name="arrowleft.ss08" horiz-adv-x="1638" 
d="M1536 0h-1434v1434h1434v-1434zM264 717l559 -557l156 157l-289 287h684v225h-684l289 287l-156 158z" />
    <glyph glyph-name="uni2196.ss08" horiz-adv-x="1638" 
d="M1536 0h-1434v1434h1434v-1434zM602 774l483 -485l162 162l-485 483l407 -2v221l-788 2l2 -788h221z" />
    <glyph glyph-name="arrowup.ss09" horiz-adv-x="1638" 
d="M102 0v1434h1434v-1434h-1434zM231 121h1176v1192h-1176v-1192zM715 272v504l-207 -209l-141 140l452 454l453 -454l-142 -140l-206 209v-504h-209z" />
    <glyph glyph-name="uni2197.ss09" horiz-adv-x="1638" 
d="M102 0v1434h1434v-1434h-1434zM231 121h1176v1192h-1176v-1192zM977 735l-359 -358l-145 147l356 357l-294 -2l-3 198l644 2l-2 -643l-199 2z" />
    <glyph glyph-name="arrowright.ss09" horiz-adv-x="1638" 
d="M102 0v1434h1434v-1434h-1434zM231 121h1176v1192h-1176v-1192zM809 264l-139 142l209 206h-504v209h504l-209 207l139 141l455 -452z" />
    <glyph glyph-name="uni2198.ss09" horiz-adv-x="1638" 
d="M102 0v1434h1434v-1434h-1434zM231 121h1176v1192h-1176v-1192zM539 356l2 199l297 -2l-359 356l148 148l356 -359l-2 297l199 2l2 -643z" />
    <glyph glyph-name="arrowdown.ss09" horiz-adv-x="1638" 
d="M102 0v1434h1434v-1434h-1434zM231 121h1176v1192h-1176v-1192zM1130 866l142 -139l-455 -455l-452 455l141 139l209 -211v506h207v-504z" />
    <glyph glyph-name="uni2199.ss09" horiz-adv-x="1638" 
d="M102 0v1434h1434v-1434h-1434zM231 121h1176v1192h-1176v-1192zM801 553l297 2l2 -199l-643 -2l2 643l198 -2l-2 -297l357 359l147 -148z" />
    <glyph glyph-name="arrowleft.ss09" horiz-adv-x="1638" 
d="M102 0v1434h1434v-1434h-1434zM231 121h1176v1192h-1176v-1192zM760 612l209 -206l-140 -142l-454 453l454 452l140 -141l-209 -207h504v-209h-504z" />
    <glyph glyph-name="uni2196.ss09" horiz-adv-x="1638" 
d="M102 0v1434h1434v-1434h-1434zM231 121h1176v1192h-1176v-1192zM657 733l2 -297l-198 -2l-2 643l643 -2l-2 -198l-295 2l356 -359l-145 -145z" />
    <glyph glyph-name="uni25CF.alt" horiz-adv-x="1843" 
d="M922 0q-145 0 -278 57t-229 153t-153 229t-57 278t57 278t153 229t229 153t278 57t278 -57t228.5 -153t152.5 -228.5t57 -278.5t-57 -278.5t-152.5 -228.5t-228.5 -153t-278 -57zM922 78q130 0 248 50.5t204 136.5t136.5 204t50.5 248t-50.5 248t-136.5 204t-204 136.5
t-248 50.5t-248 -50.5t-204 -136.5t-136.5 -204t-50.5 -248t50.5 -248t136.5 -204t204 -136.5t248 -50.5z" />
    <glyph glyph-name="at.case" horiz-adv-x="1990" 
d="M1036 -184q-272 0 -485 112t-331 314.5t-118 462.5q0 197 73 368.5t197.5 290t296 186.5t363.5 68q181 0 343.5 -60.5t282 -166t189.5 -258.5t70 -330q0 -234 -114.5 -382.5t-289.5 -148.5q-99 0 -176.5 49t-107.5 134h-6q-33 -87 -105 -131.5t-170 -44.5
q-161 0 -264.5 118t-103.5 310q0 193 104 311.5t264 118.5q81 0 142.5 -33t93.5 -96h8l14 100h203v-483q0 -70 27.5 -107t74.5 -37q71 0 117.5 76.5t46.5 220.5q0 186 -85 325t-229.5 210t-326.5 71q-200 0 -355.5 -85.5t-241 -239t-85.5 -350.5q0 -298 190 -480t500 -182
q202 0 379 72v-236q-173 -67 -385 -67zM1010 496q81 0 132.5 56t51.5 155q0 100 -51.5 156.5t-132.5 56.5q-82 0 -133.5 -56.5t-51.5 -156.5q0 -99 51.5 -155t133.5 -56z" />
    <glyph glyph-name="uni0308.case" 
d="M-854 1124q-73 0 -125.5 51t-52.5 128t52.5 128.5t125.5 51.5t124.5 -51.5t51.5 -128.5t-51.5 -128t-124.5 -51zM-375 1124q-73 0 -124.5 51t-51.5 128t51.5 128.5t124.5 51.5t125.5 -51.5t52.5 -128.5t-52.5 -128t-125.5 -51z" />
    <glyph glyph-name="uni0307.case" 
d="M-614 1116q-79 0 -135 53t-56 134q0 80 56 133t135 53t134.5 -52.5t55.5 -133.5t-55.5 -134t-134.5 -53z" />
    <glyph glyph-name="gravecomb.case" 
d="M-408 1118h-276l-234 328h345z" />
    <glyph glyph-name="acutecomb.case" 
d="M-563 1118h-275l164 328h346z" />
    <glyph glyph-name="uni030B.case" 
d="M-735 1118h-240l144 328h290zM-324 1118h-241l145 328h289z" />
    <glyph glyph-name="uni0302.case" 
d="M-469 1446l254 -328h-270l-129 158l-129 -158h-271l254 328h291z" />
    <glyph glyph-name="uni030C.case" 
d="M-614 1288l129 158h270l-254 -328h-291l-254 328h271z" />
    <glyph glyph-name="uni0306.case" 
d="M-614 1114q-155 0 -243.5 83t-88.5 224v23h225q0 -148 107 -148q106 0 106 148h225v-23q0 -141 -88 -224t-243 -83z" />
    <glyph glyph-name="uni030A.case" 
d="M-614 1094q-114 0 -188.5 69t-74.5 172t75 172.5t188 69.5t187.5 -69.5t74.5 -172.5t-74.5 -172t-187.5 -69zM-614 1255q38 0 60 22t22 58t-22 58t-60 22t-60 -22t-22 -58t22 -58t60 -22z" />
    <glyph glyph-name="tildecomb.case" 
d="M-459 1110q-83 0 -180 82q-57 49 -88 49q-51 0 -51 -121h-199q0 164 54.5 249t154.5 85q84 0 178 -82q59 -49 88 -49q53 0 53 123h197q0 -164 -54 -250t-153 -86z" />
    <glyph glyph-name="uni0304.case" 
d="M-303 1161h-623v225h623v-225z" />
    <glyph glyph-name="uni0315.case" 
d="M-618 1458q78 0 126.5 -61t47.5 -158q-1 -98 -59.5 -192.5t-166.5 -176.5l-78 86q115 103 142 187h-19q-69 0 -113 42.5t-44 108.5q0 70 47 117t117 47z" />
    <glyph glyph-name="uni0326.case" 
d="M-621 -133q84 0 135 -61t50 -160q-3 -107 -70 -211h-156q37 55 56 119h-19q-74 0 -120 44.5t-46 110.5q0 65 48.5 111.5t121.5 46.5z" />
    <glyph glyph-name="uni0327.case" 
d="M-598 0l-2 -92q86 -13 133 -60.5t47 -121.5q0 -94 -74.5 -149.5t-207.5 -55.5q-56 0 -109 12v162q27 -4 72 -4q94 0 94 49q0 24 -31.5 35.5t-120.5 11.5l21 213h178z" />
    <glyph glyph-name="uni0328.case" 
d="M-551 -479q-126 0 -200 61.5t-74 165.5q0 106 76 188t219 119l102 -55q-84 -57 -118 -100t-34 -82q0 -68 86 -68q35 0 66 10v-223q-56 -16 -123 -16z" />
    <glyph glyph-name="uni0308.narrow" 
d="M-469 1135q-69 0 -113.5 46.5t-44.5 121.5t44.5 121t113.5 46t113.5 -46t44.5 -121t-44.5 -121.5t-113.5 -46.5zM-78 1135q-68 0 -111.5 46t-43.5 122t43.5 121.5t111.5 45.5q69 0 113.5 -46t44.5 -121t-44.5 -121.5t-113.5 -46.5z" />
    <glyph glyph-name="gravecomb.narrow" 
d="M-119 1126h-260l-180 312h326z" />
    <glyph glyph-name="acutecomb.narrow" 
d="M-180 1126h-260l112 312h326z" />
    <glyph glyph-name="uni0302.narrow" 
d="M-154 1438l220 -312h-240l-98 138l-99 -138h-241l219 312h239z" />
    <glyph glyph-name="uni030C.narrow" 
d="M-272 1300l98 138h240l-220 -312h-239l-219 312h241z" />
    <glyph glyph-name="uni0306.narrow" 
d="M-272 1124q-140 0 -214.5 77t-74.5 212v21h194q0 -69 26 -103.5t69 -34.5t67.5 34t24.5 104h196v-21q0 -135 -74 -212t-214 -77z" />
    <glyph glyph-name="tildecomb.narrow" 
d="M-131 1120q-40 0 -78 17t-88 59q-52 47 -78 47q-47 0 -47 -115h-174q-3 154 44.5 235t135.5 81q77 0 168 -76q52 -47 76 -47q47 0 47 115h174q4 -153 -43.5 -234.5t-136.5 -81.5z" />
    <glyph glyph-name="uni0304.narrow" 
d="M0 1167h-545v213h545v-213z" />
    <glyph glyph-name="uni0328.narrow" 
d="M-240 -451q-113 0 -179 56t-66 153q0 100 71 179t195 112l90 -49q-125 -102 -125 -172q0 -64 68 -64q20 0 57 11v-211q-53 -15 -111 -15z" />
    </font>
</defs>
</svg>
